<svg width="50" height="50" viewBox="0 0 50 50" fill="none" xmlns="http://www.w3.org/2000/svg">
<g clip-path="url(#clip0_101_3608)">
<path opacity="0.963" fill-rule="evenodd" clip-rule="evenodd" d="M22.7051 -0.0488281C24.2024 -0.0488281 25.6999 -0.0488281 27.1973 -0.0488281C35.0481 0.888478 41.2493 4.56687 45.8008 10.9863C48.1271 14.5636 49.5104 18.4698 49.9512 22.7051C49.9512 24.2024 49.9512 25.6999 49.9512 27.1973C49.0139 35.0481 45.3354 41.2493 38.916 45.8008C35.3388 48.1271 31.4325 49.5104 27.1973 49.9512C25.6999 49.9512 24.2024 49.9512 22.7051 49.9512C14.8542 49.0139 8.65299 45.3354 4.10156 38.916C1.7753 35.3387 0.391835 31.4324 -0.0488281 27.1973C-0.0488281 25.6999 -0.0488281 24.2024 -0.0488281 22.7051C0.888434 14.8543 4.56682 8.6531 10.9863 4.10156C14.5636 1.77533 18.4698 0.391867 22.7051 -0.0488281ZM24.8535 2.88086C32.3717 3.09955 38.3775 6.192 42.8711 12.1582C47.3174 18.7902 48.1312 25.8541 45.3125 33.3496C42.218 40.3173 36.9607 44.6956 29.541 46.4844C21.3407 47.9392 14.3583 45.6769 8.59375 39.6973C3.01567 33.0627 1.58338 25.6082 4.29688 17.334C7.10226 10.2644 12.1641 5.69077 19.4824 3.61328C21.2647 3.19941 23.0551 2.95527 24.8535 2.88086ZM23.0957 19.7754C24.5624 19.878 25.0019 20.5941 24.4141 21.9238C23.2627 22.6588 22.4978 22.3658 22.1191 21.0449C22.2285 20.4481 22.5541 20.025 23.0957 19.7754ZM23.1934 25.3418C25.044 25.5157 25.8741 26.5249 25.6836 28.3691C25.0927 29.747 24.0673 30.2515 22.6074 29.8828C21.0995 29.037 20.7577 27.8488 21.582 26.3184C22.0144 25.8019 22.5515 25.4764 23.1934 25.3418Z" fill="#FED137"/>
<path opacity="0.964" fill-rule="evenodd" clip-rule="evenodd" d="M22.8027 16.7481C25.8099 16.6562 27.4701 18.1047 27.7831 21.0938C27.7743 22.0416 27.4813 22.888 26.9042 23.6328C27.8648 24.3966 28.467 25.3895 28.7109 26.6113C29.0649 29.436 27.9744 31.4705 25.4394 32.7148C22.8588 33.5392 20.7266 32.9044 19.0429 30.8106C17.7749 28.6689 17.8075 26.5529 19.1406 24.4629C19.4172 24.1862 19.694 23.9095 19.9706 23.6328C18.8187 21.9366 18.8024 20.2276 19.9218 18.5059C20.671 17.5544 21.6313 16.9685 22.8027 16.7481ZM23.0956 19.7754C22.554 20.025 22.2285 20.4482 22.1191 21.0449C22.4977 22.3658 23.2626 22.6588 24.414 21.9238C25.0018 20.5941 24.5623 19.878 23.0956 19.7754ZM23.1933 25.3418C22.5514 25.4764 22.0143 25.8019 21.582 26.3184C20.7577 27.8488 21.0995 29.037 22.6074 29.8828C24.0672 30.2515 25.0926 29.747 25.6835 28.3691C25.8741 26.5249 25.044 25.5157 23.1933 25.3418Z" fill="#FED137"/>
<circle cx="23.5" cy="21.5" r="1.5" fill="#252222"/>
<circle cx="23.5" cy="27.5" r="2.5" fill="#252222"/>
<path opacity="0.961" fill-rule="evenodd" clip-rule="evenodd" d="M35.205 16.7481C36.265 16.6209 36.8998 17.0766 37.1093 18.1152C37.1581 18.7981 37.1743 19.4816 37.1581 20.166C38.0126 20.126 38.8589 20.1748 39.6972 20.3125C40.561 20.9194 40.74 21.6845 40.2343 22.6074C40.0836 22.7908 39.9046 22.9373 39.6972 23.0469C38.8589 23.1846 38.0126 23.2334 37.1581 23.1934C37.1942 24.014 37.1454 24.8277 37.0116 25.6348C36.4872 26.6016 35.7223 26.8457 34.7167 26.3672C34.4622 26.1779 34.2832 25.9338 34.1796 25.6348C34.1308 24.8216 34.1145 24.0078 34.1308 23.1934C33.2438 23.2338 32.3649 23.185 31.494 23.0469C30.6716 22.4456 30.4926 21.6807 30.9569 20.752C31.1076 20.5686 31.2866 20.4221 31.494 20.3125C32.3649 20.1744 33.2438 20.1256 34.1308 20.166C34.1145 19.3516 34.1308 18.5378 34.1796 17.7246C34.3852 17.2419 34.727 16.9164 35.205 16.7481Z" fill="#FED137"/>
<path opacity="0.962" fill-rule="evenodd" clip-rule="evenodd" d="M10.4981 16.8457C11.703 16.8294 12.9073 16.8457 14.1114 16.8945C14.7647 17.0924 15.139 17.5318 15.2344 18.2129C15.2995 22.7376 15.2995 27.2624 15.2344 31.7871C14.8683 33.06 14.0708 33.4344 12.8418 32.9102C12.5873 32.7209 12.4083 32.4768 12.3047 32.1777C12.2559 28.0763 12.2396 23.9747 12.2559 19.873C11.6691 19.8893 11.0831 19.8729 10.4981 19.8242C9.57251 19.4542 9.23072 18.7869 9.47268 17.8223C9.67833 17.3395 10.0201 17.0141 10.4981 16.8457Z" fill="#FED137"/>
</g>
<defs>
<clipPath id="clip0_101_3608">
<rect width="50" height="50" fill="white"/>
</clipPath>
</defs>
</svg>
