<svg width="60" height="60" viewBox="0 0 60 60" fill="none" xmlns="http://www.w3.org/2000/svg">
<g clip-path="url(#clip0_106_1658)">
<path opacity="0.936" fill-rule="evenodd" clip-rule="evenodd" d="M59.9414 42.7149C59.9414 43.418 59.9414 44.1211 59.9414 44.8243C59.0197 48.5695 56.637 50.6983 52.793 51.211C37.5586 51.2891 22.3242 51.2891 7.08984 51.211C3.24591 50.6983 0.863091 48.5695 -0.0585938 44.8243C-0.0585938 44.1211 -0.0585938 43.418 -0.0585938 42.7149C0.192973 42.2097 0.583598 41.8386 1.11328 41.6016C2.32359 41.543 3.53453 41.5236 4.74609 41.543C4.74609 38.8477 4.74609 36.1524 4.74609 33.4571C3.30026 33.4766 1.85494 33.4571 0.410156 33.3985C0.193332 33.3176 0.0370822 33.181 -0.0585938 32.9883C-0.0585938 32.6758 -0.0585938 32.3634 -0.0585938 32.0508C0.118391 31.8943 0.313704 31.7575 0.527344 31.6407C1.74016 31.621 2.9511 31.5624 4.16016 31.4649C5.22456 29.6874 6.3183 27.9296 7.44141 26.1914C7.9089 25.9043 8.35813 25.9434 8.78906 26.3086C9.60938 27.6759 10.4297 29.043 11.25 30.4102C11.3341 30.5216 11.4317 30.5411 11.543 30.4688C14.2673 25.8786 17.0798 21.3473 19.9805 16.875C20.4045 16.7618 20.795 16.8204 21.1523 17.0508C21.7811 18.0119 22.3864 18.9884 22.9688 19.9805C23.0368 17.9293 23.6033 16.0348 24.668 14.2969C18.9258 14.2187 13.1836 14.2187 7.44141 14.2969C7.08123 14.3835 6.82732 14.5983 6.67969 14.9414C6.64063 18.3009 6.60156 21.6602 6.5625 25.0196C5.81306 25.7134 5.22713 25.5963 4.80469 24.668C4.72656 21.3868 4.72656 18.1055 4.80469 14.8243C4.9733 13.7179 5.57877 12.9562 6.62109 12.5391C13.0664 12.5001 19.5117 12.4609 25.957 12.4219C29.8061 8.66765 34.2592 7.73015 39.3164 9.60941C40.7923 10.2889 42.0813 11.2264 43.1836 12.4219C44.1722 12.4289 45.1487 12.5071 46.1133 12.6563C46.4823 13.2378 46.4041 13.7455 45.8789 14.1797C45.444 14.2002 45.0143 14.2588 44.5898 14.3555C46.622 18.0216 46.7392 21.752 44.9414 25.5469C46.245 26.9678 47.5927 28.3546 48.9844 29.7071C50.1443 31.7796 49.7732 33.5179 47.8711 34.9219C46.5817 35.5166 45.3316 35.4385 44.1211 34.6875C42.7344 33.3009 41.3476 31.9141 39.9609 30.5274C37.2062 31.8918 34.3351 32.1848 31.3477 31.4063C28.8439 30.6329 26.7932 29.2071 25.1953 27.1289C23.6324 24.6107 22.0504 22.1106 20.4492 19.6289C17.6317 24.1112 14.8582 28.623 12.1289 33.1641C11.6602 33.5547 11.1914 33.5547 10.7227 33.1641C9.88281 31.7774 9.04297 30.3906 8.20312 29.0039C8.0985 28.862 8.00085 28.862 7.91016 29.0039C7.5 29.668 7.08984 30.332 6.67969 30.9961C6.62111 32.9488 6.60157 34.902 6.62109 36.8555C22.168 36.8555 37.7148 36.8555 53.2617 36.8555C53.2813 29.5507 53.2617 22.246 53.2031 14.9414C53.0555 14.5983 52.8015 14.3835 52.4414 14.2969C51.3477 14.2579 50.2539 14.2187 49.1602 14.1797C48.5364 13.6273 48.5364 13.0805 49.1602 12.5391C50.5274 12.4609 51.8945 12.4609 53.2617 12.5391C54.0625 12.8711 54.6289 13.4376 54.9609 14.2383C55.135 23.3356 55.1936 32.4372 55.1367 41.543C56.3483 41.5236 57.5592 41.543 58.7695 41.6016C59.2992 41.8386 59.6898 42.2097 59.9414 42.7149ZM33.8086 10.4883C36.2196 10.4071 38.4072 11.0516 40.3711 12.4219C36.5429 12.5001 32.7149 12.5001 28.8867 12.4219C30.3681 11.3491 32.0087 10.7046 33.8086 10.4883ZM26.8945 14.2383C32.0119 14.2187 37.1291 14.2383 42.2461 14.2969C45.0383 18.239 45.0579 22.2038 42.3047 26.1914C39.4754 29.4911 35.9402 30.6044 31.6992 29.5313C29.5218 28.818 27.8031 27.5093 26.543 25.6055C27.0898 24.5896 27.6952 23.6131 28.3594 22.6758C28.8151 23.4504 29.3425 24.1731 29.9414 24.8438C30.542 25.0277 30.9913 24.8519 31.2891 24.3164C32.5195 22.3047 33.75 20.293 34.9805 18.2813C36.2305 18.2423 37.4804 18.2031 38.7305 18.1641C39.2137 18.049 39.4481 17.7366 39.4336 17.2266C39.4104 16.828 39.215 16.5546 38.8477 16.4063C37.2461 16.3281 35.6446 16.3281 34.043 16.4063C32.7199 18.2772 31.4895 20.2108 30.3516 22.2071C29.9218 21.543 29.4922 20.879 29.0625 20.2149C28.5681 19.7604 28.0799 19.7604 27.5977 20.2149C26.9367 21.3428 26.2336 22.4365 25.4883 23.4961C24.37 20.1671 24.8387 17.0812 26.8945 14.2383ZM43.7695 27.2461C45.1792 28.519 46.4878 29.8861 47.6953 31.3477C47.8736 32.5377 47.3658 33.2409 46.1719 33.4571C45.8632 33.4062 45.5702 33.3086 45.293 33.1641C44.0821 31.9532 42.8711 30.7422 41.6602 29.5313C42.0743 29.0779 42.5235 28.6677 43.0078 28.3008C43.2902 27.9613 43.5442 27.6098 43.7695 27.2461ZM6.62109 38.7305C22.168 38.7305 37.7148 38.7305 53.2617 38.7305C53.2617 39.668 53.2617 40.6055 53.2617 41.543C50.527 41.5234 47.7927 41.543 45.0586 41.6016C44.3647 42.351 44.4819 42.937 45.4102 43.3594C49.6679 43.3984 53.9258 43.4376 58.1836 43.4766C57.853 46.776 56.0561 48.7292 52.793 49.336C45.1758 49.3555 37.5586 49.375 29.9414 49.3946C22.1248 49.4131 14.3122 49.3545 6.50391 49.2188C4.63672 48.7571 3.25 47.6828 2.34375 45.9961C1.9901 45.187 1.77526 44.3471 1.69922 43.4766C14.9414 43.4376 28.1836 43.3984 41.4258 43.3594C42.1468 43.1877 42.4008 42.7386 42.1875 42.0118C42.1289 41.797 41.9921 41.6602 41.7773 41.6016C30.0587 41.543 18.34 41.5234 6.62109 41.543C6.62109 40.6055 6.62109 39.668 6.62109 38.7305Z" fill="#3C3939"/>
<path opacity="0.895" fill-rule="evenodd" clip-rule="evenodd" d="M17.6368 28.6524C18.9243 28.5531 19.4516 29.1391 19.2189 30.4102C18.6799 31.1792 17.9964 31.3159 17.1681 30.8204C16.5953 29.9207 16.7516 29.198 17.6368 28.6524Z" fill="#FED137"/>
<path opacity="0.938" fill-rule="evenodd" clip-rule="evenodd" d="M21.3868 29.0039C22.4032 28.9844 23.4188 29.0039 24.4337 29.0625C25.0586 29.6094 25.0586 30.1562 24.4337 30.7031C23.418 30.7813 22.4025 30.7813 21.3868 30.7031C21.0509 30.5398 20.8947 30.2665 20.918 29.8828C20.9098 29.4883 21.0661 29.1954 21.3868 29.0039Z" fill="#FED137"/>
<path opacity="0.895" fill-rule="evenodd" clip-rule="evenodd" d="M17.754 32.7539C19.1347 32.7799 19.5839 33.444 19.1016 34.7461C18.4038 35.5188 17.7007 35.5188 16.9923 34.7461C16.5993 33.8157 16.8532 33.1518 17.754 32.7539Z" fill="#FED137"/>
<path opacity="0.915" fill-rule="evenodd" clip-rule="evenodd" d="M21.3867 33.1055C23.5354 33.0859 25.6839 33.1055 27.832 33.1641C28.6407 33.7992 28.6015 34.3852 27.7148 34.9219C25.6836 35.0001 23.6522 35.0001 21.621 34.9219C20.9875 34.6899 20.7727 34.2406 20.9765 33.5742C21.1378 33.433 21.2744 33.2768 21.3867 33.1055Z" fill="#FED137"/>
</g>
<defs>
<clipPath id="clip0_106_1658">
<rect width="60" height="60" fill="white"/>
</clipPath>
</defs>
</svg>
