<svg width="444" height="441" viewBox="0 0 444 441" fill="none" xmlns="http://www.w3.org/2000/svg">
<g opacity="0.6">
<path d="M353.522 137.245L358.896 148.358L365.535 145.147L360.161 134.035L353.522 137.245Z" fill="#EED069"/>
<path d="M359.385 134.674L364.544 145.343C366.1 148.561 369.971 149.908 373.188 148.351L375.304 147.327C378.522 145.771 379.869 141.9 378.313 138.682L373.154 128.014C371.598 124.796 367.727 123.449 364.509 125.005L362.392 126.029C359.176 127.586 357.829 131.456 359.385 134.674Z" fill="#FFDE6D"/>
<path d="M282.897 84.1184L305.072 91.8368L307.717 84.2369L285.542 76.5185L282.897 84.1184Z" fill="#EED069"/>
<path d="M279.313 74.1514L314.071 86.2495C316.793 87.197 319.77 85.7575 320.717 83.0352L325.427 69.5046C326.374 66.7823 324.935 63.8057 322.212 62.8582L287.455 50.7601C284.731 49.812 281.756 51.2521 280.808 53.9744L276.099 67.505C275.151 70.2273 276.589 73.2032 279.313 74.1514Z" fill="#FFDE6D"/>
<path d="M247.917 299.559C308.34 305.283 361.962 260.94 367.685 200.517C373.408 140.095 329.065 86.4729 268.643 80.7497C208.22 75.0266 154.598 119.369 148.875 179.792C143.152 240.215 187.495 293.836 247.917 299.559Z" fill="#FFDE6D"/>
<path d="M301.76 280.015C351.397 256.011 372.176 196.312 348.171 146.676C324.166 97.0387 264.468 76.2597 214.831 100.264C165.194 124.269 144.415 183.967 168.42 233.604C192.425 283.241 252.123 304.02 301.76 280.015Z" fill="#FDFAF7"/>
<path opacity="0.09" d="M311.246 105.462C305.041 101.584 298.329 98.3525 291.129 95.8465C239.049 77.7193 182.14 105.241 164.013 157.321C145.885 209.402 173.405 266.309 225.487 284.437C232.686 286.943 239.955 288.577 247.226 289.392C208.538 265.241 190.248 216.771 205.869 171.892C221.491 127.01 265.924 100.372 311.246 105.462Z" fill="#FFDE6D"/>
<path d="M257.23 193.22C258.932 193.813 260.792 192.913 261.384 191.213L285.416 122.169C286.008 120.469 285.109 118.607 283.407 118.014C281.704 117.422 279.846 118.322 279.254 120.024L255.222 189.068C254.628 190.768 255.527 192.628 257.23 193.22Z" fill="#FFE280"/>
<path d="M267.906 248.019C268.432 248.202 269.013 248.253 269.6 248.138C271.369 247.794 272.523 246.082 272.179 244.313L261.505 189.515C261.16 187.746 259.444 186.592 257.677 186.937C255.908 187.282 254.754 188.993 255.098 190.762L265.77 245.56C266.002 246.742 266.845 247.65 267.906 248.019Z" fill="#FFE280"/>
<path d="M249.83 187.191C248.202 191.87 250.674 196.983 255.354 198.612C260.033 200.241 265.146 197.768 266.775 193.089C268.404 188.41 265.931 183.296 261.252 181.668C256.572 180.039 251.459 182.512 249.83 187.191Z" fill="#EED069"/>
<path d="M285.276 112.646C286.127 112.942 287.057 112.492 287.353 111.641L290.62 102.256C290.916 101.405 290.466 100.475 289.615 100.178C288.764 99.8822 287.834 100.332 287.538 101.183L284.271 110.568C283.975 111.419 284.424 112.349 285.276 112.646Z" fill="#FFE280"/>
<path d="M321.106 136.988C321.638 137.173 322.252 137.076 322.71 136.683L330.23 130.189C330.911 129.6 330.989 128.57 330.399 127.889C329.812 127.206 328.78 127.13 328.099 127.72L320.579 134.213C319.895 134.802 319.82 135.832 320.409 136.514C320.603 136.738 320.845 136.897 321.106 136.988Z" fill="#FFE280"/>
<path d="M339.968 175.987C340.229 176.078 340.517 176.104 340.808 176.047L350.568 174.184C351.453 174.016 352.034 173.162 351.864 172.276C351.694 171.39 350.839 170.81 349.955 170.98L340.196 172.843C339.311 173.011 338.73 173.866 338.9 174.752C339.014 175.346 339.436 175.802 339.968 175.987Z" fill="#FFE280"/>
<path d="M336.8 219.19L346.185 222.457C347.037 222.753 347.966 222.303 348.263 221.452C348.559 220.601 348.109 219.671 347.258 219.375L337.873 216.108C337.022 215.812 336.092 216.261 335.796 217.113C335.499 217.964 335.951 218.894 336.8 219.19Z" fill="#FFE280"/>
<path d="M318.95 262.542C319.481 262.727 320.095 262.632 320.554 262.237C321.235 261.647 321.31 260.617 320.723 259.936L314.23 252.414C313.645 251.732 312.611 251.654 311.929 252.245C311.246 252.834 311.171 253.864 311.76 254.546L318.253 262.068C318.446 262.292 318.688 262.451 318.95 262.542Z" fill="#FFE280"/>
<path d="M275.325 283.643C275.586 283.734 275.874 283.759 276.166 283.703C277.051 283.533 277.631 282.68 277.461 281.795L275.598 272.035C275.43 271.15 274.576 270.569 273.69 270.739C272.804 270.909 272.224 271.762 272.394 272.648L274.257 282.407C274.369 283.001 274.791 283.457 275.325 283.643Z" fill="#FFE280"/>
<path d="M226.99 280.1C227.842 280.396 228.772 279.946 229.068 279.095L232.334 269.712C232.63 268.86 232.18 267.931 231.329 267.634C230.478 267.338 229.548 267.788 229.252 268.639L225.986 278.022C225.689 278.873 226.139 279.803 226.99 280.1Z" fill="#FFE280"/>
<path d="M186.904 252.866C187.436 253.051 188.049 252.956 188.508 252.561L196.028 246.067C196.711 245.478 196.786 244.448 196.197 243.767C195.61 243.084 194.578 243.008 193.897 243.597L186.376 250.091C185.693 250.68 185.618 251.71 186.207 252.392C186.399 252.616 186.641 252.775 186.904 252.866Z" fill="#FFE280"/>
<path d="M165.805 209.238C166.066 209.329 166.354 209.354 166.645 209.298L176.407 207.434C177.292 207.266 177.873 206.411 177.703 205.526C177.533 204.642 176.678 204.061 175.795 204.23L166.033 206.094C165.147 206.264 164.567 207.117 164.737 208.002C164.851 208.597 165.273 209.053 165.805 209.238Z" fill="#FFE280"/>
<path d="M169.347 160.905L178.73 164.171C179.581 164.467 180.511 164.018 180.808 163.166C181.104 162.315 180.654 161.385 179.803 161.089L170.42 157.823C169.568 157.527 168.639 157.976 168.342 158.828C168.046 159.679 168.496 160.609 169.347 160.905Z" fill="#FFE280"/>
<path d="M203.074 128.339C203.606 128.524 204.22 128.427 204.678 128.033C205.361 127.445 205.436 126.414 204.847 125.733L198.352 118.212C197.765 117.53 196.732 117.454 196.051 118.043C195.368 118.632 195.293 119.662 195.882 120.344L202.377 127.864C202.571 128.089 202.812 128.248 203.074 128.339Z" fill="#FFE280"/>
<path d="M242.074 109.48C242.336 109.571 242.624 109.597 242.915 109.541C243.8 109.372 244.381 108.518 244.211 107.632L242.348 97.8728C242.177 96.9889 241.321 96.4075 240.439 96.5769C239.554 96.745 238.974 97.5996 239.144 98.4852L241.007 108.245C241.119 108.837 241.541 109.294 242.074 109.48Z" fill="#FFE280"/>
<path d="M240.326 372.252L52.3838 413.581C49.4803 414.219 46.6109 412.384 45.9721 409.481L16.8936 277.25L215.345 233.609L244.424 365.84C245.064 368.743 243.229 371.613 240.326 372.252Z" fill="#FDFAF7"/>
<path opacity="0.31" d="M153.467 391.354L52.3839 413.583C49.4843 414.22 46.6131 412.384 45.9758 409.485L16.8972 277.256L72.3392 265.064C70.5197 278.221 70.9528 291.915 73.9703 305.639C83.2759 347.956 114.725 379.699 153.467 391.354Z" fill="#FAF5F0"/>
<path d="M215.347 233.609L16.8954 277.25L11.981 254.905C10.2383 246.977 15.2517 239.136 23.1799 237.391L192.919 200.065C200.847 198.321 208.688 203.336 210.433 211.264L215.347 233.609Z" fill="#FED137"/>
<path d="M36.5817 252.8C34.8728 252.675 33.3771 251.446 32.9898 249.688L29.0132 231.608C28.5425 229.462 29.8979 227.342 32.042 226.869C34.1899 226.395 36.3078 227.754 36.7805 229.898L40.757 247.978C41.2278 250.124 39.8724 252.244 37.7283 252.717C37.3419 252.802 36.9561 252.828 36.5817 252.8Z" fill="#FFE280"/>
<path d="M66.4608 246.23C64.7518 246.104 63.2561 244.875 62.8688 243.117L58.8922 225.037C58.4215 222.892 59.7769 220.772 61.921 220.299C64.0686 219.828 66.1868 221.183 66.6595 223.328L70.6361 241.407C71.1068 243.553 69.7514 245.673 67.6073 246.146C67.2209 246.231 66.8352 246.257 66.4608 246.23Z" fill="#FFE280"/>
<path d="M96.3402 239.659C94.6312 239.534 93.1356 238.304 92.7482 236.547L88.7717 218.467C88.3009 216.321 89.6564 214.201 91.8004 213.728C93.948 213.258 96.0661 214.615 96.5389 216.757L100.515 234.837C100.986 236.983 99.6308 239.103 97.4867 239.575C97.1003 239.661 96.7164 239.687 96.3402 239.659Z" fill="#FFE280"/>
<path d="M126.221 233.089C124.512 232.964 123.017 231.736 122.629 229.977L118.653 211.897C118.182 209.753 119.538 207.631 121.683 207.16C123.827 206.687 125.949 208.045 126.42 210.189L130.396 228.269C130.867 230.413 129.512 232.534 127.368 233.005C126.981 233.091 126.596 233.116 126.221 233.089Z" fill="#FFE280"/>
<path d="M156.1 226.517C154.391 226.392 152.896 225.162 152.508 223.404L148.534 205.325C148.063 203.181 149.418 201.059 151.564 200.588C153.708 200.117 155.83 201.475 156.301 203.619L160.275 221.698C160.746 223.842 159.391 225.964 157.245 226.435C156.86 226.52 156.475 226.544 156.1 226.517Z" fill="#FFE280"/>
<path d="M185.981 219.947C184.272 219.822 182.777 218.592 182.389 216.834L178.415 198.755C177.944 196.611 179.299 194.489 181.445 194.018C183.589 193.543 185.711 194.903 186.182 197.049L190.156 215.128C190.627 217.272 189.272 219.394 187.128 219.865C186.741 219.95 186.356 219.974 185.981 219.947Z" fill="#FFE280"/>
<path opacity="0.22" d="M72.9137 286.552L44.6387 292.77L50.1381 317.777L78.4131 311.559L72.9137 286.552Z" fill="#FFDE6D"/>
<path opacity="0.22" d="M114.174 277.478L85.8994 283.696L91.3989 308.703L119.674 302.485L114.174 277.478Z" fill="#FFDE6D"/>
<path opacity="0.22" d="M155.435 268.405L127.16 274.623L132.659 299.631L160.934 293.413L155.435 268.405Z" fill="#FFDE6D"/>
<path d="M134.402 281.216C133.817 281.173 133.305 280.753 133.172 280.149C133.01 279.414 133.475 278.688 134.21 278.527L150.653 274.912C151.388 274.751 152.114 275.214 152.275 275.949C152.437 276.684 151.972 277.41 151.237 277.571L134.794 281.187C134.663 281.218 134.53 281.225 134.402 281.216Z" fill="#FFDE6D"/>
<path d="M135.71 287.165C135.125 287.122 134.613 286.7 134.481 286.098C134.318 285.363 134.783 284.637 135.518 284.476L151.961 280.861C152.694 280.7 153.423 281.163 153.583 281.898C153.745 282.633 153.28 283.359 152.545 283.52L136.102 287.135C135.971 287.165 135.838 287.174 135.71 287.165Z" fill="#FFDE6D"/>
<path d="M137.019 293.113C136.433 293.071 135.922 292.651 135.789 292.047C135.627 291.312 136.092 290.586 136.827 290.425L153.27 286.81C154.005 286.647 154.731 287.112 154.892 287.847C155.054 288.582 154.589 289.308 153.854 289.469L137.411 293.084C137.28 293.114 137.147 293.123 137.019 293.113Z" fill="#FFDE6D"/>
<path opacity="0.22" d="M196.7 259.328L168.425 265.546L173.924 290.554L202.199 284.336L196.7 259.328Z" fill="#FFDE6D"/>
<path opacity="0.22" d="M80.8055 322.45L52.5305 328.668L58.03 353.676L86.305 347.458L80.8055 322.45Z" fill="#FFDE6D"/>
<path opacity="0.22" d="M122.069 313.375L93.7939 319.593L99.2934 344.601L127.568 338.383L122.069 313.375Z" fill="#FFDE6D"/>
<path opacity="0.22" d="M163.33 304.302L135.055 310.52L140.554 335.528L168.829 329.31L163.33 304.302Z" fill="#FFDE6D"/>
<path opacity="0.22" d="M204.595 295.225L176.32 301.443L181.82 326.45L210.095 320.232L204.595 295.225Z" fill="#FFDE6D"/>
<path opacity="0.22" d="M88.5858 357.832L60.3108 364.05L65.8102 389.058L94.0853 382.84L88.5858 357.832Z" fill="#FFDE6D"/>
<path opacity="0.22" d="M129.853 348.754L101.578 354.972L107.077 379.98L135.352 373.762L129.853 348.754Z" fill="#FFDE6D"/>
<path opacity="0.22" d="M171.116 339.679L142.841 345.897L148.34 370.905L176.615 364.687L171.116 339.679Z" fill="#FFDE6D"/>
<path opacity="0.22" d="M212.375 330.608L184.1 336.826L189.599 361.833L217.874 355.615L212.375 330.608Z" fill="#FFDE6D"/>
<path d="M108.815 361.567C108.229 361.524 107.718 361.103 107.585 360.5C107.423 359.765 107.888 359.039 108.623 358.877L125.066 355.259C125.801 355.101 126.527 355.562 126.688 356.297C126.85 357.032 126.385 357.758 125.65 357.92L109.207 361.538C109.076 361.567 108.943 361.576 108.815 361.567Z" fill="#FFDE6D"/>
<path d="M110.123 367.516C109.538 367.473 109.026 367.052 108.893 366.449C108.731 365.714 109.196 364.988 109.931 364.826L126.374 361.208C127.107 361.053 127.836 361.511 127.996 362.246C128.158 362.981 127.693 363.707 126.958 363.869L110.515 367.487C110.382 367.516 110.251 367.525 110.123 367.516Z" fill="#FFDE6D"/>
<path d="M111.432 373.463C110.846 373.42 110.334 372.999 110.202 372.396C110.039 371.662 110.504 370.935 111.239 370.773L127.683 367.156C128.417 366.999 129.144 367.458 129.304 368.193C129.467 368.928 129.002 369.654 128.267 369.816L111.823 373.434C111.692 373.463 111.559 373.472 111.432 373.463Z" fill="#FFDE6D"/>
<path d="M151.063 326.733C150.596 326.836 150.091 326.76 149.658 326.483L144.145 322.957C143.277 322.402 143.022 321.248 143.578 320.38C144.133 319.509 145.289 319.256 146.155 319.812L150.096 322.331L156.139 312.879C156.697 312.011 157.848 311.758 158.719 312.312C159.585 312.867 159.84 314.022 159.286 314.891L152.236 325.915C151.956 326.351 151.529 326.631 151.063 326.733Z" fill="#FFDE6D"/>
<path d="M60.561 308.59C60.0932 308.692 59.5881 308.617 59.1556 308.34L53.6429 304.814C52.7743 304.259 52.5196 303.105 53.0753 302.237C53.631 301.366 54.7844 301.113 55.653 301.669L59.594 304.188L65.6385 294.736C66.196 293.868 67.3475 293.615 68.2181 294.169C69.0849 294.724 69.3394 295.88 68.7858 296.747L61.7372 307.77C61.4536 308.208 61.0268 308.488 60.561 308.59Z" fill="#FFDE6D"/>
<path d="M192.323 317.659C191.856 317.763 191.351 317.686 190.918 317.409L185.405 313.884C184.537 313.328 184.282 312.174 184.838 311.306C185.393 310.435 186.549 310.183 187.415 310.738L191.357 313.258L197.399 303.805C197.957 302.937 199.108 302.684 199.979 303.238C200.845 303.793 201.1 304.949 200.546 305.818L193.496 316.841C193.218 317.277 192.791 317.557 192.323 317.659Z" fill="#FFDE6D"/>
</g>
</svg>
