<svg width="60" height="60" viewBox="0 0 60 60" fill="none" xmlns="http://www.w3.org/2000/svg">
<g clip-path="url(#clip0_106_1615)">
<path opacity="0.939" fill-rule="evenodd" clip-rule="evenodd" d="M59.9414 47.6367C59.9414 48.457 59.9414 49.2773 59.9414 50.0977C59.132 53.1915 57.1398 55.0079 53.9648 55.5469C36.6601 55.625 19.3555 55.625 2.05078 55.5469C0.996451 55.3314 0.293326 54.7259 -0.0585938 53.7305C-0.0585938 50.2539 -0.0585938 46.7774 -0.0585938 43.3008C0.383521 42.3316 1.12571 41.7261 2.16797 41.4844C2.90913 41.4258 3.65132 41.4063 4.39453 41.4258C4.39453 39.9414 4.39453 38.4571 4.39453 36.9727C3.40812 37.0202 2.43155 36.9616 1.46484 36.7969C0.722357 36.4263 0.214543 35.8598 -0.0585938 35.0977C-0.0585938 31.6602 -0.0585938 28.2226 -0.0585938 24.7852C0.214543 24.023 0.722357 23.4565 1.46484 23.0859C2.43155 22.9212 3.40812 22.8626 4.39453 22.9102C4.39453 21.4257 4.39453 19.9414 4.39453 18.457C3.35964 18.525 2.34401 18.4274 1.34766 18.1641C0.72727 17.7593 0.25852 17.232 -0.0585938 16.582C-0.0585938 13.1054 -0.0585938 9.62891 -0.0585938 6.15235C0.293326 5.15693 0.996451 4.55146 2.05078 4.33594C12.7539 4.25781 23.4571 4.25781 34.1602 4.33594C34.6712 4.59678 34.847 5.00693 34.6875 5.56641C34.5899 5.82032 34.4141 5.9961 34.1602 6.09375C23.5743 6.13281 12.9882 6.17188 2.40234 6.21094C2.01877 6.32114 1.80393 6.57505 1.75781 6.97266C1.67968 9.90235 1.67968 12.832 1.75781 15.7617C1.84437 16.1218 2.05921 16.3758 2.40234 16.5234C16.6211 16.6016 30.8399 16.6016 45.0586 16.5234C45.2679 16.4314 45.4437 16.2948 45.5859 16.1133C45.6641 12.9492 45.6641 9.78516 45.5859 6.6211C45.4437 6.4396 45.2679 6.30287 45.0586 6.21094C42.5977 6.17188 40.1367 6.13281 37.6758 6.09375C37.3223 5.91462 37.1661 5.62165 37.207 5.21485C37.1878 4.7839 37.3832 4.49093 37.793 4.33594C40.3321 4.25781 42.8711 4.25781 45.4102 4.33594C46.434 4.6176 47.1177 5.26213 47.4609 6.26953C47.5391 9.66797 47.5391 13.0664 47.4609 16.4648C47.1787 17.3331 46.6123 17.9386 45.7617 18.2813C44.8705 18.4349 43.972 18.4935 43.0664 18.457C43.0664 19.9414 43.0664 21.4257 43.0664 22.9102C44.0528 22.8626 45.0294 22.9212 45.9961 23.0859C46.6016 23.3789 47.0508 23.8281 47.3438 24.4336C47.5161 27.3166 47.5747 30.2072 47.5195 33.1055C49.5428 33.6632 50.9685 34.9132 51.7969 36.8555C52.0866 37.6567 52.3015 38.477 52.4414 39.3164C53.8935 40.0262 54.9482 41.12 55.6055 42.5977C56.0972 42.7555 56.5464 42.9899 56.9531 43.3008C57.3299 44.3648 56.9588 44.8532 55.8398 44.7656C55.1092 44.5277 54.4646 44.1567 53.9062 43.6523C53.3624 42.171 52.3468 41.1553 50.8594 40.6055C50.6907 40.3975 50.5736 40.1631 50.5078 39.9023C50.3685 36.7748 48.7474 35.017 45.6445 34.6289C44.6648 34.688 43.7664 34.9809 42.9492 35.5078C42.5195 35.586 42.0899 35.586 41.6602 35.5078C41.2345 35.1996 40.8439 34.848 40.4883 34.4531C38.1001 32.8378 35.854 33.0136 33.75 34.9805C33.0461 35.9196 32.6164 36.9743 32.4609 38.1445C32.2743 38.6048 31.9422 38.8978 31.4648 39.0234C28.9764 39.2463 27.5505 40.594 27.1875 43.0664C26.9454 43.6671 26.4961 43.9991 25.8398 44.0625C23.6208 44.0564 22.0387 45.0525 21.0938 47.0508C20.2664 49.5026 20.9109 51.4752 23.0273 52.9688C23.6503 53.3196 24.3143 53.554 25.0195 53.6719C34.6289 53.75 44.2383 53.75 53.8477 53.6719C57.1658 52.8165 58.5329 50.7071 57.9492 47.3438C58.0582 46.4686 58.527 46.1952 59.3555 46.5234C59.6954 46.8328 59.8908 47.2039 59.9414 47.6367ZM10.2539 9.90235C11.6099 9.79376 12.235 10.3992 12.1289 11.7188C11.679 12.7802 10.9368 13.0536 9.90234 12.5391C9.35705 12.0952 9.18127 11.5287 9.375 10.8398C9.57309 10.4272 9.86606 10.1147 10.2539 9.90235ZM6.26953 18.457C17.9101 18.457 29.5508 18.457 41.1914 18.457C41.1914 19.9414 41.1914 21.4257 41.1914 22.9102C29.5508 22.9102 17.9101 22.9102 6.26953 22.9102C6.26953 21.4257 6.26953 19.9414 6.26953 18.457ZM2.28516 24.7852C16.582 24.7656 30.8789 24.7852 45.1758 24.8438C45.3906 24.9023 45.5273 25.0391 45.5859 25.2539C45.6445 27.7536 45.6641 30.2536 45.6445 32.7539C44.5124 32.7977 43.4382 33.0711 42.4219 33.5742C39.6483 31.1184 36.66 30.8255 33.457 32.6953C32.6156 33.305 31.9515 34.0668 31.4648 34.9805C27.8326 35.0781 24.1998 35.1367 20.5664 35.1563C19.6777 35.6988 19.6385 36.2848 20.4492 36.9141C23.8874 36.9336 27.3248 36.9922 30.7617 37.0898C28.232 37.5105 26.5133 38.9168 25.6055 41.3086C19.1606 41.4258 12.7153 41.4648 6.26953 41.4258C6.26953 39.9414 6.26953 38.4571 6.26953 36.9727C9.82444 36.9922 13.3791 36.9727 16.9336 36.9141C17.7443 36.2848 17.7052 35.6988 16.8164 35.1563C11.8847 35.155 6.96282 35.0768 2.05078 34.9219C1.87457 34.7472 1.7769 34.5323 1.75781 34.2773C1.67968 31.3867 1.67968 28.4961 1.75781 25.6055C1.77482 25.2196 1.9506 24.9462 2.28516 24.7852ZM10.6055 28.418C12.0012 28.6713 12.4504 29.4526 11.9531 30.7617C11.0104 31.6988 10.151 31.6206 9.375 30.5273C9.15633 29.4396 9.56648 28.7365 10.6055 28.418ZM2.40234 43.3008C8.84777 43.2812 15.2931 43.3008 21.7383 43.3594C18.9585 45.591 18.1968 48.3839 19.4531 51.7383C19.8134 52.4775 20.3016 53.122 20.918 53.6719C14.7461 53.75 8.57422 53.75 2.40234 53.6719C2.01877 53.5617 1.80393 53.3078 1.75781 52.9102C1.67968 49.9805 1.67968 47.0508 1.75781 44.1211C1.86777 43.758 2.08261 43.4846 2.40234 43.3008ZM10.3711 47.0508C11.41 47.0044 12.035 47.4926 12.2461 48.5156C11.98 49.7621 11.2377 50.1918 10.0195 49.8047C9.36991 49.3621 9.15506 48.7566 9.375 47.9883C9.61802 47.5691 9.95006 47.2566 10.3711 47.0508Z" fill="#252222"/>
<circle cx="11" cy="11" r="2" fill="#F1C736"/>
<path opacity="0.926" fill-rule="evenodd" clip-rule="evenodd" d="M10.0196 8.02733C12.9986 7.97839 14.3071 9.42371 13.9454 12.3633C13.2746 14.0961 12.0051 14.8578 10.1368 14.6484C8.03162 14.0533 7.15272 12.6667 7.50006 10.4883C7.87803 9.17942 8.71787 8.35911 10.0196 8.02733ZM10.254 9.90233C9.86612 10.1147 9.57315 10.4272 9.37506 10.8398C9.18133 11.5287 9.35711 12.0951 9.9024 12.539C10.9368 13.0536 11.679 12.7802 12.129 11.7187C12.235 10.3992 11.61 9.79374 10.254 9.90233Z" fill="#F1C736"/>
<path opacity="0.929" fill-rule="evenodd" clip-rule="evenodd" d="M10.6055 26.543C13.2019 26.8535 14.3152 28.2988 13.9454 30.8789C13.0852 32.9399 11.5813 33.6625 9.43364 33.0469C7.77095 32.2016 7.12642 30.8539 7.50005 29.0039C8.02603 27.5224 9.0612 26.7021 10.6055 26.543ZM10.6055 28.418C9.56653 28.7365 9.15638 29.4396 9.37505 30.5273C10.1511 31.6206 11.0104 31.6988 11.9532 30.7617C12.4504 29.4526 12.0012 28.6713 10.6055 28.418Z" fill="#F1C736"/>
<circle cx="11" cy="30" r="2" fill="#F1C736"/>
<path opacity="0.926" fill-rule="evenodd" clip-rule="evenodd" d="M10.1367 45.1758C13.0384 45.2017 14.308 46.647 13.9453 49.5117C13.2393 51.2815 11.9306 52.0432 10.0195 51.7969C8.00381 51.1472 7.16397 49.7605 7.5 47.6367C7.95485 46.3414 8.83376 45.5211 10.1367 45.1758ZM10.3711 47.0508C9.95006 47.2566 9.61802 47.5691 9.375 47.9883C9.15506 48.7566 9.36991 49.3621 10.0195 49.8047C11.2377 50.1918 11.98 49.7621 12.2461 48.5156C12.035 47.4926 11.41 47.0044 10.3711 47.0508Z" fill="#F1C736"/>
<circle cx="10.5" cy="48.5" r="2.5" fill="#F1C736"/>
</g>
<defs>
<clipPath id="clip0_106_1615">
<rect width="60" height="60" fill="white"/>
</clipPath>
</defs>
</svg>
