<svg width="45" height="45" viewBox="0 0 45 45" fill="none" xmlns="http://www.w3.org/2000/svg">
<path opacity="0.961" fill-rule="evenodd" clip-rule="evenodd" d="M20.7861 1.18652C29.7543 0.886635 36.5366 4.54875 41.1328 12.1728C44.2308 18.2082 44.5531 24.3898 42.0996 30.7178C39.4444 36.7129 35.0059 40.7412 28.7842 42.8027C21.4984 44.826 14.8773 43.5369 8.92088 38.9355C3.1362 33.8809 0.602027 27.5088 1.31834 19.8193C2.39354 12.727 6.01171 7.38031 12.1728 3.77929C14.8822 2.34073 17.7534 1.47648 20.7861 1.18652ZM22.1045 3.73535C22.8661 3.70898 23.5693 3.89941 24.2139 4.30663C25.3587 5.09963 26.2522 6.11037 26.8945 7.33886C27.3268 8.15921 27.7223 8.99419 28.081 9.84374C24.331 9.90237 20.5811 9.90237 16.831 9.84374C17.4155 8.33715 18.1919 6.94554 19.1601 5.66894C19.9282 4.67786 20.9097 4.03332 22.1045 3.73535ZM16.3037 4.79003C16.3807 4.77853 16.4393 4.80783 16.4795 4.87792C15.4428 6.40298 14.6225 8.04361 14.0185 9.7998C12.2322 9.90228 10.4451 9.91696 8.65721 9.84374C10.8015 7.54153 13.3503 5.85696 16.3037 4.79003ZM28.4326 4.79003C31.472 5.81136 34.0795 7.49593 36.2549 9.84374C34.467 9.91696 32.6799 9.90228 30.8935 9.7998C30.2804 8.01703 29.4601 6.34711 28.4326 4.79003ZM6.54783 12.5244C8.77439 12.5244 11.001 12.5244 13.2275 12.5244C12.5762 15.3481 12.1952 18.2045 12.0849 21.0937C9.33115 21.1377 6.57729 21.1524 3.82323 21.1377C4.06202 18.0485 4.97023 15.1774 6.54783 12.5244ZM15.9521 12.5244C20.288 12.5244 24.624 12.5244 28.9599 12.5244C29.6865 15.3487 30.0967 18.2197 30.1904 21.1377C25.0341 21.1377 19.8779 21.1377 14.7217 21.1377C14.7958 18.217 15.2059 15.3459 15.9521 12.5244ZM31.6846 12.5244C33.9119 12.4951 36.1384 12.5244 38.3642 12.6123C39.9598 15.2312 40.868 18.0729 41.0889 21.1377C38.3348 21.1524 35.5809 21.1377 32.8271 21.0937C32.7024 18.2064 32.3215 15.35 31.6846 12.5244ZM3.82323 23.7744C6.57729 23.7597 9.33115 23.7744 12.0849 23.8183C12.2097 26.7056 12.5906 29.5621 13.2275 32.3877C11.0002 32.417 8.77363 32.3877 6.54783 32.2998C4.95212 29.6805 4.04392 26.8387 3.82323 23.7744ZM14.7217 23.7744C19.8779 23.7744 25.0341 23.7744 30.1904 23.7744C30.1183 26.6662 29.7082 29.5079 28.9599 32.2998C24.624 32.417 20.288 32.417 15.9521 32.2998C15.1977 29.5088 14.7875 26.667 14.7217 23.7744ZM32.8271 23.7744C35.581 23.7744 38.335 23.7744 41.0889 23.7744C40.8679 26.8396 39.9596 29.6814 38.3642 32.2998C36.1384 32.3877 33.9119 32.417 31.6846 32.3877C32.3396 29.5495 32.7204 26.6784 32.8271 23.7744ZM8.65721 35.1123C10.4301 34.9956 12.2171 34.9956 14.0185 35.1123C14.6225 36.8685 15.4428 38.5091 16.4795 40.0342C16.4502 40.0634 16.4209 40.0928 16.3916 40.1221C13.4034 39.0685 10.8253 37.3986 8.65721 35.1123ZM16.831 35.1123C20.5662 35.0099 24.3162 34.9953 28.081 35.0683C27.4966 36.575 26.7201 37.9665 25.7519 39.2432C23.5547 41.8212 21.3574 41.8212 19.1601 39.2432C18.2008 37.969 17.4245 36.592 16.831 35.1123ZM28.4326 40.1221C29.4601 38.565 30.2804 36.8951 30.8935 35.1123C32.6799 35.0098 34.467 34.9951 36.2549 35.0683C34.0795 37.4162 31.472 39.1008 28.4326 40.1221Z" fill="#FED137"/>
</svg>
