<svg width="1451" height="607" viewBox="0 0 1451 607" fill="none" xmlns="http://www.w3.org/2000/svg">
<path d="M208.055 483.033L168.917 441.801L177.747 433.433L216.886 474.664L218.176 485.185L208.055 483.033Z" fill="white"/>
<path d="M208.391 482.435L217.413 484.353L216.26 474.959L177.721 434.36L169.844 441.827L208.391 482.435ZM218.176 485.841C218.131 485.841 218.085 485.836 218.04 485.827L207.919 483.675C207.789 483.647 207.671 483.581 207.58 483.484L168.441 442.253C168.321 442.127 168.257 441.959 168.261 441.785C168.265 441.611 168.34 441.447 168.465 441.327L177.295 432.957C177.557 432.708 177.972 432.719 178.221 432.981L217.36 474.213C217.457 474.315 217.519 474.445 217.536 474.584L218.828 485.105C218.853 485.316 218.776 485.525 218.62 485.669C218.497 485.781 218.339 485.841 218.176 485.841Z" fill="#211E1E"/>
<path d="M207.84 483.515C207.667 483.515 207.493 483.445 207.364 483.309C207.116 483.047 207.127 482.632 207.389 482.383L215.945 474.272C216.208 474.024 216.624 474.035 216.873 474.297C217.123 474.56 217.111 474.975 216.848 475.224L208.292 483.335C208.165 483.455 208.003 483.515 207.84 483.515Z" fill="#211E1E"/>
<path d="M220.248 488.024C220.075 488.024 219.901 487.956 219.773 487.82L217.6 485.531C217.351 485.268 217.361 484.853 217.624 484.604C217.887 484.355 218.301 484.364 218.551 484.628L220.724 486.917C220.973 487.18 220.963 487.595 220.7 487.844C220.573 487.964 220.411 488.024 220.248 488.024Z" fill="#211E1E"/>
<path d="M170.371 440.784L163 433.017L169.343 427L176.713 434.767L170.371 440.784Z" fill="#211E1E"/>
<path d="M263.168 491.741C262.173 491.741 261.141 492.157 260.496 492.841C258.972 494.46 258.8 497.043 258.802 498.844C258.804 499.575 258.828 500.285 258.877 500.979C260.584 500.171 262.168 499.113 263.548 497.805C264.925 496.501 266.225 494.423 265.357 492.857C264.908 492.045 264.057 491.825 263.592 491.768C263.452 491.751 263.311 491.741 263.168 491.741ZM271.829 517.877C267.709 517.877 263.444 515.432 260.857 511.552C259.244 509.131 258.204 506.219 257.752 502.861C250.379 505.573 241.38 504.241 235.613 498.848C235.348 498.6 235.334 498.185 235.581 497.92C235.829 497.656 236.244 497.643 236.509 497.889C242.004 503.029 250.631 504.236 257.605 501.525C257.531 500.66 257.492 499.767 257.491 498.847C257.488 496.82 257.697 493.901 259.542 491.943C260.568 490.853 262.22 490.275 263.755 490.465C264.987 490.62 265.963 491.244 266.504 492.221C267.735 494.44 266.25 497.052 264.45 498.757C262.854 500.268 261.005 501.468 259.009 502.352C259.41 505.653 260.395 508.492 261.949 510.825C264.376 514.467 268.399 516.727 272.204 516.559C272.575 516.533 272.872 516.824 272.886 517.187C272.901 517.548 272.621 517.853 272.258 517.869C272.116 517.875 271.972 517.877 271.829 517.877Z" fill="#211E1E"/>
<path d="M791.831 63.7011L837.687 97.3037L830.488 107.111L784.634 73.5089L781.488 63.3865L791.831 63.7011Z" fill="white"/>
<path d="M785.195 73.1078L830.348 106.196L836.77 97.4448L791.608 64.3505L782.388 64.0688L785.195 73.1078ZM830.488 107.766C830.354 107.766 830.218 107.725 830.102 107.64L784.246 74.0386C784.132 73.9542 784.048 73.8386 784.007 73.7037L780.863 63.5808C780.799 63.3781 780.839 63.1584 780.967 62.989C781.095 62.8209 781.29 62.7182 781.508 62.7302L791.851 63.0464C791.984 63.0505 792.112 63.0944 792.219 63.1729L838.075 96.7745C838.215 96.8772 838.308 97.0318 838.335 97.2037C838.362 97.3756 838.319 97.5516 838.215 97.6917L831.018 107.5C830.89 107.675 830.69 107.766 830.488 107.766Z" fill="#211E1E"/>
<path d="M785.098 73.9944C784.963 73.9944 784.827 73.9532 784.71 73.8677C784.419 73.6532 784.355 73.2423 784.57 72.9505L791.546 63.4475C791.76 63.1557 792.17 63.0933 792.462 63.3063C792.754 63.5209 792.816 63.9318 792.603 64.2234L785.627 73.7277C785.499 73.9021 785.299 73.9944 785.098 73.9944Z" fill="#211E1E"/>
<path d="M781.607 64.1277C781.471 64.1277 781.336 64.0876 781.219 64.001L778.674 62.137C778.382 61.9224 778.318 61.5114 778.532 61.2198C778.747 60.9277 779.156 60.8636 779.448 61.0781L781.995 62.9438C782.287 63.1567 782.35 63.5688 782.135 63.861C782.007 64.0354 781.808 64.1277 781.607 64.1277Z" fill="#211E1E"/>
<path d="M839.905 111.945L831.268 105.616L836.436 98.5635L845.073 104.893L839.905 111.945Z" fill="#211E1E"/>
<path d="M726.916 65.6864C725.646 68.3531 725.267 71.3181 726.323 74.1609C727.096 76.2437 729.52 78.6984 732.06 77.8889C732.864 77.6343 733.475 77.1052 733.872 76.3197C734.43 75.2208 734.499 73.7156 734.052 72.39C733.067 69.4651 730.342 67.0385 726.916 65.6864ZM697.668 85.4875C697.514 86.5943 697.451 87.7009 697.487 88.7916C697.628 93.0609 699.29 96.7541 702.288 99.4703C703.558 100.62 704.759 101.266 705.963 101.447C707.539 101.685 709.106 101.05 710.259 99.7061C711.512 98.2437 711.998 96.2556 711.494 94.6411C710.618 91.8301 707.795 89.3957 703.106 87.4061C701.343 86.6583 699.526 86.0181 697.668 85.4875ZM706.622 102.808C706.339 102.808 706.054 102.787 705.768 102.744C704.3 102.523 702.874 101.77 701.408 100.442C698.139 97.4823 696.33 93.4676 696.176 88.8343C696.136 87.6156 696.211 86.378 696.394 85.1421C688.094 83.0113 679.09 83.0197 670.828 85.2583C670.479 85.3541 670.118 85.1473 670.023 84.7968C669.928 84.4473 670.135 84.0875 670.484 83.9927C678.931 81.702 688.134 81.6864 696.624 83.8489C697.562 79.3624 699.894 74.9531 703.29 71.4421C708.068 66.5009 713.93 63.59 719.796 63.2447C722.054 63.1113 724.274 63.4088 726.307 64.0531C728.018 61.0719 730.716 58.5343 733.718 56.9719C741.103 53.1301 749.818 53.7088 755.83 54.8719C756.186 54.9411 756.418 55.2848 756.348 55.6411C756.28 55.9957 755.936 56.2276 755.58 56.1593C749.774 55.0353 741.374 54.4676 734.323 58.1353C731.596 59.5541 729.138 61.8317 727.551 64.4995C731.262 65.9916 734.186 68.6755 735.295 71.9719C735.85 73.6181 735.752 75.5113 735.043 76.9129C734.487 78.0077 733.594 78.778 732.458 79.1395C729.318 80.1385 726.19 77.5719 725.094 74.6181C723.923 71.4661 724.315 68.1932 725.683 65.2556C723.851 64.6957 721.867 64.4369 719.872 64.5531C714.336 64.8796 708.782 67.6504 704.232 72.3541C700.988 75.7088 698.766 79.9181 697.892 84.1889C699.85 84.7411 701.763 85.4113 703.618 86.1984C708.679 88.3463 711.75 91.0556 712.746 94.2504C713.38 96.2864 712.795 98.7624 711.254 100.56C710.006 102.016 708.352 102.808 706.622 102.808Z" fill="#211E1E"/>
<path d="M119.5 587.684C119.5 587.684 106.752 595.744 103.394 597.373C105.363 601.557 107.387 603.861 111.082 605.185C114.069 606.254 116.684 605.644 119.526 603.934C127.709 599.012 119.5 587.684 119.5 587.684Z" fill="#FED137"/>
<path d="M104.263 597.666C106.176 601.534 108.127 603.43 111.304 604.567C113.896 605.496 116.254 605.138 119.189 603.373C120.919 602.331 121.983 600.893 122.351 599.096C123.182 595.025 120.325 590.144 119.311 588.578C116.963 590.056 107.815 595.795 104.263 597.666ZM121.601 603.153C121.104 603.65 120.525 604.098 119.864 604.496C116.601 606.46 113.824 606.863 110.862 605.801C107.205 604.493 104.945 602.208 102.801 597.652C102.648 597.327 102.786 596.939 103.107 596.783C106.395 595.189 119.023 587.209 119.15 587.129C119.442 586.944 119.828 587.019 120.03 587.299C120.224 587.565 124.75 593.891 123.636 599.355C123.336 600.83 122.653 602.101 121.601 603.153Z" fill="#211E1E"/>
<path d="M168.452 555.01C170.817 559.432 171.589 564.928 170.155 570.131C169.131 573.846 166.855 575.876 162.591 578.442C149.16 586.522 128.16 598.745 118.385 604.627C122.221 602.043 126.299 599.13 119.771 588.14C107.814 568.011 88.2514 535.358 88.2514 535.358L138.737 504.985C138.737 504.985 166.204 550.808 168.452 555.01Z" fill="white"/>
<path d="M123.07 601.067C127.052 598.704 131.86 595.871 136.856 592.929C145.364 587.919 155.008 582.238 162.252 577.879C166.296 575.447 168.532 573.553 169.522 569.956C170.858 565.109 170.257 559.775 167.873 555.319C165.794 551.431 141.668 511.152 138.513 505.885L89.1489 535.583C91.7944 539.999 109.37 569.346 120.335 587.807C124.356 594.575 124.445 598.482 123.07 601.067ZM167.831 575.408C166.564 576.675 164.941 577.792 162.928 579.004C155.678 583.365 146.032 589.047 137.522 594.06C130.168 598.392 123.22 602.482 118.723 605.188C118.418 605.372 118.022 605.28 117.831 604.979C117.641 604.679 117.725 604.28 118.018 604.083C121.69 601.608 125.489 599.051 119.208 588.476C107.388 568.576 87.8837 536.022 87.6876 535.696C87.5019 535.385 87.6018 534.982 87.912 534.796L138.399 504.423C138.548 504.332 138.727 504.306 138.896 504.348C139.065 504.391 139.21 504.498 139.3 504.646C140.422 506.519 166.801 550.533 169.029 554.701C171.57 559.45 172.21 565.138 170.787 570.304C170.208 572.409 169.238 574.001 167.831 575.408Z" fill="#211E1E"/>
<path d="M112.849 533.578C112.836 533.591 112.822 533.602 112.807 533.611L103.08 539.463C102.976 539.525 102.842 539.492 102.779 539.389C102.717 539.285 102.75 539.152 102.855 539.089L112.582 533.237C112.685 533.175 112.819 533.209 112.881 533.31C112.934 533.399 112.918 533.509 112.849 533.578Z" fill="#211E1E"/>
<path d="M118.647 534.193C118.635 534.205 118.622 534.217 118.606 534.227L104.875 542.486C104.772 542.549 104.638 542.515 104.575 542.412C104.513 542.309 104.546 542.176 104.65 542.112L118.381 533.851C118.483 533.79 118.618 533.823 118.68 533.926C118.734 534.014 118.717 534.123 118.647 534.193Z" fill="#211E1E"/>
<path d="M146.618 535.523C146.604 535.537 146.59 535.547 146.575 535.556L120.814 551.056C120.71 551.117 120.576 551.084 120.514 550.981C120.452 550.877 120.484 550.745 120.589 550.68L146.35 535.182C146.454 535.12 146.588 535.153 146.651 535.257C146.702 535.344 146.686 535.455 146.618 535.523Z" fill="#211E1E"/>
<path d="M152.488 545.407C152.475 545.42 152.462 545.431 152.446 545.44L126.685 560.94C126.582 561.001 126.447 560.968 126.385 560.864C126.323 560.761 126.355 560.629 126.459 560.564L152.221 545.066C152.324 545.003 152.459 545.036 152.521 545.14C152.573 545.228 152.557 545.338 152.488 545.407Z" fill="#211E1E"/>
<path d="M158.359 555.292C158.347 555.305 158.333 555.315 158.318 555.324L132.556 570.823C132.452 570.885 132.318 570.851 132.256 570.748C132.193 570.645 132.227 570.513 132.33 570.449L158.093 554.95C158.195 554.887 158.329 554.921 158.391 555.025C158.445 555.112 158.429 555.223 158.359 555.292Z" fill="#211E1E"/>
<path d="M112.424 555.847C112.03 555.183 112.252 554.317 112.922 553.914C113.592 553.511 114.454 553.724 114.849 554.389C115.244 555.054 115.021 555.919 114.351 556.322C113.683 556.724 112.82 556.512 112.424 555.847Z" fill="#211E1E"/>
<path d="M113.11 554.592C112.87 554.833 112.81 555.212 112.989 555.512L112.988 555.513C113.089 555.68 113.248 555.799 113.438 555.846C113.634 555.896 113.838 555.865 114.014 555.76C114.376 555.543 114.496 555.077 114.285 554.723C114.186 554.556 114.026 554.437 113.835 554.388C113.639 554.339 113.436 554.371 113.259 554.476C113.205 554.509 113.154 554.549 113.11 554.592ZM115.089 556.571C114.972 556.689 114.839 556.794 114.691 556.883C114.213 557.17 113.654 557.254 113.118 557.119C112.587 556.984 112.14 556.652 111.861 556.181C111.283 555.209 111.607 553.939 112.584 553.352C113.061 553.065 113.62 552.982 114.156 553.117C114.688 553.251 115.133 553.583 115.413 554.053C115.902 554.878 115.745 555.916 115.089 556.571Z" fill="#211E1E"/>
<path d="M118.296 565.731C117.901 565.066 118.123 564.201 118.793 563.798C119.462 563.396 120.325 563.608 120.72 564.273C121.115 564.937 120.892 565.803 120.223 566.206C119.553 566.608 118.691 566.396 118.296 565.731Z" fill="#211E1E"/>
<path d="M118.981 564.476C118.74 564.718 118.681 565.097 118.858 565.396C118.958 565.564 119.119 565.683 119.308 565.731C119.504 565.78 119.709 565.749 119.884 565.643C120.245 565.427 120.367 564.963 120.157 564.607C120.057 564.439 119.897 564.321 119.707 564.273C119.511 564.224 119.306 564.255 119.131 564.36C119.075 564.393 119.025 564.432 118.981 564.476ZM120.96 566.455C120.842 566.573 120.709 566.678 120.561 566.767C120.084 567.054 119.525 567.138 118.989 567.003C118.457 566.869 118.011 566.536 117.731 566.066C117.153 565.094 117.478 563.824 118.454 563.236C118.931 562.95 119.49 562.866 120.027 563.001C120.558 563.135 121.004 563.467 121.284 563.938C121.774 564.763 121.614 565.801 120.96 566.455Z" fill="#211E1E"/>
<path d="M124.081 575.472C123.687 574.808 123.909 573.943 124.578 573.539C125.248 573.136 126.111 573.349 126.507 574.014C126.902 574.678 126.679 575.544 126.009 575.946C125.339 576.35 124.476 576.137 124.081 575.472Z" fill="#211E1E"/>
<path d="M124.768 574.217C124.527 574.458 124.466 574.838 124.646 575.137C124.746 575.305 124.905 575.425 125.095 575.472C125.291 575.521 125.496 575.49 125.671 575.384C126.032 575.168 126.153 574.703 125.942 574.348C125.842 574.18 125.683 574.061 125.492 574.013C125.296 573.964 125.092 573.995 124.916 574.101C124.862 574.135 124.812 574.174 124.768 574.217ZM126.746 576.197C126.629 576.314 126.495 576.42 126.346 576.508C125.87 576.796 125.312 576.879 124.775 576.743C124.244 576.61 123.797 576.278 123.518 575.807C122.94 574.835 123.264 573.566 124.241 572.977C124.717 572.69 125.275 572.607 125.812 572.742C126.344 572.876 126.791 573.208 127.07 573.679C127.561 574.504 127.401 575.542 126.746 576.197Z" fill="#211E1E"/>
<path d="M136.716 361.561L129 357.449L134.036 348L141.751 352.112L136.716 361.561Z" fill="#211E1E"/>
<path d="M81.2574 415.312C79.632 415.312 78.3107 416.633 78.3107 418.257C78.3107 419.881 79.632 421.203 81.2574 421.203C82.8814 421.203 84.2027 419.881 84.2027 418.257C84.2027 416.633 82.8814 415.312 81.2574 415.312ZM81.2574 422.515C78.9094 422.515 77 420.604 77 418.257C77 415.909 78.9094 414 81.2574 414C83.604 414 85.5147 415.909 85.5147 418.257C85.5147 420.604 83.604 422.515 81.2574 422.515Z" fill="#211E1E"/>
<path d="M1183.57 173.877L1191.09 175.695L1192.8 172.463C1192.88 172.305 1193.02 172.189 1193.19 172.14L1199.4 170.313C1199.57 170.264 1199.75 170.284 1199.9 170.371L1203.09 172.164L1208.42 166.565L1206.48 163.471C1206.38 163.321 1206.35 163.14 1206.39 162.968L1207.91 156.68C1207.96 156.508 1208.07 156.36 1208.22 156.271L1211.36 154.408L1209.18 146.991L1205.53 147.129C1205.35 147.133 1205.18 147.071 1205.05 146.948L1200.37 142.487C1200.24 142.365 1200.17 142.196 1200.16 142.02L1200.12 138.364L1192.61 136.545L1190.9 139.779C1190.82 139.935 1190.68 140.051 1190.51 140.101L1184.3 141.927C1184.13 141.977 1183.95 141.956 1183.79 141.869L1180.61 140.077L1175.28 145.676L1177.22 148.769C1177.32 148.92 1177.35 149.101 1177.31 149.273L1175.78 155.56C1175.74 155.732 1175.63 155.88 1175.48 155.971L1172.33 157.833L1174.52 165.249L1178.17 165.112C1178.34 165.104 1178.52 165.171 1178.65 165.292L1183.33 169.753C1183.46 169.876 1183.53 170.044 1183.53 170.221L1183.57 173.877ZM1191.43 177.108C1191.38 177.108 1191.33 177.103 1191.28 177.089L1182.77 175.032C1182.48 174.961 1182.27 174.701 1182.27 174.401L1182.23 170.512L1177.94 166.433L1174.06 166.58C1173.76 166.599 1173.49 166.397 1173.4 166.109L1170.93 157.715C1170.85 157.427 1170.97 157.117 1171.23 156.965L1174.57 154.983L1175.97 149.233L1173.89 145.941C1173.73 145.688 1173.77 145.357 1173.97 145.14L1180.01 138.803C1180.22 138.587 1180.55 138.536 1180.81 138.684L1184.2 140.591L1189.87 138.921L1191.69 135.483C1191.83 135.217 1192.13 135.081 1192.42 135.151L1200.93 137.209C1201.22 137.28 1201.43 137.539 1201.43 137.84L1201.47 141.728L1205.75 145.808L1209.64 145.661C1209.95 145.648 1210.21 145.844 1210.29 146.131L1212.77 154.527C1212.85 154.815 1212.73 155.123 1212.47 155.276L1209.12 157.257L1207.73 163.007L1209.8 166.299C1209.96 166.553 1209.93 166.883 1209.72 167.1L1203.69 173.437C1203.48 173.655 1203.15 173.705 1202.89 173.557L1199.5 171.651L1193.83 173.32L1192.01 176.759C1191.9 176.977 1191.67 177.108 1191.43 177.108Z" fill="#211E1E"/>
<path d="M1191.85 148.587C1187.69 148.587 1184.31 151.965 1184.31 156.12C1184.31 160.275 1187.69 163.655 1191.85 163.655C1196 163.655 1199.38 160.275 1199.38 156.12C1199.38 151.965 1196 148.587 1191.85 148.587ZM1191.85 164.965C1186.97 164.965 1183 160.997 1183 156.12C1183 151.243 1186.97 147.275 1191.85 147.275C1196.73 147.275 1200.69 151.243 1200.69 156.12C1200.69 160.997 1196.73 164.965 1191.85 164.965Z" fill="#211E1E"/>
<path d="M1150.11 177.764C1148.48 177.764 1147.16 179.085 1147.16 180.709C1147.16 182.333 1148.48 183.655 1150.11 183.655C1151.73 183.655 1153.05 182.333 1153.05 180.709C1153.05 179.085 1151.73 177.764 1150.11 177.764ZM1150.11 184.967C1147.76 184.967 1145.85 183.057 1145.85 180.709C1145.85 178.363 1147.76 176.452 1150.11 176.452C1152.45 176.452 1154.36 178.363 1154.36 180.709C1154.36 183.057 1152.45 184.967 1150.11 184.967Z" fill="#211E1E"/>
<path d="M1096.64 49.7853C1096.57 49.7853 1096.49 49.7733 1096.42 49.748C1095.61 49.4573 1094.75 49.3106 1093.88 49.3106C1093.88 49.3106 1093.88 49.3106 1093.88 49.3106C1093.13 49.3106 1092.39 49.4213 1091.67 49.6373C1091.33 49.7426 1090.96 49.548 1090.86 49.2013C1090.75 48.8546 1090.95 48.488 1091.29 48.3826C1092.13 48.1293 1093 48 1093.88 48C1093.88 48 1093.88 48 1093.88 48C1094.9 48 1095.91 48.1719 1096.86 48.5119C1097.2 48.6333 1097.38 49.008 1097.26 49.3493C1097.16 49.6173 1096.91 49.7853 1096.64 49.7853ZM1085.66 57.536C1085.29 57.536 1085 57.2426 1085 56.8799C1085 54.9599 1085.6 53.1306 1086.75 51.5933C1086.96 51.3026 1087.37 51.2426 1087.66 51.4573C1087.95 51.6733 1088.01 52.0839 1087.8 52.3746C1086.83 53.6853 1086.31 55.2426 1086.31 56.8799C1086.31 57.2426 1086.02 57.536 1085.66 57.536ZM1102.1 57.9173C1102.09 57.9173 1102.08 57.916 1102.07 57.916C1101.71 57.9 1101.43 57.5933 1101.44 57.232C1101.45 57.116 1101.45 56.9986 1101.45 56.8799C1101.45 55.3679 1101.01 53.9093 1100.17 52.6613C1099.96 52.3613 1100.04 51.9533 1100.34 51.7506C1100.65 51.5493 1101.05 51.6293 1101.25 51.9293C1102.24 53.3946 1102.76 55.1066 1102.76 56.8799C1102.76 57.0173 1102.76 57.1533 1102.75 57.2893C1102.74 57.6413 1102.45 57.9173 1102.1 57.9173ZM1090.77 65.152C1090.68 65.152 1090.6 65.136 1090.52 65.1026C1088.77 64.388 1087.27 63.1026 1086.29 61.4853C1086.1 61.176 1086.2 60.7733 1086.51 60.5853C1086.82 60.3973 1087.22 60.496 1087.41 60.8053C1088.25 62.184 1089.53 63.2786 1091.01 63.8893C1091.35 64.0266 1091.51 64.4093 1091.37 64.7439C1091.27 64.9973 1091.02 65.152 1090.77 65.152ZM1095.91 65.5093C1095.62 65.5093 1095.35 65.3119 1095.28 65.0146C1095.19 64.6639 1095.4 64.3066 1095.75 64.2173C1097.31 63.8213 1098.73 62.9146 1099.75 61.6626C1099.98 61.3813 1100.39 61.3386 1100.67 61.5693C1100.95 61.7973 1100.99 62.2106 1100.77 62.4906C1099.57 63.96 1097.9 65.024 1096.07 65.488C1096.02 65.5026 1095.96 65.5093 1095.91 65.5093Z" fill="#211E1E"/>
<path d="M1133.72 68.5452C1132.42 68.5452 1131.19 69.1093 1130.35 70.0946C1129.5 71.0786 1129.13 72.3786 1129.33 73.6613L1135.64 114.827C1135.98 117.011 1137.83 118.595 1140.04 118.595H1146.23C1146.59 118.595 1146.88 118.885 1146.89 119.245L1147.08 140.221L1161.65 118.881C1161.77 118.703 1161.97 118.595 1162.19 118.595H1237.08C1239.29 118.595 1241.13 117.009 1241.47 114.825L1247.77 73.6599C1247.97 72.3786 1247.6 71.0786 1246.75 70.0933C1245.91 69.1093 1244.68 68.5452 1243.38 68.5452H1133.72ZM1146.44 142.973C1146.38 142.973 1146.31 142.964 1146.25 142.945C1145.98 142.861 1145.79 142.611 1145.78 142.324L1145.58 119.907H1140.04C1137.17 119.907 1134.78 117.853 1134.35 115.025L1128.03 73.8599C1127.78 72.1999 1128.26 70.5159 1129.35 69.2399C1130.45 67.9653 1132.04 67.2333 1133.72 67.2333H1243.38C1245.06 67.2333 1246.65 67.9639 1247.75 69.2399C1248.84 70.5146 1249.32 72.1973 1249.07 73.8586L1242.76 115.024C1242.33 117.853 1239.94 119.907 1237.08 119.907H1162.53L1146.98 142.688C1146.86 142.869 1146.65 142.973 1146.44 142.973Z" fill="#211E1E"/>
<path d="M1177.65 83.9745C1177.15 83.9745 1176.68 84.1652 1176.23 84.5425C1175.32 85.3145 1174.7 86.7319 1174.7 88.0719C1174.69 89.5039 1175.12 90.9399 1175.87 92.2452C1176.16 92.0519 1176.44 91.8532 1176.72 91.6479C1178.55 90.2812 1179.57 89.0066 1179.89 87.6386C1180.1 86.7679 1179.92 85.7599 1179.43 85.0052C1179.17 84.6146 1178.71 84.1239 1177.99 84.0026C1177.88 83.9839 1177.76 83.9745 1177.65 83.9745ZM1202.07 84.0706C1201.59 84.0706 1201.14 84.2532 1200.71 84.6159C1199.65 85.5079 1198.99 87.3319 1199.15 88.8599C1199.3 90.2199 1199.78 91.5359 1200.51 92.7359C1201.22 92.1412 1201.88 91.5039 1202.47 90.8266C1203.63 89.4946 1204.24 88.2839 1204.34 87.1279C1204.44 85.9346 1203.82 84.4945 1202.61 84.1492C1202.43 84.0972 1202.25 84.0706 1202.07 84.0706ZM1211.91 99.8639C1210.25 99.8639 1208.52 99.6452 1206.8 99.0999C1204.13 98.2519 1201.84 96.6399 1200.23 94.6132C1198.12 96.1399 1195.63 97.3399 1192.86 98.1519C1189.67 99.0839 1184.94 99.8052 1180.51 97.9465C1178.48 97.0932 1176.75 95.7052 1175.5 94.0412C1168.95 97.9905 1160.72 98.9252 1153.46 96.4319C1153.11 96.3146 1152.93 95.9412 1153.05 95.5986C1153.17 95.2572 1153.54 95.0732 1153.88 95.1919C1160.76 97.5546 1168.56 96.6759 1174.77 92.9479C1173.88 91.4292 1173.38 89.7479 1173.39 88.0692C1173.39 86.3399 1174.17 84.5625 1175.38 83.5412C1176.22 82.8292 1177.2 82.5412 1178.21 82.7092C1179.13 82.8639 1179.95 83.4225 1180.52 84.2812C1181.21 85.3292 1181.46 86.7332 1181.17 87.9452C1180.64 90.1585 1178.82 91.7186 1177.5 92.6999C1177.2 92.9186 1176.9 93.1306 1176.6 93.3359C1177.71 94.7799 1179.23 95.9879 1181.02 96.7386C1185.09 98.4479 1189.5 97.7652 1192.49 96.8932C1195.12 96.1226 1197.48 94.9865 1199.48 93.5425C1198.6 92.1479 1198.03 90.6039 1197.85 89.0039C1197.63 87.0492 1198.48 84.7825 1199.86 83.6145C1200.78 82.8359 1201.89 82.5786 1202.97 82.8879C1204.9 83.4386 1205.79 85.5386 1205.65 87.2359C1205.53 88.6812 1204.81 90.1386 1203.46 91.6892C1202.8 92.4452 1202.06 93.1545 1201.27 93.8145C1202.71 95.6319 1204.78 97.0825 1207.2 97.8505C1211.92 99.3479 1216.76 98.1719 1219.99 96.9212C1220.33 96.7919 1220.71 96.9586 1220.84 97.2972C1220.97 97.6346 1220.8 98.0145 1220.46 98.1452C1218.19 99.0225 1215.17 99.8639 1211.91 99.8639Z" fill="#211E1E"/>
<path d="M1368.35 348.049C1367.08 348.049 1365.79 347.525 1364.81 346.497L1337.62 318.011C1336.52 316.863 1335.93 315.32 1336.01 313.775C1336.07 312.325 1336.7 311.016 1337.76 310.088L1344.48 304.253C1345.53 303.337 1346.9 302.902 1348.32 303.018C1349.84 303.148 1351.29 303.916 1352.28 305.128L1376.36 334.512C1376.59 334.792 1376.55 335.205 1376.27 335.435C1375.98 335.665 1375.57 335.623 1375.34 335.344L1351.26 305.959C1350.49 305.02 1349.38 304.425 1348.21 304.327C1347.14 304.233 1346.12 304.561 1345.34 305.242L1338.62 311.078C1337.83 311.768 1337.37 312.748 1337.32 313.836C1337.26 315.024 1337.72 316.216 1338.56 317.105L1365.76 345.592C1367.08 346.977 1369.15 347.124 1370.47 345.921L1373.14 343.487C1374.44 342.299 1374.49 340.168 1373.24 338.737L1352.79 315.206C1351.37 313.58 1348.99 313.328 1347.47 314.645C1346.75 315.273 1346.33 316.165 1346.28 317.156C1346.23 318.24 1346.65 319.325 1347.43 320.135L1365.72 339.233C1365.97 339.496 1365.96 339.911 1365.7 340.161C1365.44 340.411 1365.02 340.401 1364.77 340.141L1346.48 321.042C1345.46 319.975 1344.91 318.536 1344.97 317.096C1345.04 315.744 1345.62 314.521 1346.61 313.656C1348.67 311.864 1351.89 312.173 1353.78 314.345L1374.23 337.876C1375.94 339.84 1375.85 342.792 1374.02 344.456L1371.35 346.889C1370.5 347.666 1369.43 348.049 1368.35 348.049Z" fill="#211E1E"/>
<path d="M1414.72 590.079C1405.57 590.079 1396.97 584.399 1393.7 575.297C1392.19 571.072 1391.98 566.552 1393.09 562.223C1393.18 561.872 1393.54 561.659 1393.89 561.751C1394.24 561.841 1394.45 562.199 1394.36 562.549C1393.31 566.623 1393.51 570.877 1394.94 574.855C1398.84 585.753 1410.89 591.441 1421.79 587.533C1432.69 583.625 1438.38 571.579 1434.47 560.68C1430.56 549.781 1418.51 544.093 1407.62 548.001C1403.68 549.411 1400.3 551.924 1397.83 555.269C1397.61 555.56 1397.2 555.621 1396.91 555.407C1396.62 555.191 1396.56 554.78 1396.77 554.489C1399.4 550.935 1403 548.264 1407.17 546.767C1418.75 542.615 1431.55 548.657 1435.7 560.237C1439.86 571.817 1433.81 584.616 1422.23 588.768C1419.75 589.656 1417.22 590.077 1414.72 590.079Z" fill="#211E1E"/>
<path d="M1414.74 603.517C1400.07 603.519 1386.28 594.416 1381.05 579.832C1378.33 572.251 1378.23 564.211 1380.75 556.581C1380.86 556.239 1381.23 556.053 1381.58 556.164C1381.92 556.277 1382.11 556.649 1381.99 556.993C1379.57 564.341 1379.67 572.087 1382.29 579.391C1388.7 597.264 1408.45 606.592 1426.33 600.183C1434.98 597.079 1441.92 590.788 1445.84 582.469C1449.77 574.152 1450.22 564.803 1447.12 556.144C1444.01 547.485 1437.72 540.555 1429.41 536.627C1421.09 532.7 1411.74 532.247 1403.08 535.352C1395.75 537.98 1389.69 542.849 1385.55 549.429C1385.36 549.735 1384.96 549.828 1384.65 549.636C1384.34 549.443 1384.25 549.039 1384.44 548.732C1388.73 541.9 1395.03 536.847 1402.64 534.117C1411.63 530.893 1421.33 531.364 1429.97 535.441C1438.6 539.517 1445.13 546.713 1448.35 555.701C1451.58 564.689 1451.11 574.395 1447.03 583.029C1442.95 591.664 1435.76 598.195 1426.77 601.417C1422.8 602.841 1418.73 603.517 1414.74 603.517Z" fill="#211E1E"/>
<path d="M1423.55 564.596C1421.8 559.711 1416.42 557.171 1411.53 558.921C1406.65 560.673 1404.11 566.053 1405.86 570.939C1407.61 575.824 1412.99 578.364 1417.87 576.612C1422.76 574.86 1425.3 569.48 1423.55 564.596Z" fill="#FED137"/>
<path d="M1414.71 559.023C1413.71 559.023 1412.72 559.193 1411.75 559.54C1409.55 560.327 1407.8 561.924 1406.8 564.035C1405.8 566.147 1405.69 568.519 1406.48 570.717C1408.1 575.253 1413.12 577.621 1417.65 575.995C1422.19 574.368 1424.56 569.353 1422.93 564.817C1422.14 562.619 1420.55 560.86 1418.43 559.863C1417.25 559.304 1415.98 559.023 1414.71 559.023ZM1414.71 577.82C1410.59 577.82 1406.71 575.26 1405.24 571.16C1404.33 568.632 1404.47 565.903 1405.61 563.475C1406.76 561.047 1408.78 559.211 1411.31 558.305C1413.84 557.399 1416.57 557.531 1418.99 558.677C1421.42 559.824 1423.26 561.847 1424.17 564.375C1426.04 569.592 1423.31 575.359 1418.1 577.229C1416.98 577.629 1415.84 577.82 1414.71 577.82Z" fill="#211E1E"/>
<path d="M1414.7 568.423C1414.61 568.423 1414.51 568.403 1414.42 568.36L1364.67 544.867C1364.34 544.712 1364.2 544.321 1364.35 543.995C1364.51 543.667 1364.9 543.528 1365.23 543.681L1414.98 567.173C1415.31 567.328 1415.45 567.72 1415.3 568.047C1415.18 568.284 1414.95 568.423 1414.7 568.423Z" fill="#211E1E"/>
<path d="M1377.33 550.248L1364.9 544.377L1356.66 548.311L1369.09 554.181L1377.33 550.248Z" fill="#211E1E"/>
<path d="M1358.19 548.307L1369.09 553.456L1375.8 550.251L1364.9 545.103L1358.19 548.307ZM1369.09 554.837C1368.99 554.837 1368.9 554.816 1368.81 554.775L1356.38 548.903C1356.15 548.795 1356 548.565 1356 548.312C1356 548.059 1356.15 547.827 1356.37 547.719L1364.62 543.785C1364.79 543.7 1365 543.7 1365.18 543.784L1377.61 549.655C1377.84 549.763 1377.99 549.993 1377.99 550.247C1377.99 550.5 1377.84 550.731 1377.61 550.84L1369.37 554.773C1369.28 554.816 1369.19 554.837 1369.09 554.837Z" fill="#211E1E"/>
<path d="M1377.38 550.145L1364.95 544.275L1362.7 535.515L1375.13 541.385L1377.38 550.145Z" fill="#211E1E"/>
<path d="M1365.5 543.813L1376.4 548.956L1374.57 541.847L1363.68 536.704L1365.5 543.813ZM1377.38 550.801C1377.28 550.801 1377.19 550.78 1377.1 550.739L1364.67 544.867C1364.49 544.784 1364.36 544.627 1364.31 544.437L1362.06 535.677C1362 535.432 1362.08 535.171 1362.28 535.009C1362.48 534.848 1362.75 534.813 1362.98 534.921L1375.41 540.792C1375.59 540.876 1375.72 541.033 1375.77 541.223L1378.01 549.983C1378.08 550.228 1377.99 550.489 1377.8 550.651C1377.68 550.749 1377.53 550.801 1377.38 550.801Z" fill="#211E1E"/>
<path d="M75.4762 192.63C72.0215 177.837 57.0642 168.727 42.2749 172.551C28.4162 176.134 19.6642 190.11 22.4975 204.141C24.0469 211.813 28.6629 218.031 34.7829 221.827C41.4895 225.987 46.4322 228.577 48.2269 236.262L66.4309 232.01C64.6589 224.419 67.7562 219.926 71.9429 213.351C75.7229 207.417 77.2029 200.025 75.4762 192.63Z" fill="white"/>
<path d="M49.1307 172.329C46.9027 172.329 44.6587 172.613 42.4387 173.186C28.8374 176.703 20.3601 190.242 23.1401 204.01C24.6027 211.253 28.8601 217.382 35.1281 221.27C35.5601 221.538 35.9841 221.799 36.4014 222.055C42.2187 225.637 46.8494 228.487 48.7067 235.477L65.6521 231.519C64.1828 224.294 67.0481 219.805 70.9707 213.657L71.3894 212.999C75.2441 206.946 76.4694 199.765 74.8374 192.779C73.2041 185.783 68.9187 179.881 62.7707 176.161C58.5841 173.626 53.8961 172.329 49.1307 172.329ZM48.2254 236.918C47.9281 236.918 47.6588 236.713 47.5881 236.411C45.9708 229.487 41.6681 226.838 35.7134 223.173C35.2961 222.915 34.8707 222.653 34.4374 222.385C27.8574 218.305 23.3894 211.871 21.8548 204.27C18.9361 189.819 27.8334 175.607 42.1094 171.917C49.4214 170.026 56.9987 171.134 63.4494 175.038C69.9014 178.943 74.4001 185.138 76.1147 192.481C77.8267 199.813 76.5427 207.35 72.4961 213.703L72.0761 214.362C68.0681 220.645 65.4201 224.795 67.0694 231.862C67.1094 232.031 67.0801 232.209 66.9881 232.357C66.8961 232.505 66.7494 232.61 66.5801 232.65L48.3761 236.901C48.3254 236.911 48.2747 236.918 48.2254 236.918Z" fill="#211E1E"/>
<path d="M55.748 247.878L56.576 251.421L65.6573 249.299L64.8306 245.757L55.748 247.878ZM56.0853 252.863C55.788 252.863 55.5186 252.659 55.448 252.357L54.3227 247.537C54.2827 247.367 54.312 247.19 54.404 247.042C54.496 246.894 54.6426 246.789 54.812 246.749L65.1706 244.33C65.34 244.291 65.5186 244.321 65.6666 244.413C65.8133 244.503 65.9186 244.651 65.9586 244.821L67.084 249.639C67.1666 249.993 66.9466 250.345 66.5946 250.427L56.236 252.846C56.1853 252.858 56.136 252.863 56.0853 252.863Z" fill="#211E1E"/>
<path d="M47.4109 240.329L45.4282 231.833L66.9789 226.801L68.9629 235.297C70.3522 241.247 66.6549 247.199 60.7042 248.589H60.7029C54.7522 249.978 48.8016 246.281 47.4109 240.329Z" fill="#FED137"/>
<path d="M46.2151 232.322L48.4698 241.978C48.9898 244.206 50.3471 246.097 52.2898 247.305C54.2325 248.511 56.5285 248.89 58.7565 248.37L62.3538 247.53C64.5805 247.01 66.4725 245.654 67.6791 243.711C68.8858 241.769 69.2644 239.471 68.7444 237.245L66.4898 227.587L46.2151 232.322ZM56.7898 249.91C54.9698 249.91 53.1818 249.403 51.5964 248.418C49.3564 247.026 47.7924 244.845 47.1938 242.277L44.7885 231.982C44.7071 231.629 44.9258 231.277 45.2791 231.194L66.8298 226.162C66.9991 226.123 67.1778 226.151 67.3258 226.243C67.4724 226.335 67.5778 226.482 67.6178 226.651L70.0218 236.946C70.6218 239.514 70.1844 242.163 68.7924 244.403C67.4004 246.643 65.2205 248.207 62.6511 248.807L59.0538 249.647C58.3018 249.822 57.5431 249.91 56.7898 249.91Z" fill="#211E1E"/>
<path d="M48.8028 235.365C48.7028 235.365 48.6135 235.297 48.5895 235.197C48.5615 235.078 48.6348 234.961 48.7521 234.934L65.3708 231.054C65.4881 231.026 65.6054 231.099 65.6334 231.217C65.6601 231.334 65.5881 231.451 65.4694 231.479L48.8521 235.359C48.8361 235.363 48.8188 235.365 48.8028 235.365Z" fill="#211E1E"/>
<path d="M42.8415 209.838C42.7428 209.838 42.6522 209.771 42.6295 209.67C42.6015 209.553 42.6748 209.435 42.7922 209.407L59.4095 205.527C59.5268 205.499 59.6455 205.573 59.6722 205.69C59.7002 205.807 59.6268 205.925 59.5095 205.953L42.8922 209.833C42.8748 209.837 42.8588 209.838 42.8415 209.838Z" fill="#211E1E"/>
<path d="M40.4242 162.402C40.1269 162.402 39.8562 162.197 39.7856 161.895L37.4002 151.677C37.3175 151.325 37.5376 150.971 37.8896 150.889C38.2416 150.807 38.5949 151.026 38.6776 151.379L41.0629 161.597C41.1455 161.949 40.9269 162.302 40.5735 162.383C40.5242 162.395 40.4736 162.402 40.4242 162.402Z" fill="#211E1E"/>
<path d="M71.444 165.653C71.3253 165.653 71.2053 165.621 71.0986 165.554C70.7906 165.363 70.696 164.958 70.888 164.651L76.4253 155.739C76.6159 155.431 77.0213 155.337 77.3279 155.529C77.6359 155.719 77.7306 156.123 77.5386 156.431L72.0013 165.343C71.8773 165.543 71.6626 165.653 71.444 165.653Z" fill="#211E1E"/>
<path d="M88.0106 188.403C87.7133 188.403 87.4426 188.199 87.372 187.897C87.2906 187.543 87.5093 187.191 87.8613 187.109L98.08 184.722C98.4306 184.642 98.7853 184.859 98.868 185.213C98.9493 185.565 98.7306 185.917 98.3786 186.001L88.1599 188.386C88.1106 188.398 88.06 188.403 88.0106 188.403Z" fill="#211E1E"/>
<path d="M15.6509 178.681C15.5336 178.681 15.4136 178.649 15.3056 178.582L6.39354 173.045C6.08554 172.853 5.9909 172.449 6.1829 172.141C6.37356 171.834 6.77757 171.738 7.08557 171.93L15.9975 177.469C16.3055 177.659 16.4002 178.063 16.2082 178.371C16.0842 178.571 15.8709 178.681 15.6509 178.681Z" fill="#211E1E"/>
<path d="M0.654803 208.802C0.35747 208.802 0.0881327 208.597 0.0174661 208.295C-0.0652006 207.942 0.153456 207.589 0.506789 207.507L10.7241 205.121C11.0761 205.039 11.4295 205.258 11.5121 205.61C11.5948 205.963 11.3748 206.315 11.0228 206.398L0.80412 208.783C0.754786 208.795 0.704137 208.802 0.654803 208.802Z" fill="#211E1E"/>
<path d="M52.244 230.379C51.9573 230.379 51.6947 230.19 51.6133 229.899C51.5613 229.714 46.3093 211.235 35.8626 205.37C35.5466 205.193 35.4347 204.794 35.612 204.478C35.7893 204.162 36.188 204.05 36.504 204.227C47.4293 210.359 52.6587 228.767 52.8773 229.547C52.9733 229.897 52.7693 230.258 52.4213 230.355C52.3627 230.373 52.3027 230.379 52.244 230.379Z" fill="#211E1E"/>
<path d="M59.9324 228.585C59.623 228.585 59.3484 228.366 59.2884 228.051C59.1377 227.255 55.6751 208.434 62.7537 198.098C62.9577 197.799 63.3657 197.722 63.6657 197.927C63.9644 198.131 64.0404 198.539 63.8364 198.838C57.0657 208.723 60.5404 227.617 60.5764 227.807C60.6444 228.163 60.4111 228.506 60.0551 228.573C60.0137 228.581 59.9724 228.585 59.9324 228.585Z" fill="#211E1E"/>
<path d="M36.1561 205.338C35.8575 205.338 35.5881 205.134 35.5175 204.831C35.4361 204.479 35.6548 204.126 36.0068 204.045C36.8495 203.847 37.1548 203.282 37.5415 202.566C37.9748 201.763 38.5134 200.765 39.9308 200.434C41.3481 200.103 42.2748 200.759 43.0188 201.287C43.6815 201.758 44.2068 202.129 45.0481 201.933C45.8895 201.737 46.1948 201.171 46.5801 200.455C47.0135 199.653 47.5521 198.655 48.9695 198.323C50.3881 197.993 51.3121 198.65 52.0561 199.177C52.7188 199.647 53.2441 200.019 54.0841 199.823C54.9268 199.626 55.2308 199.061 55.6175 198.346C56.0495 197.543 56.5881 196.545 58.0055 196.214C59.4241 195.883 60.3481 196.541 61.0908 197.067C61.7535 197.538 62.2775 197.91 63.1175 197.713C63.4695 197.633 63.8241 197.85 63.9055 198.203C63.9881 198.555 63.7695 198.909 63.4161 198.991C61.9988 199.322 61.0748 198.665 60.3308 198.137C59.6681 197.666 59.1455 197.294 58.3041 197.491C57.4628 197.687 57.1575 198.253 56.7708 198.967C56.3388 199.77 55.8001 200.769 54.3828 201.101C52.9641 201.43 52.0401 200.774 51.2961 200.246C50.6334 199.777 50.1095 199.403 49.2681 199.601C48.4255 199.798 48.1215 200.362 47.7348 201.078C47.3028 201.881 46.7641 202.879 45.3468 203.21C43.9295 203.541 43.0028 202.885 42.2601 202.357C41.5961 201.886 41.0721 201.515 40.2294 201.711C39.3868 201.907 39.0814 202.474 38.6948 203.189C38.2628 203.991 37.7228 204.99 36.3055 205.322C36.2561 205.333 36.2055 205.338 36.1561 205.338Z" fill="#211E1E"/>
<path d="M193.411 125.117C195.4 125.117 197.012 126.729 197.012 128.718C197.012 130.707 195.4 132.319 193.411 132.319C191.423 132.319 189.81 130.707 189.81 128.718C189.81 126.729 191.423 125.117 193.411 125.117Z" fill="#211E1E"/>
<path d="M193.411 125.773C191.787 125.773 190.465 127.094 190.465 128.718C190.465 130.342 191.787 131.663 193.411 131.663C195.035 131.663 196.357 130.342 196.357 128.718C196.357 127.094 195.035 125.773 193.411 125.773ZM193.411 132.975C191.064 132.975 189.155 131.065 189.155 128.718C189.155 126.37 191.064 124.461 193.411 124.461C195.759 124.461 197.668 126.37 197.668 128.718C197.668 131.065 195.759 132.975 193.411 132.975Z" fill="#211E1E"/>
<path d="M152.407 174.163C152.169 174.163 151.949 174.034 151.833 173.826L126.244 127.723L63.7587 115.346C63.4027 115.277 63.172 114.931 63.2427 114.575C63.3134 114.221 63.6574 113.991 64.0134 114.059L126.797 126.495C126.987 126.533 127.149 126.651 127.243 126.821L152.784 172.837L208.861 170.719C209.227 170.707 209.527 170.989 209.541 171.35C209.555 171.713 209.272 172.017 208.911 172.03L152.431 174.163C152.423 174.163 152.415 174.163 152.407 174.163Z" fill="#211E1E"/>
<path d="M143.334 170.105C145.371 165.058 151.114 162.618 156.16 164.655C161.207 166.693 163.647 172.437 161.61 177.483C159.572 182.53 153.83 184.97 148.782 182.931C143.735 180.894 141.296 175.151 143.334 170.105Z" fill="#FED137"/>
<path d="M152.47 164.59C151.25 164.59 150.031 164.837 148.875 165.327C146.614 166.289 144.862 168.071 143.942 170.35C143.022 172.629 143.044 175.129 144.004 177.39C144.966 179.653 146.75 181.405 149.028 182.325C151.306 183.245 153.807 183.221 156.068 182.261C158.33 181.301 160.082 179.515 161.002 177.238C162.9 172.534 160.619 167.162 155.915 165.263C154.802 164.814 153.635 164.59 152.47 164.59ZM152.472 184.31C151.142 184.31 149.808 184.054 148.536 183.541C145.934 182.489 143.895 180.487 142.798 177.903C141.7 175.319 141.674 172.462 142.724 169.859C144.895 164.485 151.032 161.879 156.406 164.047C159.01 165.098 161.047 167.101 162.144 169.685C163.243 172.269 163.268 175.125 162.218 177.729C161.167 180.331 159.164 182.37 156.58 183.467C155.259 184.029 153.867 184.31 152.472 184.31Z" fill="#211E1E"/>
<path d="M120.441 124.625C121.831 121.185 125.744 119.522 129.184 120.91C132.624 122.299 134.287 126.213 132.897 129.653C131.509 133.093 127.595 134.755 124.156 133.367C120.716 131.978 119.053 128.063 120.441 124.625Z" fill="#211E1E"/>
<path d="M126.677 121.078C124.277 121.078 122.001 122.513 121.049 124.87C120.444 126.371 120.459 128.018 121.092 129.509C121.724 130.998 122.9 132.153 124.401 132.758C125.903 133.365 127.549 133.35 129.039 132.717C130.529 132.083 131.684 130.909 132.289 129.407C132.896 127.906 132.881 126.259 132.248 124.769C131.615 123.279 130.44 122.125 128.939 121.519C128.197 121.219 127.431 121.078 126.677 121.078ZM126.671 134.514C125.736 134.514 124.803 134.334 123.911 133.974C122.084 133.237 120.655 131.834 119.884 130.021C119.115 128.209 119.096 126.205 119.833 124.379C120.571 122.553 121.975 121.123 123.787 120.353C125.6 119.583 127.603 119.565 129.429 120.302C131.256 121.039 132.685 122.443 133.455 124.257C134.225 126.069 134.243 128.073 133.505 129.898C132.768 131.725 131.364 133.154 129.552 133.925C128.625 134.317 127.648 134.514 126.671 134.514Z" fill="#211E1E"/>
<path d="M208.424 165.205C207.626 165.205 206.826 165.365 206.067 165.687C204.584 166.317 203.436 167.486 202.834 168.981C202.23 170.474 202.244 172.114 202.875 173.597C203.504 175.079 204.674 176.227 206.168 176.831C207.662 177.434 209.3 177.419 210.783 176.789C212.266 176.159 213.415 174.99 214.018 173.495C215.263 170.413 213.767 166.891 210.683 165.646C209.954 165.351 209.188 165.205 208.424 165.205ZM208.427 178.585C207.496 178.585 206.566 178.406 205.676 178.047C203.859 177.313 202.434 175.914 201.667 174.109C200.9 172.303 200.883 170.309 201.618 168.49C202.351 166.671 203.75 165.247 205.555 164.481C207.359 163.714 209.355 163.695 211.174 164.43C214.928 165.946 216.75 170.233 215.234 173.987C214.5 175.806 213.102 177.23 211.296 177.997C210.374 178.389 209.4 178.585 208.427 178.585Z" fill="#211E1E"/>
<path d="M63.5855 110.313C62.9455 110.313 62.3054 110.441 61.6988 110.699C60.5108 111.203 59.5921 112.139 59.1095 113.335C58.6268 114.531 58.6374 115.843 59.1414 117.031C59.6468 118.218 60.5828 119.137 61.7788 119.619C62.9748 120.103 64.2868 120.091 65.4734 119.587C66.6601 119.083 67.5801 118.146 68.0628 116.95C69.0601 114.482 67.8614 111.662 65.3934 110.666C64.8094 110.43 64.1975 110.313 63.5855 110.313ZM63.5788 121.283C62.8148 121.283 62.0388 121.139 61.2881 120.837C59.7668 120.222 58.5761 119.053 57.9348 117.543C57.2934 116.034 57.2788 114.365 57.8934 112.845C58.5068 111.325 59.6761 110.134 61.1855 109.491C62.6948 108.85 64.3641 108.837 65.8841 109.45C69.0241 110.717 70.5468 114.302 69.2788 117.441C68.3148 119.83 66.0081 121.283 63.5788 121.283Z" fill="#211E1E"/>
<path d="M542.333 65.8324C542.283 65.8324 542.233 65.827 542.182 65.815C541.829 65.7324 541.611 65.379 541.694 65.027C544.347 53.7484 540.501 51.679 536.333 50.5257C534.947 50.143 532.789 50.0764 530.381 51.9444C528.494 53.4097 526.234 56.7684 525.731 60.679C525.686 61.039 525.361 61.295 524.997 61.2457C524.638 61.2004 524.385 60.8724 524.43 60.5124C524.902 56.8444 527.018 52.8964 529.577 50.9097C531.79 49.1924 534.313 48.6057 536.683 49.2617C541.593 50.6204 545.751 53.507 542.97 65.327C542.899 65.6284 542.63 65.8324 542.333 65.8324Z" fill="#211E1E"/>
<path d="M478.656 132.366L501.261 50.6737L568.841 69.375L546.236 151.066L478.656 132.366Z" fill="white"/>
<path d="M479.462 131.908L545.778 150.259L568.035 69.8323L501.718 51.4816L479.462 131.908ZM546.237 151.722C546.179 151.722 546.12 151.714 546.061 151.698L478.48 132.998C478.313 132.951 478.17 132.84 478.085 132.688C478 132.537 477.977 132.358 478.024 132.19L500.629 50.499C500.674 50.3323 500.787 50.1896 500.937 50.1043C501.089 50.0177 501.268 49.995 501.436 50.0417L569.016 68.743C569.365 68.839 569.569 69.2003 569.473 69.5496L546.868 151.24C546.788 151.531 546.524 151.722 546.237 151.722Z" fill="#211E1E"/>
<path d="M553.659 62.3577C551.306 61.5724 519.445 52.691 516.838 52.0457C514.503 60.4857 517.262 62.799 524.765 65.147C536.434 68.8004 543.71 70.7617 547.075 70.251C551.323 69.6057 553.217 66.5244 553.659 62.3577Z" fill="#FED137"/>
<path d="M517.304 52.8443C515.421 60.1737 517.642 62.231 524.961 64.5217C536.436 68.1137 543.717 70.0977 546.978 69.6017C550.421 69.079 552.377 66.859 552.942 62.8203C548.477 61.471 522.172 54.139 517.304 52.8443ZM545.916 70.983C542.028 70.983 534.984 69.0337 524.569 65.7737C516.8 63.3417 513.748 60.7563 516.206 51.8697C516.301 51.5283 516.65 51.323 516.996 51.4083C519.477 52.023 551.522 60.9523 553.868 61.7363C554.16 61.8337 554.345 62.1217 554.312 62.427C553.789 67.3403 551.321 70.2697 547.174 70.899C546.8 70.9563 546.38 70.983 545.916 70.983Z" fill="#211E1E"/>
<path d="M548.937 97.1723C548.917 97.1723 548.897 97.1697 548.878 97.1643L516.208 88.1243C516.092 88.0923 516.024 87.9723 516.056 87.855C516.088 87.7403 516.208 87.6697 516.325 87.703L548.994 96.743C549.11 96.775 549.18 96.8963 549.146 97.0123C549.121 97.1083 549.033 97.1723 548.937 97.1723Z" fill="#211E1E"/>
<path d="M545.444 109.796C545.424 109.796 545.405 109.794 545.385 109.788L512.716 100.748C512.6 100.716 512.53 100.595 512.564 100.479C512.594 100.363 512.714 100.294 512.832 100.327L545.502 109.367C545.618 109.399 545.686 109.519 545.654 109.636C545.628 109.732 545.54 109.796 545.444 109.796Z" fill="#211E1E"/>
<path d="M541.95 122.42C541.93 122.42 541.912 122.418 541.892 122.412L509.222 113.372C509.106 113.34 509.037 113.219 509.07 113.103C509.101 112.987 509.221 112.918 509.338 112.951L542.009 121.991C542.125 122.023 542.193 122.143 542.161 122.26C542.134 122.356 542.046 122.42 541.95 122.42Z" fill="#211E1E"/>
<path d="M506.091 87.2696C506.035 87.2696 505.979 87.263 505.923 87.2483C505.721 87.1936 505.555 87.047 505.479 86.851L503.551 81.8696C503.419 81.531 503.587 81.151 503.926 81.0216C504.265 80.891 504.643 81.0576 504.774 81.395L506.377 85.535L510.686 82.0176C510.966 81.7883 511.379 81.831 511.609 82.111C511.837 82.3923 511.795 82.8056 511.515 83.0336L506.506 87.1216C506.387 87.219 506.241 87.2696 506.091 87.2696Z" fill="#211E1E"/>
<path d="M502.441 100.46C502.385 100.46 502.329 100.454 502.273 100.439C502.07 100.386 501.905 100.238 501.83 100.042L499.901 95.0603C499.77 94.7216 499.938 94.343 500.275 94.2123C500.614 94.0816 500.994 94.2483 501.123 94.5856L502.726 98.7256L507.035 95.2083C507.317 94.979 507.729 95.0216 507.958 95.3016C508.187 95.583 508.145 95.9963 507.865 96.2243L502.855 100.314C502.738 100.41 502.59 100.46 502.441 100.46Z" fill="#211E1E"/>
<path d="M498.792 113.653C498.736 113.653 498.68 113.644 498.625 113.63C498.421 113.576 498.256 113.428 498.181 113.232L496.252 108.251C496.12 107.913 496.288 107.534 496.625 107.403C496.965 107.271 497.344 107.44 497.474 107.776L499.077 111.916L503.386 108.399C503.666 108.17 504.08 108.212 504.309 108.494C504.537 108.773 504.496 109.187 504.216 109.415L499.206 113.504C499.088 113.6 498.941 113.653 498.792 113.653Z" fill="#211E1E"/>
<path d="M1369.68 207.403C1364.46 206.723 1359.42 204.385 1355.41 200.377C1345.76 190.722 1345.76 175.069 1355.41 165.414C1364.31 156.522 1378.28 155.826 1387.98 163.313L1396.17 155.119C1381.93 143.159 1360.66 143.874 1347.27 157.269C1333.12 171.422 1333.12 194.369 1347.27 208.522C1353.53 214.779 1361.5 218.269 1369.68 218.993V207.403Z" fill="white"/>
<path d="M1372.94 147.385C1363.76 147.385 1354.6 150.867 1347.73 157.733C1341.01 164.454 1337.31 173.39 1337.31 182.895C1337.31 192.401 1341.01 201.337 1347.73 208.058C1353.46 213.783 1361 217.393 1369.03 218.269V207.973C1363.66 207.153 1358.81 204.694 1354.95 200.841C1350.16 196.047 1347.52 189.674 1347.52 182.895C1347.52 176.117 1350.16 169.743 1354.95 164.95C1363.81 156.09 1377.89 155.058 1387.92 162.446L1395.2 155.166C1388.73 149.957 1380.83 147.385 1372.94 147.385ZM1369.68 219.649C1369.66 219.649 1369.64 219.647 1369.62 219.646C1361.02 218.883 1352.92 215.098 1346.81 208.985C1339.84 202.017 1336 192.75 1336 182.895C1336 173.039 1339.84 163.774 1346.81 156.805C1353.38 150.235 1362.1 146.41 1371.38 146.031C1380.61 145.654 1389.56 148.703 1396.6 154.617C1396.74 154.735 1396.82 154.906 1396.83 155.09C1396.84 155.274 1396.77 155.453 1396.64 155.582L1388.44 163.777C1388.21 164.01 1387.84 164.033 1387.58 163.833C1378.04 156.467 1364.41 157.345 1355.88 165.877C1351.33 170.423 1348.83 176.467 1348.83 182.895C1348.83 189.323 1351.33 195.367 1355.88 199.913C1359.66 203.695 1364.46 206.062 1369.77 206.753C1370.09 206.795 1370.34 207.074 1370.34 207.403V218.993C1370.34 219.177 1370.26 219.351 1370.13 219.477C1370 219.587 1369.85 219.649 1369.68 219.649Z" fill="#211E1E"/>
<path d="M1392.48 167.813C1395.92 172.271 1397.64 177.634 1397.62 182.994L1409.11 184.312C1409.45 175.565 1406.64 166.718 1400.67 159.618L1392.48 167.813Z" fill="#211E1E"/>
<path d="M1398.27 182.409L1408.47 183.581C1408.63 175.202 1405.87 167.091 1400.63 160.593L1393.35 167.873C1396.43 172.069 1398.17 177.189 1398.27 182.409ZM1409.11 184.969C1409.08 184.969 1409.06 184.967 1409.03 184.965L1397.54 183.646C1397.21 183.607 1396.96 183.326 1396.96 182.991C1396.98 177.666 1395.21 172.417 1391.96 168.213C1391.76 167.953 1391.78 167.582 1392.01 167.349L1400.21 159.154C1400.34 159.023 1400.51 158.951 1400.7 158.962C1400.89 158.97 1401.06 159.055 1401.17 159.195C1407.07 166.215 1410.12 175.145 1409.76 184.339C1409.76 184.521 1409.67 184.693 1409.53 184.811C1409.41 184.914 1409.26 184.969 1409.11 184.969Z" fill="#211E1E"/>
<path d="M1396.77 189.302C1395.69 193.358 1393.56 197.194 1390.38 200.376C1386.35 204.402 1381.28 206.742 1376.04 207.411V218.998C1384.24 218.287 1392.25 214.796 1398.52 208.522C1403.62 203.423 1406.88 197.184 1408.31 190.626L1396.77 189.302Z" fill="#FED137"/>
<path d="M1376.7 207.982V218.275C1384.76 217.412 1392.32 213.8 1398.06 208.058C1402.73 203.391 1405.98 197.574 1407.51 191.194L1397.25 190.016C1396.06 194.095 1393.85 197.827 1390.84 200.84C1386.97 204.711 1382.09 207.172 1376.7 207.982ZM1376.05 219.654C1375.88 219.654 1375.72 219.592 1375.6 219.48C1375.47 219.356 1375.39 219.182 1375.39 218.998V207.411C1375.39 207.08 1375.63 206.802 1375.96 206.76C1381.29 206.08 1386.11 203.712 1389.91 199.912C1392.9 196.928 1395.05 193.2 1396.14 189.132C1396.22 188.818 1396.52 188.612 1396.85 188.65L1408.38 189.974C1408.57 189.995 1408.73 190.094 1408.84 190.244C1408.95 190.395 1408.99 190.583 1408.95 190.764C1407.45 197.668 1404 203.968 1398.99 208.984C1392.86 215.115 1384.73 218.903 1376.1 219.651C1376.08 219.652 1376.06 219.654 1376.05 219.654Z" fill="#211E1E"/>
<path d="M1211.66 483.262C1211.45 483.262 1211.25 483.168 1211.12 482.986C1210.91 482.692 1210.98 482.282 1211.28 482.073L1225.87 471.714C1226.1 471.552 1226.41 471.553 1226.64 471.718L1236.37 478.796L1252.45 467.7C1252.62 467.58 1252.85 467.552 1253.04 467.622L1291.13 481.268L1327.19 460.09C1327.5 459.908 1327.9 460.01 1328.08 460.324C1328.27 460.636 1328.16 461.038 1327.85 461.221L1291.53 482.554C1291.36 482.653 1291.16 482.672 1290.98 482.606L1252.92 468.97L1236.73 480.14C1236.5 480.297 1236.2 480.294 1235.97 480.13L1226.25 473.057L1212.04 483.142C1211.92 483.224 1211.79 483.262 1211.66 483.262Z" fill="#211E1E"/>
<path d="M1201.97 538.892C1201.19 540.722 1199.07 541.573 1197.24 540.793C1195.41 540.014 1194.56 537.899 1195.34 536.069C1196.12 534.238 1198.24 533.387 1200.07 534.167C1201.9 534.947 1202.75 537.062 1201.97 538.892Z" fill="#211E1E"/>
<path d="M1201.37 538.635C1202 537.141 1201.31 535.407 1199.81 534.771C1198.32 534.134 1196.58 534.831 1195.95 536.325C1195.31 537.819 1196.01 539.553 1197.5 540.19C1199 540.826 1200.73 540.129 1201.37 538.635ZM1194.74 535.811C1195.66 533.652 1198.17 532.644 1200.33 533.564C1202.49 534.484 1203.49 536.99 1202.57 539.149C1201.65 541.309 1199.15 542.317 1196.99 541.397C1194.83 540.477 1193.82 537.971 1194.74 535.811Z" fill="#211E1E"/>
<path d="M1305.17 408.447C1304.39 410.275 1302.28 411.128 1300.45 410.348C1298.62 409.568 1297.77 407.452 1298.54 405.623C1299.32 403.793 1301.44 402.942 1303.27 403.722C1305.1 404.502 1305.95 406.616 1305.17 408.447Z" fill="#211E1E"/>
<path d="M1304.57 408.189C1305.2 406.695 1304.51 404.962 1303.01 404.325C1301.52 403.688 1299.78 404.386 1299.15 405.88C1298.51 407.374 1299.21 409.107 1300.7 409.744C1302.2 410.381 1303.93 409.683 1304.57 408.189ZM1297.94 405.365C1298.86 403.205 1301.37 402.197 1303.53 403.118C1305.69 404.038 1306.69 406.543 1305.77 408.703C1304.85 410.862 1302.35 411.871 1300.19 410.951C1298.03 410.03 1297.02 407.524 1297.94 405.365Z" fill="#211E1E"/>
<path d="M923.258 179.656C925.247 179.656 926.859 181.268 926.859 183.257C926.859 185.247 925.247 186.859 923.258 186.859C921.268 186.859 919.656 185.247 919.656 183.257C919.656 181.268 921.268 179.656 923.258 179.656Z" fill="#211E1E"/>
<path d="M923.257 180.312C921.633 180.312 920.312 181.633 920.312 183.257C920.312 184.881 921.633 186.203 923.257 186.203C924.881 186.203 926.203 184.881 926.203 183.257C926.203 181.633 924.881 180.312 923.257 180.312ZM923.257 187.515C920.911 187.515 919 185.604 919 183.257C919 180.909 920.911 179 923.257 179C925.605 179 927.515 180.909 927.515 183.257C927.515 185.604 925.605 187.515 923.257 187.515Z" fill="#211E1E"/>
<path d="M888.258 134.656C890.246 134.656 891.859 136.268 891.859 138.257C891.859 140.247 890.246 141.859 888.258 141.859C886.268 141.859 884.656 140.247 884.656 138.257C884.656 136.268 886.268 134.656 888.258 134.656Z" fill="#211E1E"/>
<path d="M888.257 135.312C886.633 135.312 885.312 136.633 885.312 138.257C885.312 139.881 886.633 141.203 888.257 141.203C889.881 141.203 891.203 139.881 891.203 138.257C891.203 136.633 889.881 135.312 888.257 135.312ZM888.257 142.515C885.909 142.515 884 140.605 884 138.257C884 135.911 885.909 134 888.257 134C890.604 134 892.515 135.911 892.515 138.257C892.515 140.605 890.604 142.515 888.257 142.515Z" fill="#211E1E"/>
<path d="M792.404 138.656C793.37 138.656 794.152 139.439 794.152 140.404C794.152 141.371 793.37 142.153 792.404 142.153C791.439 142.153 790.656 141.371 790.656 140.404C790.656 139.439 791.439 138.656 792.404 138.656Z" fill="#211E1E"/>
<path d="M792.404 139.312C791.801 139.312 791.311 139.801 791.311 140.405C791.311 141.008 791.801 141.497 792.404 141.497C793.007 141.497 793.497 141.008 793.497 140.405C793.497 139.801 793.007 139.312 792.404 139.312ZM792.404 142.809C791.079 142.809 790 141.731 790 140.405C790 139.079 791.079 138 792.404 138C793.729 138 794.808 139.079 794.808 140.405C794.808 141.731 793.729 142.809 792.404 142.809Z" fill="#211E1E"/>
<path d="M388.524 187.749C388.257 187.749 388.008 187.587 387.909 187.321C387.784 186.983 387.956 186.605 388.296 186.479C389.997 185.847 391.784 185.477 393.607 185.384C393.981 185.371 394.276 185.644 394.295 186.005C394.313 186.368 394.036 186.676 393.673 186.695C391.985 186.781 390.328 187.123 388.752 187.708C388.677 187.736 388.6 187.749 388.524 187.749ZM403.644 189.264C403.525 189.264 403.405 189.232 403.297 189.165C401.863 188.273 400.308 187.608 398.676 187.191C398.325 187.1 398.115 186.744 398.204 186.392C398.293 186.041 398.649 185.829 399.001 185.92C400.763 186.371 402.441 187.088 403.991 188.051C404.297 188.241 404.392 188.647 404.201 188.953C404.077 189.153 403.863 189.264 403.644 189.264ZM380.363 194.081C380.233 194.081 380.103 194.044 379.988 193.964C379.691 193.757 379.617 193.348 379.824 193.051C380.864 191.559 382.12 190.236 383.559 189.119C383.844 188.896 384.256 188.948 384.479 189.235C384.7 189.52 384.648 189.932 384.363 190.155C383.029 191.191 381.864 192.417 380.901 193.801C380.773 193.984 380.569 194.081 380.363 194.081ZM410.393 197.083C410.139 197.083 409.897 196.935 409.791 196.688C409.121 195.143 408.223 193.711 407.117 192.432C406.881 192.157 406.912 191.744 407.185 191.507C407.46 191.271 407.875 191.301 408.111 191.575C409.303 192.955 410.272 194.5 410.995 196.167C411.139 196.499 410.985 196.885 410.653 197.029C410.568 197.065 410.48 197.083 410.393 197.083ZM411.469 207.356C411.427 207.356 411.383 207.351 411.34 207.343C410.984 207.271 410.755 206.925 410.825 206.571C411.041 205.495 411.151 204.388 411.151 203.281C411.152 202.705 411.121 202.123 411.061 201.549C411.024 201.189 411.287 200.867 411.647 200.829C412.003 200.796 412.329 201.053 412.367 201.413C412.431 202.032 412.463 202.66 412.463 203.281C412.463 204.475 412.344 205.667 412.112 206.828C412.049 207.14 411.775 207.356 411.469 207.356ZM377.647 207.519C377.343 207.519 377.071 207.307 377.005 206.997C376.749 205.784 376.62 204.533 376.62 203.281C376.62 201.453 376.895 199.649 377.435 197.921C377.544 197.575 377.909 197.381 378.257 197.491C378.603 197.6 378.795 197.968 378.687 198.313C378.185 199.915 377.931 201.587 377.931 203.281C377.931 204.443 378.051 205.603 378.288 206.727C378.364 207.081 378.137 207.429 377.783 207.504C377.736 207.513 377.692 207.519 377.647 207.519ZM406.487 216.404C406.315 216.404 406.141 216.336 406.013 216.201C405.763 215.94 405.772 215.525 406.032 215.275C407.252 214.105 408.284 212.765 409.097 211.289C409.272 210.972 409.671 210.856 409.988 211.032C410.305 211.207 410.42 211.605 410.245 211.923C409.368 213.515 408.256 214.961 406.94 216.221C406.813 216.343 406.649 216.404 406.487 216.404ZM382.716 216.517C382.555 216.517 382.393 216.459 382.267 216.339C380.939 215.091 379.813 213.655 378.921 212.072C378.743 211.757 378.855 211.357 379.171 211.179C379.484 211.001 379.885 211.112 380.064 211.428C380.891 212.896 381.935 214.227 383.165 215.384C383.429 215.632 383.441 216.047 383.193 216.311C383.065 216.448 382.891 216.517 382.716 216.517ZM397.235 220.993C396.917 220.993 396.637 220.763 396.588 220.44C396.531 220.083 396.776 219.747 397.133 219.691C398.8 219.429 400.411 218.916 401.921 218.165C402.245 218.005 402.639 218.137 402.8 218.461C402.961 218.785 402.829 219.179 402.504 219.34C400.875 220.151 399.136 220.704 397.337 220.985C397.303 220.992 397.268 220.993 397.235 220.993ZM392.012 221.019C391.98 221.019 391.948 221.017 391.916 221.012C390.113 220.747 388.369 220.211 386.732 219.416C386.405 219.257 386.269 218.865 386.428 218.54C386.585 218.213 386.977 218.077 387.304 218.236C388.821 218.972 390.436 219.469 392.107 219.715C392.464 219.767 392.712 220.1 392.66 220.459C392.612 220.784 392.332 221.019 392.012 221.019Z" fill="#211E1E"/>
<path d="M345.601 92.9998C347.589 92.9998 349.203 94.6118 349.203 96.6012C349.203 98.5905 347.589 100.203 345.601 100.203C343.612 100.203 342 98.5905 342 96.6012C342 94.6118 343.612 92.9998 345.601 92.9998Z" fill="#211E1E"/>
<path d="M297.64 1.78318C297.567 1.78318 297.492 1.77121 297.42 1.74588C295.905 1.20588 294.211 1.16853 292.675 1.63653C292.328 1.74187 291.961 1.54586 291.856 1.1992C291.751 0.85253 291.945 0.487209 292.292 0.380543C294.096 -0.167458 296.081 -0.123461 297.859 0.509872C298.2 0.631207 298.379 1.00588 298.257 1.34721C298.161 1.61521 297.909 1.78318 297.64 1.78318ZM286.656 9.5352C286.293 9.5352 286 9.24054 286 8.87921C286 6.95787 286.603 5.12986 287.744 3.59252C287.96 3.30186 288.371 3.24052 288.661 3.45652C288.953 3.67119 289.013 4.08187 288.797 4.37387C287.825 5.6832 287.311 7.24187 287.311 8.87921C287.311 9.24054 287.017 9.5352 286.656 9.5352ZM303.097 9.91521C303.088 9.91521 303.079 9.91388 303.068 9.91388C302.707 9.89788 302.427 9.59253 302.441 9.22986C302.447 9.11386 302.449 8.99654 302.449 8.87921C302.449 7.36721 302.005 5.90852 301.165 4.65919C300.964 4.35919 301.043 3.95121 301.344 3.74854C301.644 3.54721 302.052 3.62586 302.253 3.92719C303.24 5.39252 303.761 7.10588 303.761 8.87921C303.761 9.01521 303.759 9.15118 303.752 9.28718C303.737 9.63918 303.447 9.91521 303.097 9.91521ZM291.767 17.1498C291.684 17.1498 291.6 17.1352 291.519 17.1019C289.773 16.3872 288.269 15.1018 287.287 13.4858C287.099 13.1752 287.196 12.7725 287.505 12.5845C287.815 12.3965 288.219 12.4939 288.407 12.8045C289.245 14.1832 290.527 15.2778 292.016 15.8872C292.351 16.0245 292.512 16.4072 292.375 16.7432C292.271 16.9965 292.025 17.1498 291.767 17.1498ZM296.912 17.5072C296.619 17.5072 296.352 17.3085 296.276 17.0125C296.187 16.6619 296.4 16.3045 296.751 16.2152C298.307 15.8205 299.727 14.9125 300.749 13.6605C300.977 13.3805 301.391 13.3365 301.672 13.5659C301.952 13.7952 301.995 14.2085 301.765 14.4899C300.567 15.9579 298.901 17.0218 297.073 17.4872C297.019 17.5005 296.965 17.5072 296.912 17.5072Z" fill="#211E1E"/>
</svg>
