<svg width="50" height="50" viewBox="0 0 50 50" fill="none" xmlns="http://www.w3.org/2000/svg">
<g clip-path="url(#clip0_101_3541)">
<path opacity="0.936" fill-rule="evenodd" clip-rule="evenodd" d="M11.377 -0.0488281C11.7025 -0.0488281 12.0281 -0.0488281 12.3535 -0.0488281C12.6757 0.193377 12.8547 0.518897 12.8906 0.927734C12.9558 2.06706 12.9558 3.20638 12.8906 4.3457C12.6803 5.23081 12.1432 5.5075 11.2793 5.17578C11.1281 5.05723 11.0142 4.91074 10.9375 4.73633C10.8724 3.30403 10.8724 1.87175 10.9375 0.439453C11.0709 0.25765 11.2174 0.0948899 11.377 -0.0488281Z" fill="#FED137"/>
<path opacity="0.936" fill-rule="evenodd" clip-rule="evenodd" d="M37.5488 -0.0488281C37.8743 -0.0488281 38.1999 -0.0488281 38.5254 -0.0488281C38.6849 0.0948898 38.8314 0.25765 38.9648 0.439453C39.03 1.87175 39.03 3.30403 38.9648 4.73633C38.5957 5.31148 38.0911 5.45797 37.4511 5.17578C37.1893 4.96152 37.0428 4.68483 37.0117 4.3457C36.9235 3.03896 36.956 1.73687 37.1093 0.439453C37.2427 0.25765 37.3892 0.0948898 37.5488 -0.0488281Z" fill="#FED137"/>
<path opacity="0.909" fill-rule="evenodd" clip-rule="evenodd" d="M2.29489 1.61133C2.73921 1.5512 3.12983 1.66513 3.46677 1.95312C4.98044 3.4668 6.49411 4.98047 8.00778 6.49414C8.34309 7.01096 8.32682 7.51553 7.95895 8.00781C7.41315 8.35293 6.89232 8.32038 6.39645 7.91015C4.74653 6.32553 3.16776 4.68165 1.66013 2.97851C1.53018 2.35969 1.74178 1.90395 2.29489 1.61133Z" fill="#FED137"/>
<path opacity="0.908" fill-rule="evenodd" clip-rule="evenodd" d="M46.9238 1.61133C48.2369 1.69858 48.5787 2.31708 47.9492 3.4668C46.4355 4.98047 44.9218 6.49414 43.4081 8.00781C42.9199 8.33333 42.4316 8.33333 41.9433 8.00781C41.5763 7.51924 41.56 7.01469 41.8945 6.49414C43.531 4.80856 45.2074 3.18097 46.9238 1.61133Z" fill="#FED137"/>
<path opacity="0.94" fill-rule="evenodd" clip-rule="evenodd" d="M49.9512 34.8145C49.9512 35.1074 49.9512 35.4004 49.9512 35.6934C49.5666 36.2799 49.0458 36.4264 48.3887 36.1328C47.2331 34.9772 46.0774 33.8216 44.9219 32.666C44.5442 33.0764 44.1374 33.4507 43.7012 33.7891C42.6271 33.9192 42.1877 33.4473 42.3828 32.373C42.7064 31.968 43.0482 31.5773 43.4082 31.2012C42.7586 30.5027 42.0913 29.8191 41.4062 29.1504C38.7532 31.8034 36.1003 34.4564 33.4473 37.1094C34.116 37.7944 34.7996 38.4617 35.498 39.1113C35.8788 38.714 36.3021 38.3722 36.7676 38.0859C37.8602 38.0391 38.267 38.5437 37.9883 39.5996C37.6465 39.9414 37.3047 40.2832 36.9629 40.625C39.5861 43.2156 42.174 45.836 44.7266 48.4863C44.8971 49.0877 44.7506 49.576 44.2871 49.9512C43.9616 49.9512 43.636 49.9512 43.3105 49.9512C38.8406 45.5301 34.3811 41.0867 29.9316 36.6211C28.0893 36.8598 26.364 36.5017 24.7559 35.5469C23.9553 34.9906 23.1415 34.4535 22.3145 33.9355C22.1517 34.0169 21.989 34.0983 21.8262 34.1797C16.5603 39.4945 11.2543 44.7517 5.9082 49.9512C5.68034 49.9512 5.45247 49.9512 5.22461 49.9512C4.60921 49.5862 4.43017 49.0654 4.6875 48.3887C8.44727 44.6289 12.207 40.8691 15.9668 37.1094C13.6719 34.8145 11.377 32.5195 9.08203 30.2246C6.55651 32.7827 4.00117 35.3055 1.41602 37.793C0.778299 37.9798 0.290018 37.8008 -0.0488281 37.2559C-0.0488281 36.9954 -0.0488281 36.7351 -0.0488281 36.4746C3.58813 32.691 7.28279 28.9476 11.0352 25.2441C11.1003 25.179 11.1003 25.114 11.0352 25.0488C10.2369 24.3816 9.58589 23.6004 9.08203 22.7051C8.5011 20.6447 9.16843 19.1474 11.084 18.2129C10.3762 16.503 10.7343 15.0544 12.1582 13.8672C12.7293 13.521 13.3478 13.342 14.0137 13.3301C14.1007 11.7616 14.8819 10.7037 16.3574 10.1563C16.679 10.0756 17.0045 10.0268 17.334 10.0098C17.4206 8.44167 18.2019 7.38373 19.6777 6.83594C20.6273 6.58785 21.5389 6.68551 22.4121 7.12891C23.2732 7.90857 24.1195 8.70609 24.9512 9.52149C26.2356 8.28589 27.5052 7.03263 28.7598 5.76172C30.8598 4.6724 32.5362 5.11186 33.7891 7.08008C33.9266 7.56496 34.073 8.03696 34.2285 8.4961C36.1893 8.7152 37.231 9.80567 37.3535 11.7676C39.4081 11.9341 40.5148 13.0409 40.6738 15.0879C42.3646 15.2334 43.4552 16.1123 43.9453 17.7246C44.0901 18.616 43.9599 19.4624 43.5547 20.2637C42.8401 21.0597 42.1077 21.8409 41.3574 22.6074C42.098 24.0807 42.4725 25.6432 42.4805 27.2949C44.9931 29.7912 47.4833 32.2977 49.9512 34.8145ZM30.2246 7.27539C31.2202 7.11613 31.8387 7.52304 32.0801 8.4961C32.011 8.74216 31.9297 8.9863 31.8359 9.22852C30.954 10.0777 30.1077 10.9566 29.2969 11.8652C29.1179 12.9883 29.5898 13.4603 30.7129 13.2813C31.6569 12.4023 32.6009 11.5234 33.5449 10.6445C34.3057 10.414 34.8754 10.6581 35.2539 11.377C35.3373 11.7798 35.3047 12.1704 35.1562 12.5488C33.9844 13.7207 32.8125 14.8926 31.6406 16.0645C31.2133 16.787 31.3598 17.3567 32.0801 17.7734C32.3822 17.8371 32.6752 17.8045 32.959 17.6758C34.0983 16.5364 35.2376 15.3972 36.377 14.2578C37.1538 13.6337 37.8537 13.7151 38.4766 14.502C38.6883 15.0056 38.6558 15.4938 38.3789 15.9668C37.207 17.1387 36.0352 18.3105 34.8633 19.4824C34.5332 20.7473 35.0053 21.2519 36.2793 20.9961C37.4512 19.8242 38.623 18.6523 39.7949 17.4805C40.9517 16.9032 41.6678 17.245 41.9434 18.5059C41.9467 18.7923 41.8653 19.0527 41.6992 19.2871C38.7858 22.2005 35.8724 25.114 32.959 28.0273C30.0919 30.4373 26.7716 31.6092 22.998 31.543C22.3417 31.6433 21.7231 31.8549 21.1426 32.1777C19.2722 30.3562 17.4167 28.517 15.5762 26.6602C16.9062 26.063 17.5898 25.0376 17.627 23.584C19.1968 23.4952 20.2548 22.714 20.8008 21.2402C20.9026 20.9222 20.9515 20.5967 20.9473 20.2637C22.5157 20.1767 23.5736 19.3954 24.1211 17.9199C24.2229 17.6019 24.2718 17.2764 24.2676 16.9434C26.037 16.7854 27.1275 15.8413 27.5391 14.1113C27.7244 12.8768 27.3501 11.8514 26.416 11.0352C27.6753 9.75952 28.9448 8.50627 30.2246 7.27539ZM20.3613 8.74024C20.7432 8.71707 21.1013 8.79845 21.4355 8.98438C22.7214 10.2702 24.0071 11.556 25.293 12.8418C25.7368 13.9397 25.3788 14.6232 24.2188 14.8926C23.952 14.8813 23.7078 14.8 23.4863 14.6484C22.2005 13.3626 20.9147 12.0769 19.6289 10.791C19.2082 9.87393 19.4523 9.19033 20.3613 8.74024ZM17.041 12.0605C17.428 12.0204 17.7861 12.1018 18.1152 12.3047C19.4011 13.5905 20.6868 14.8763 21.9727 16.1621C22.4157 17.2291 22.0739 17.9127 20.9473 18.2129C20.6715 18.1807 20.411 18.0992 20.166 17.9688C18.8802 16.6829 17.5944 15.3972 16.3086 14.1113C15.9032 13.1953 16.1474 12.5117 17.041 12.0605ZM13.7207 15.3809C14.1918 15.3292 14.6149 15.4432 14.9902 15.7227C16.1784 16.9108 17.3665 18.0989 18.5547 19.2871C19.168 20.4373 18.8425 21.1859 17.5781 21.5332C17.3209 21.4908 17.0768 21.4095 16.8457 21.2891C15.5599 20.0032 14.2741 18.7175 12.9883 17.4316C12.5829 16.5156 12.8271 15.832 13.7207 15.3809ZM11.7676 20.166C12.2188 20.1165 12.642 20.1979 13.0371 20.4102C13.7695 21.1426 14.502 21.875 15.2344 22.6074C15.8489 23.7552 15.5234 24.5039 14.2578 24.8535C14.0006 24.8111 13.7564 24.7298 13.5254 24.6094C12.7278 23.8118 11.9304 23.0144 11.1328 22.2168C10.7085 21.3253 10.9201 20.6417 11.7676 20.166ZM39.6973 24.1699C40.0512 24.7598 40.2627 25.4108 40.332 26.123C40.3972 26.5137 40.3972 26.9043 40.332 27.2949C37.5813 30.0456 34.8308 32.7962 32.0801 35.5469C31.7106 35.3762 31.3852 35.1158 31.1035 34.7656C30.9302 34.6251 30.7349 34.5274 30.5176 34.4727C28.6795 34.8825 26.9867 34.557 25.4395 33.4961C28.8076 33.0801 31.7699 31.778 34.3262 29.5898C36.1362 27.7961 37.9266 25.9895 39.6973 24.1699ZM12.5488 26.709C14.8844 28.8979 17.1793 31.1439 19.4336 33.4473C19.4987 33.5124 19.4987 33.5774 19.4336 33.6426C18.7825 34.2937 18.1315 34.9446 17.4805 35.5957C15.1855 33.3008 12.8906 31.0059 10.5957 28.7109C11.2665 28.0564 11.9176 27.3892 12.5488 26.709Z" fill="#FED137"/>
<path opacity="0.968" fill-rule="evenodd" clip-rule="evenodd" d="M-0.0488281 12.3535C-0.0488281 12.028 -0.0488281 11.7024 -0.0488281 11.3769C0.0948898 11.2174 0.25765 11.0709 0.439453 10.9375C1.87175 10.8724 3.30403 10.8724 4.73633 10.9375C5.31148 11.3066 5.45797 11.8112 5.17578 12.4512C5.05723 12.6024 4.91074 12.7163 4.73633 12.793C3.30403 12.8581 1.87175 12.8581 0.439453 12.793C0.25765 12.6596 0.0948898 12.5131 -0.0488281 12.3535Z" fill="#FED137"/>
<path opacity="0.968" fill-rule="evenodd" clip-rule="evenodd" d="M49.9511 11.3769C49.9511 11.7024 49.9511 12.028 49.9511 12.3535C49.8074 12.5131 49.6447 12.6596 49.4628 12.793C48.0305 12.8581 46.5983 12.8581 45.166 12.793C44.5908 12.4238 44.4443 11.9192 44.7265 11.2793C44.8451 11.128 44.9915 11.0142 45.166 10.9375C46.5983 10.8724 48.0305 10.8724 49.4628 10.9375C49.6447 11.0709 49.8074 11.2174 49.9511 11.3769Z" fill="#FED137"/>
<path opacity="0.881" fill-rule="evenodd" clip-rule="evenodd" d="M39.8925 34.9121C40.9789 34.9076 41.3859 35.4285 41.1132 36.4746C40.7775 36.922 40.338 37.0685 39.7948 36.9141C39.2471 36.594 39.0681 36.1221 39.2577 35.498C39.4036 35.2232 39.6152 35.0279 39.8925 34.9121Z" fill="#FED137"/>
</g>
<defs>
<clipPath id="clip0_101_3541">
<rect width="50" height="50" fill="white"/>
</clipPath>
</defs>
</svg>
