<svg width="354" height="37" viewBox="0 0 354 37" fill="none" xmlns="http://www.w3.org/2000/svg">
<path d="M12.0933 28.3067C13.0714 27.656 13.9996 26.9267 14.9334 26.216C15.9198 25.4667 16.9078 24.7253 17.8844 23.964C20.1958 22.1627 22.4281 20.2574 24.6594 18.356C24.0734 19.1414 23.4876 19.928 22.9048 20.716C22.3422 21.4787 21.7777 22.2427 21.2152 23.0053C20.91 23.4173 20.6048 23.8293 20.299 24.2413C19.9657 24.6853 19.6928 25.1427 19.4594 25.648C19.2386 26.1254 19.0657 26.6254 18.8786 27.1174C18.5714 27.9374 18.9354 28.976 19.5277 29.5667C19.8406 29.88 20.2105 30.0947 20.6386 30.2147C21.0844 30.3334 21.5302 30.3334 21.9766 30.2147C22.5068 30.1267 23.0349 30.0507 23.5636 29.9507C23.9188 29.864 24.26 29.7414 24.5896 29.5827C24.9672 29.4334 25.337 29.2694 25.701 29.088C26.9078 28.5174 28.0125 27.716 29.1114 26.9667C30.3469 26.128 31.5901 25.3053 32.8078 24.4413C34.0756 23.5427 35.3188 22.6053 36.562 21.6747C37.701 20.82 38.8225 19.9414 39.9396 19.056C39.8297 19.2 39.7204 19.344 39.611 19.4894C38.561 20.8814 37.512 22.2773 36.462 23.6707C35.8225 24.4747 35.1568 25.2547 34.5433 26.0814C34.212 26.5227 33.9444 27.0507 33.7594 27.5693C33.601 27.9413 33.4928 28.3267 33.4324 28.7267C33.3704 29.1307 33.298 29.532 33.2152 29.932C33.0948 30.5667 33.1152 31.1534 33.4501 31.728C33.7234 32.192 34.2824 32.7173 34.8422 32.7987C35.6725 32.9147 36.4996 33.112 37.3354 33.1827C37.7412 33.244 38.149 33.2507 38.5562 33.2C38.9542 33.1573 39.348 33.096 39.7381 33.0134C40.4933 32.8707 41.2204 32.5774 41.9292 32.292C42.6682 31.9947 43.3881 31.6533 44.1005 31.2973C47.0818 29.8133 49.9605 28.144 52.761 26.3427C54.0605 25.5067 55.3558 24.6627 56.6292 23.788C55.7797 24.876 54.9281 25.9614 54.0766 27.0507C53.5458 27.7307 52.9876 28.3853 52.463 29.0707C51.9876 29.6947 51.5818 30.308 51.3048 31.048C51.0672 31.6814 50.9532 32.324 50.8084 32.984C50.613 33.8614 50.7958 34.7467 51.4448 35.3987C51.7542 35.7053 52.1204 35.9187 52.5396 36.0373C52.9797 36.156 53.4198 36.156 53.86 36.0373C54.0969 35.9947 54.3338 35.9574 54.572 35.9227C55.3444 35.8214 56.113 35.7174 56.8808 35.584C57.6964 35.4414 58.463 35.136 59.2272 34.8267C60.8136 34.1867 62.3105 33.3747 63.787 32.516C66.7297 30.804 69.5761 28.9653 72.3584 27.0027C72.7672 26.7147 73.1734 26.4227 73.5777 26.1267C73.5516 26.16 73.5266 26.1947 73.501 26.2294C73.2016 26.6374 72.9308 27.116 72.7938 27.6093C72.5829 28.3733 72.7662 29.1947 72.925 29.9467C73.198 31.2534 74.7168 32.0054 75.9458 31.6614C76.7474 31.436 77.5553 31.236 78.3584 31.0107C79.3448 30.736 80.2849 30.2894 81.2105 29.856C83.0386 29 84.7521 27.9013 86.4641 26.8387C87.7657 26.0293 89.0329 25.1707 90.3084 24.32C92.7876 22.664 95.3084 21.0574 97.7349 19.3254C99.1032 18.3494 100.475 17.376 101.844 16.4C101.25 17.1013 100.657 17.804 100.063 18.5067C99.8001 18.8173 99.5313 19.1227 99.2496 19.4227C98.637 20.0734 98.0641 20.72 97.5422 21.4494C96.998 22.2067 96.851 23.1547 96.811 24.056C96.851 24.4587 96.9152 24.8574 97.0037 25.252C97.0605 25.424 97.1162 25.5973 97.1725 25.772C97.3053 26.1107 97.4157 26.4573 97.51 26.8107C97.6324 27.2507 97.8573 27.6334 98.1808 27.96C98.6168 28.3974 99.3818 28.8054 100.025 28.7254C101.558 28.528 103.098 28.404 104.629 28.1747C106.12 27.952 107.56 27.3587 108.932 26.7587C111.727 25.5347 114.432 24.0787 117.064 22.5427C118.965 21.4333 120.84 20.2787 122.705 19.1093C122.263 19.592 121.821 20.0747 121.381 20.5614C120.524 21.512 119.667 22.46 118.807 23.4093C118.204 24.0747 117.592 24.7333 116.993 25.4027C116.037 26.4707 115.273 27.66 114.504 28.8627C113.791 29.984 114.208 31.764 115.424 32.3707C115.773 32.544 116.124 32.7174 116.472 32.8934C116.831 33.0854 117.212 33.212 117.613 33.2707C118.441 33.46 119.271 33.28 120.084 33.12C120.868 32.9654 121.629 32.56 122.348 32.2347C123.276 31.812 124.151 31.256 125.044 30.7614C125.779 30.356 126.537 29.9867 127.273 29.584C128.029 29.1747 128.768 28.7373 129.505 28.2987C130.813 27.5227 132.141 26.74 133.392 25.8787C133.768 25.62 134.145 25.36 134.52 25.1013C134.328 25.44 134.156 25.796 133.971 26.1333C133.525 26.9387 133.501 27.9094 133.971 28.712C134.445 29.524 135.263 29.9267 136.177 29.9787C136.777 30.012 137.372 30.0654 137.972 30.0827C138.391 30.0347 138.808 29.98 139.224 29.9227C139.604 29.8334 139.975 29.7254 140.343 29.5947C141.111 29.3494 141.853 28.9894 142.583 28.6507C143.313 28.3094 144.009 27.8907 144.704 27.484C146.129 26.644 147.54 25.7733 148.967 24.932C150.487 24.0347 151.972 23.072 153.451 22.104C156.504 20.1027 159.492 18.016 162.489 15.9307C162.984 15.5867 163.477 15.24 163.968 14.892C163.867 15.0174 163.765 15.1413 163.664 15.2667C162.532 16.66 161.407 18.06 160.292 19.468C159.729 20.1773 159.169 20.884 158.607 21.5934C157.913 22.4667 157.151 23.2854 156.495 24.1907C156.165 24.6494 155.88 25.0947 155.62 25.5947C155.253 26.292 155.007 27.0694 154.709 27.796C154.475 28.3667 154.657 29.1627 154.955 29.6693C155.383 30.4027 156.199 30.8813 157.052 30.872C157.421 30.8707 157.789 30.8747 158.159 30.88C158.528 30.884 158.897 30.8907 159.267 30.8867C160.233 30.8747 161.18 30.628 162.093 30.34C162.849 30.1027 163.573 29.7694 164.301 29.4587C165.209 29.0707 166.081 28.5947 166.949 28.1227C170.267 26.32 173.533 24.436 176.725 22.4174C179.845 20.444 182.887 18.3574 185.944 16.2934C187.448 15.2774 188.927 14.2254 190.399 13.1627C190.352 13.22 190.307 13.276 190.261 13.3333C189.399 14.408 188.54 15.4867 187.689 16.572C187.149 17.2587 186.593 17.9174 186.024 18.5827C185.812 18.84 185.615 19.1094 185.437 19.392C185.303 19.6894 185.183 19.992 185.073 20.3013C184.992 20.6333 184.973 20.9667 185.024 21.304C185.056 21.832 185.233 22.276 185.397 22.7707C185.777 23.9 186.884 24.6147 188.077 24.292C189.545 23.896 191.031 23.556 192.483 23.1013C193.907 22.6573 195.283 22.0053 196.628 21.3747C198.347 20.5693 200.036 19.6933 201.708 18.8013C203.796 17.6907 205.904 16.612 207.972 15.4667C209.92 14.3907 211.865 13.3133 213.812 12.2387C213.239 12.7773 212.665 13.316 212.092 13.856C210.449 15.4014 208.797 16.9373 207.172 18.5027C205.36 20.2453 203.523 21.9654 201.747 23.7467C200.671 24.828 199.593 25.9107 198.515 26.9907C197.808 27.7 196.997 28.2893 196.325 29.0347C196.123 29.2853 195.931 29.544 195.748 29.812C195.6 30.0974 195.467 30.3894 195.351 30.6894C195.28 31.0134 195.228 31.34 195.195 31.6693C195.216 32.1533 195.28 32.628 195.324 33.112C195.375 33.6827 195.517 34.168 195.935 34.5867C196.473 35.1267 197.235 35.3014 197.967 35.1254C199.205 34.8254 200.457 34.5707 201.699 34.2827C202.951 33.9934 204.148 33.58 205.339 33.104C207.929 32.072 210.404 30.7774 212.857 29.456C213.96 28.8614 215.072 28.2827 216.153 27.6507C217.012 27.148 217.869 26.6454 218.725 26.1454C219.687 25.5814 220.651 25.0174 221.613 24.4547C221.312 24.7174 221.011 24.9773 220.705 25.2347C220.331 25.5173 219.959 25.8054 219.611 26.12C219.399 26.3787 219.193 26.6413 218.989 26.908C218.86 27.2067 218.736 27.5053 218.623 27.8067C218.504 28.2467 218.504 28.6867 218.623 29.1267C218.636 29.4787 218.736 29.8053 218.925 30.108C219.344 30.948 219.98 31.6373 220.899 31.9307C222.117 32.3187 223.365 32.156 224.575 31.8107C225.247 31.6173 225.905 31.312 226.545 31.0307C227.176 30.7547 227.803 30.4667 228.433 30.1894C230.315 29.4334 232.167 28.64 233.989 27.7507C235.937 26.8 237.847 25.764 239.763 24.752C240.985 24.1067 242.173 23.376 243.373 22.688C246.036 21.168 248.709 19.6694 251.319 18.0587C253.107 16.9534 254.893 15.8493 256.673 14.736C256.048 15.444 255.424 16.1534 254.799 16.8614C254.149 17.5947 253.496 18.3213 252.833 19.0427C252.119 19.8227 251.464 20.6374 250.829 21.4814C250.216 22.2947 249.772 23.2427 249.268 24.1254C248.492 25.4827 249.185 27.3267 250.735 27.728C251.297 27.8747 251.849 28.0373 252.417 28.164C252.816 28.2387 253.219 28.2747 253.624 28.272C254.027 28.2227 254.431 28.1667 254.832 28.1013C255.604 27.988 256.349 27.6574 257.059 27.356C257.789 27.044 258.495 26.696 259.197 26.3267C260.491 25.6427 261.795 24.98 263.087 24.2987C264.672 23.464 266.213 22.5493 267.755 21.6373C269.103 20.8413 270.437 20.0214 271.767 19.192C271.647 19.3147 271.525 19.436 271.403 19.5574C270.683 20.272 270.044 21.036 269.396 21.8147C268.711 22.64 268.156 23.5547 268.156 24.6653C268.156 25.2693 268.401 25.744 268.656 26.268C268.853 26.676 269.479 27.2747 269.876 27.48C269.987 27.5374 270.097 27.5934 270.208 27.6507C270.607 27.8827 271.04 28 271.503 28.0013C271.997 28.0533 272.532 28.032 273.02 27.9093C274.035 27.6507 274.976 27.1853 275.919 26.7347C276.451 26.4773 276.993 26.244 277.525 25.9854C278.108 25.7 278.672 25.3747 279.236 25.052C280.368 24.408 281.464 23.7014 282.573 23.016C282.983 22.764 283.38 22.492 283.777 22.22C283.488 22.548 283.2 22.876 282.911 23.2027C282.455 23.7173 282.001 24.232 281.545 24.7427C280.871 25.5 280.191 26.256 279.544 27.04C278.913 27.8 278.337 28.6107 277.744 29.404C277.385 29.8853 277.352 30.6734 277.505 31.228C277.656 31.7734 278.061 32.3933 278.595 32.6413C278.896 32.776 279.193 32.9227 279.484 33.08C279.821 33.224 280.161 33.3667 280.5 33.5093C280.863 33.588 281.224 33.644 281.592 33.6827C282.192 33.6574 282.775 33.576 283.371 33.4934C284.361 33.3574 285.337 32.9174 286.245 32.5187C287.201 32.1014 288.14 31.6453 289.088 31.208C289.861 30.8507 290.651 30.524 291.424 30.1693C292.411 29.7187 293.379 29.2293 294.345 28.7387C295.905 27.9453 297.481 27.144 298.997 26.268C300.14 25.6067 301.283 24.944 302.425 24.2827C302.333 24.42 302.24 24.556 302.147 24.6907C301.496 25.6374 301.743 27.136 302.561 27.8987C303.288 28.5773 303.969 29.2973 304.965 29.572C305.481 29.7147 306.091 29.7187 306.623 29.6907C307.389 29.6494 308.129 29.44 308.849 29.1947C309.364 29.0174 309.864 28.7867 310.365 28.576C310.929 28.3387 311.5 28.1227 312.06 27.8773C313.376 27.296 314.641 26.632 315.891 25.9227C317.799 24.8414 319.651 23.6734 321.467 22.452C321.363 22.84 321.312 23.2253 321.3 23.64C321.289 24.072 321.417 24.6134 321.565 25.024C321.656 25.2374 321.747 25.452 321.837 25.6653C322.029 25.92 322.227 26.1734 322.429 26.4227C322.803 26.8867 323.441 27.0467 323.971 27.248C324.208 27.28 324.447 27.3134 324.685 27.3454C325 27.3867 325.315 27.3747 325.625 27.308C326.232 27.2347 326.792 27.116 327.381 26.9587C329.579 26.3707 331.588 25.328 333.584 24.2693C335.88 23.0493 338.092 21.7067 340.309 20.352C341.875 19.396 343.407 18.384 344.956 17.4C345.076 17.3227 345.196 17.2453 345.316 17.1693C345.253 17.272 345.191 17.3747 345.128 17.4774C344.307 18.8334 344.821 20.664 346.171 21.4547C346.843 21.8467 347.659 21.9534 348.411 21.7467C349.072 21.5654 349.855 21.064 350.147 20.412C350.715 19.1454 351.237 17.8587 351.705 16.5534C351.916 15.9654 352.124 15.3787 352.332 14.7907C352.455 14.44 352.579 14.0934 352.705 13.7454C353.025 12.8854 353.124 12.0387 353.081 11.1267C353.051 10.4534 352.835 9.84404 352.349 9.3627C351.715 8.72537 350.789 8.49469 349.924 8.72003C349.12 8.93069 348.384 9.20001 347.64 9.56801C346.981 9.89468 346.375 10.36 345.753 10.752C345.149 11.1334 344.535 11.5 343.925 11.8733C342.943 12.476 341.963 13.076 340.98 13.6774C339.671 14.4747 338.367 15.28 337.051 16.068C335.559 16.96 334.072 17.8573 332.552 18.6987C331.811 19.1093 331.053 19.4907 330.304 19.8867C329.897 20.1014 329.489 20.3134 329.08 20.5187C330.184 19.1494 331.309 17.7947 332.451 16.456C334.12 14.5027 335.857 12.612 337.512 10.6467C337.82 10.3347 338.033 9.96669 338.152 9.54535C338.329 8.90002 338.239 8.19736 337.901 7.62136C337.573 7.06403 337.033 6.64668 336.408 6.47602C335.815 6.31068 335.007 6.35337 334.485 6.7267C331.759 8.68003 329.055 10.668 326.308 12.5987C324.669 13.752 323.04 14.9227 321.385 16.0507C319.381 17.42 317.381 18.784 315.296 20.02C313.968 20.8094 312.636 21.584 311.264 22.2867C311.744 21.8227 312.224 21.36 312.703 20.8973C313.753 19.8813 314.835 18.9027 315.907 17.9134C318.392 15.6214 320.857 13.2987 323.425 11.1C323.567 10.9827 323.705 10.8654 323.841 10.744C324.84 9.86668 324.735 8.19334 323.841 7.29867C323.388 6.84401 322.763 6.58402 322.12 6.58402C321.427 6.58402 320.911 6.86934 320.397 7.29867C320.247 7.42401 320.097 7.54935 319.948 7.67468C318.615 8.62935 317.205 9.48668 315.828 10.3747C314.72 11.0893 313.596 11.7814 312.48 12.4827C310.14 13.9507 307.78 15.384 305.428 16.8307C304.736 17.2547 304.027 17.6534 303.325 18.0587C301.647 19.032 299.967 20.0067 298.287 20.9827C296.927 21.772 295.556 22.536 294.171 23.2854C292.453 24.212 290.719 25.1067 288.956 25.944C288.185 26.3107 287.403 26.644 286.625 26.9934C286.049 27.252 285.485 27.5307 284.919 27.8053C285.604 27.0067 286.3 26.2147 286.988 25.4187C287.791 24.488 288.592 23.5627 289.415 22.652C290.593 21.352 291.768 20.0547 292.943 18.756C293.845 17.7587 294.777 16.7907 295.691 15.804C296.393 15.0427 297.068 14.26 297.711 13.4467C298.291 12.7147 298.82 11.944 299.369 11.1854C299.831 10.5467 299.747 9.54537 299.369 8.89604C299.165 8.55737 298.895 8.28536 298.555 8.08269C298.073 7.80136 297.347 7.64536 296.808 7.85603C296.428 7.99603 296.055 8.14668 295.684 8.30935C295.163 8.54135 294.72 8.79602 294.248 9.11335C293.727 9.46402 293.231 9.85468 292.712 10.2107C291.832 10.8107 290.951 11.4134 290.069 12.016C288.692 12.9587 287.304 13.884 285.923 14.8187C284.301 15.912 282.637 16.9494 280.996 18.0147C280.124 18.58 279.241 19.1227 278.351 19.6627C278.252 19.724 278.152 19.784 278.053 19.844C279.057 18.7733 280.071 17.712 281.083 16.6507C282.077 15.6054 283.072 14.5613 284.059 13.508C284.799 12.7187 285.541 11.928 286.281 11.1373C287.137 10.2267 287.947 9.27203 288.763 8.3227C289.064 8.02003 289.271 7.66536 289.385 7.25336C289.559 6.62803 289.469 5.94803 289.143 5.38669C288.624 4.50136 287.419 3.91201 286.405 4.27335C285.996 4.42135 285.513 4.57202 285.139 4.78402C284.476 5.16002 283.863 5.58934 283.244 6.03334C282.819 6.33867 282.373 6.61467 281.935 6.89734C281.019 7.48801 280.108 8.08267 279.191 8.66667C277.467 9.76401 275.76 10.8867 274.023 11.9614C271.848 13.3054 269.68 14.652 267.508 15.9947C265.808 17.048 264.079 18.048 262.344 19.0347C261.005 19.796 259.637 20.4907 258.267 21.188C257.699 21.4774 257.14 21.7827 256.579 22.08C256.937 21.676 257.297 21.272 257.652 20.864C258.241 20.1893 258.829 19.5133 259.419 18.836C260.236 17.8973 261.053 16.9614 261.867 16.0214C263.088 14.6067 264.309 13.1934 265.529 11.7787C266.088 11.1334 266.648 10.4933 267.228 9.87068C267.868 9.18534 268.452 8.47468 269.023 7.73601C269.535 7.06801 269.857 6.30937 270.044 5.4947C270.237 4.66804 270.053 3.81601 269.44 3.20401C268.707 2.47201 267.481 2.27734 266.585 2.83601C260.953 6.34801 255.327 9.86668 249.652 13.3093C248.661 13.9093 247.683 14.5373 246.675 15.1067C245.133 15.9773 243.593 16.8494 242.052 17.7187C237.676 20.1934 233.3 22.7 228.688 24.7174C229.427 24.08 230.171 23.448 230.908 22.8093C233.003 20.9933 235.131 19.2094 237.249 17.4214C239.787 15.284 242.32 13.1467 244.857 11.012C246.088 9.97735 247.309 8.9307 248.537 7.89203C249.339 7.2107 250.143 6.53467 250.952 5.86534C250.969 5.85334 250.988 5.84137 251.005 5.82937C251.869 5.2307 252.667 4.55736 253.443 3.85203C254.185 3.17336 254.288 1.96403 253.793 1.12003C253.499 0.616026 253.011 0.23869 252.447 0.0840231C252.253 0.0306898 252.032 6.22231e-06 251.807 6.22231e-06C251.411 6.22231e-06 251.001 0.0920166 250.708 0.310683C249.703 1.06268 248.669 1.79204 247.704 2.5947C247.301 2.92937 246.899 3.26401 246.496 3.59867C245.277 4.42401 244.043 5.22936 242.824 6.04802C241.364 7.02802 239.879 7.97601 238.407 8.94001C235.173 11.052 231.9 13.1 228.632 15.16C227.577 15.824 226.533 16.5134 225.456 17.148C223.623 18.2294 221.788 19.3094 219.956 20.3907C218.004 21.5414 216.051 22.692 214.099 23.844C213.164 24.3933 212.208 24.904 211.259 25.4267C208.907 26.7214 206.541 27.98 204.08 29.048C203.111 29.4374 202.139 29.7747 201.139 30.06C201.193 30.0054 201.249 29.9494 201.303 29.8934C201.705 29.48 202.108 29.068 202.511 28.6547C203.399 27.7427 204.265 26.808 205.173 25.9187C207.033 24.0987 208.901 22.2893 210.765 20.4733C212.496 18.792 214.267 17.1547 216.019 15.4947C216.764 14.788 217.512 14.0827 218.253 13.3733C219.424 12.2507 220.631 11.172 221.772 10.0187C222.313 9.47336 222.824 8.89603 223.292 8.28803C223.783 7.64936 224.212 6.97601 224.659 6.30668C225.567 4.93868 224.064 2.97468 222.505 3.50668C221.335 3.90668 220.208 4.33601 219.104 4.90134C218.292 5.31468 217.513 5.79069 216.709 6.21869C215.479 6.87603 214.245 7.53069 213.013 8.18669C211.207 9.14936 209.399 10.112 207.592 11.072C205.973 11.9333 204.343 12.7707 202.711 13.6067C199.649 15.176 196.6 16.7813 193.449 18.164C192.761 18.444 192.071 18.7053 191.368 18.936C191.56 18.6907 191.751 18.4467 191.941 18.2013C192.796 17.104 193.672 16.0227 194.536 14.936C195.407 13.84 196.281 12.7454 197.152 11.6507C197.703 10.9574 198.253 10.2627 198.805 9.57201C199.283 8.97868 199.744 8.37601 200.199 7.76667C200.815 6.94001 201.268 6.04536 201.729 5.12403C202.073 4.42936 202.135 3.66268 201.729 2.97068C201.277 2.19868 200.204 1.65869 199.319 1.98803C198.639 2.24136 197.991 2.50802 197.369 2.88002C196.872 3.18002 196.421 3.57735 195.949 3.91069C195.375 4.31869 194.799 4.72137 194.224 5.1267C193.18 5.8627 192.131 6.59203 191.083 7.3227C188.863 8.8707 186.621 10.3867 184.383 11.9067C182.149 13.428 179.847 14.86 177.581 16.3347C175.433 17.7307 173.239 19.0653 171.033 20.3667C169.579 21.2213 168.088 22.0094 166.609 22.8174C165.091 23.648 163.589 24.5014 162.013 25.2214C161.932 25.2547 161.849 25.288 161.768 25.32C162.088 24.928 162.407 24.536 162.719 24.1387C163.483 23.1707 164.245 22.2 165.011 21.232C166.169 19.7573 167.359 18.3094 168.533 16.8507C169.523 15.628 170.503 14.4 171.481 13.1693C172.245 12.2093 173.012 11.2467 173.777 10.284C174.884 8.89469 175.881 7.42668 176.9 5.96934C177.248 5.47601 177.292 4.72801 177.137 4.16401C176.988 3.62934 176.585 3.00267 176.059 2.76401C175.701 2.60001 175.353 2.43202 174.968 2.34802C174.225 2.18269 173.467 2.33203 172.799 2.68403C171.901 3.15602 171.197 3.88003 170.428 4.52403C167.239 6.8227 164.028 9.09069 160.769 11.2867C158.791 12.6214 156.811 13.952 154.835 15.288C152.273 17.0174 149.657 18.6813 147.007 20.268C146.061 20.832 145.101 21.3734 144.152 21.9294C144.685 21.372 145.22 20.8147 145.755 20.2574C146.985 18.976 148.217 17.6947 149.447 16.4147C150.224 15.6054 150.995 14.7947 151.767 13.98C152.456 13.2507 153.112 12.492 153.737 11.7067C154.284 11.0173 154.733 10.2827 155.197 9.53734C155.792 8.58268 155.585 7.27867 154.805 6.50001C154.495 6.18801 154.124 5.97336 153.701 5.8547C153.107 5.6907 152.287 5.73068 151.768 6.10535C150.165 7.27335 148.601 8.48401 147.037 9.69867C145.64 10.7653 144.248 11.8414 142.829 12.884C141.664 13.7414 140.5 14.6014 139.335 15.4587C138.788 15.8627 138.248 16.2787 137.687 16.66C135.572 18.0947 133.455 19.5307 131.34 20.9667C129.883 21.956 128.375 22.8734 126.867 23.7814C125.767 24.4427 124.651 25.068 123.515 25.664C124.215 24.8787 124.913 24.0947 125.615 23.3093C127.012 21.74 128.443 20.2014 129.857 18.6494C131.08 17.3067 132.337 15.9974 133.583 14.6774C134.292 13.928 135 13.1774 135.708 12.428C137.175 10.8734 138.929 9.60269 140.052 7.74936C140.616 6.81602 140.435 5.56534 139.669 4.80001C138.923 4.05334 137.635 3.8307 136.723 4.42136C133.093 6.7627 129.417 9.02937 125.739 11.296C123.889 12.4374 122.04 13.576 120.191 14.72C118.12 15.9987 116.024 17.2507 113.912 18.4614C112.767 19.1174 111.597 19.728 110.42 20.3254C109.199 20.9467 107.977 21.5587 106.723 22.112C106.196 22.3214 105.667 22.516 105.127 22.6987C104.428 22.9347 103.713 23.0814 102.988 23.196C102.912 23.204 102.836 23.212 102.76 23.22C103.118 22.8267 103.478 22.4334 103.817 22.024C104.374 21.3494 104.93 20.676 105.489 20.0013C106.256 19.072 107.023 18.1454 107.805 17.2267C108.886 15.9507 109.968 14.6733 111.051 13.4C112.045 12.2267 113.064 11.0733 114.056 9.89867C114.735 9.09734 115.38 8.26536 116.007 7.42136C116.592 6.63603 117.117 5.80668 117.672 5.00134C118.285 4.11068 118.021 2.78937 117.292 2.06003C116.531 1.2987 115.285 1.11869 114.353 1.68269C113.683 2.08669 113.009 2.48669 112.351 2.91202C111.512 3.45469 110.716 4.06136 109.916 4.65736C109.251 5.15203 108.586 5.64404 107.913 6.12804C106.391 7.22537 104.866 8.32269 103.343 9.41869C100.929 11.1547 98.4944 12.8573 96.0672 14.5747C93.9146 16.0973 91.7048 17.536 89.5068 18.9947C88.1005 19.9267 86.6948 20.86 85.2886 21.7934C84.525 22.2987 83.736 22.7653 82.9562 23.2427C82.3808 23.5987 81.8016 23.9454 81.2168 24.2814C84.9693 19.6467 88.801 15.0774 92.6808 10.5494C93.0844 10.0774 93.3433 9.58269 93.3433 8.94669C93.3433 8.34802 93.1048 7.76668 92.6808 7.34402C91.7772 6.44135 90.3892 6.51468 89.4772 7.34402C88.7277 8.02668 87.9985 8.73869 87.2152 9.38002C86.7693 9.74535 86.3256 10.1093 85.8813 10.4733C85.1261 11.092 84.3766 11.7187 83.6157 12.3267C81.9177 13.6867 80.2204 15.048 78.5229 16.4053C76.3688 18.0267 74.2177 19.6493 72.0652 21.2707C70.3433 22.568 68.5474 23.7667 66.7458 24.9507C65.3272 25.8827 63.8652 26.7413 62.4048 27.6053C60.9256 28.4787 59.4417 29.328 57.8838 30.044C58.7386 28.9347 59.5849 27.8187 60.4338 26.7027C62.2146 24.4867 63.9756 22.2547 65.8297 20.096C67.2157 18.4827 68.6021 16.8667 69.9901 15.252C70.6933 14.4334 71.4182 13.6307 72.1433 12.8294C72.6094 12.312 73.0838 11.8027 73.5657 11.3C73.736 11.1653 73.9058 11.032 74.0766 10.8987C74.5589 10.524 75.0386 10.148 75.5084 9.7547C75.9938 9.34403 76.3797 8.85601 76.7797 8.36667C77.063 8.08001 77.2594 7.7427 77.3682 7.35736C77.5313 6.7667 77.4464 6.1227 77.137 5.5947C76.8376 5.08137 76.3417 4.70002 75.7714 4.54402C75.2428 4.39735 74.463 4.42135 74.0073 4.77201C73.5756 5.10535 73.1376 5.43335 72.7073 5.77068C72.1032 6.24401 71.5485 6.7547 70.9944 7.28803C70.5636 7.70403 70.1448 8.13201 69.7324 8.56801C68.9578 9.16934 68.1838 9.77201 67.41 10.3733C65.8068 11.5573 64.2021 12.7427 62.5996 13.9267C61.3078 14.88 59.9677 15.7707 58.6521 16.6854C56.9714 17.8574 55.31 19.06 53.598 20.184C51.4589 21.588 49.3261 22.992 47.1261 24.2987C46.0453 24.9427 44.9344 25.5307 43.8214 26.116C42.6808 26.7147 41.5553 27.332 40.3818 27.868C39.7469 28.112 39.1152 28.316 38.4573 28.4693C38.56 28.3093 38.6662 28.152 38.7792 27.9934C39.6802 26.84 40.5693 25.684 41.4376 24.504C42.1344 23.556 42.8157 22.592 43.5324 21.6574C44.9381 19.832 46.3417 18.0027 47.748 16.176C48.7349 14.9093 49.7272 13.6467 50.7157 12.3787C51.2438 11.7054 51.7709 11.0294 52.2985 10.3547C53.122 9.30136 53.8433 8.18401 54.5824 7.07068C55.1313 6.24801 54.91 5.06003 54.2376 4.38669C53.5704 3.72003 52.3668 3.48535 51.551 4.03868C50.812 4.54535 50.0652 5.03737 49.36 5.5947C48.936 5.92937 48.512 6.26267 48.0881 6.59867C47.3652 7.17067 46.6444 7.74535 45.9172 8.31335C44.3037 9.57869 42.6892 10.844 41.0745 12.1107C39.1334 13.592 37.1944 15.076 35.2542 16.56C33.6334 17.7987 31.9756 18.992 30.3089 20.1653C29.7229 20.5787 29.1292 20.9773 28.5329 21.3733C29.0324 20.6893 29.5329 20.0054 30.0318 19.32C31.0016 17.984 31.9677 16.6427 32.9338 15.304C33.5168 14.4987 34.0953 13.6894 34.6777 12.884C35.3026 12.024 35.9005 11.152 36.4594 10.2467C37.1105 9.18935 37.5177 8.00667 37.9838 6.86401C38.099 6.43734 38.099 6.01203 37.9838 5.58536C37.8693 5.17869 37.6652 4.82403 37.3657 4.5227C36.5901 3.74803 35.4005 3.62136 34.451 4.14802C33.7234 4.55069 33.0209 4.94935 32.3474 5.44535C31.5261 6.05335 30.7688 6.74002 30.0037 7.41602C29.4026 7.94802 28.7777 8.45602 28.1652 8.97468C27.1548 9.82402 26.1464 10.6787 25.136 11.5254C21.6026 14.4854 18.098 17.488 14.4745 20.3333C13.3225 21.216 12.1578 22.084 10.9964 22.9534C10.4376 23.372 9.86929 23.7787 9.28809 24.1614C9.76249 23.3587 10.2381 22.556 10.713 21.7547C11.6594 20.1574 12.6338 18.576 13.5917 16.9894C14.4876 15.5094 15.36 14.0134 16.2392 12.524C16.7297 11.6987 17.2073 10.8627 17.7256 10.0547C18.3141 9.1387 18.911 8.26936 19.3168 7.25336C19.5094 6.77469 19.7444 6.23735 19.7245 5.70668C19.7062 5.28001 19.6464 4.86669 19.574 4.44669C19.4448 3.71735 18.7266 3.10669 18.0453 2.92003C17.3261 2.72136 16.4281 2.90936 15.9177 3.48269C13.8917 5.75469 11.9334 8.08268 9.96409 10.404C9.74582 10.3293 9.51622 10.2907 9.28289 10.2907C8.77249 10.2907 8.11142 10.4987 7.77662 10.9147C6.62342 12.3534 5.46462 13.784 4.33955 15.244C2.97969 17.012 1.64529 18.7973 0.300087 20.5747C-0.145779 21.164 -0.0515125 22.1294 0.300087 22.7294C0.653688 23.3334 1.41049 23.8454 2.13955 23.7827C2.46515 23.764 2.78702 23.7253 3.10782 23.6733C3.51675 23.5747 3.85475 23.4307 4.20422 23.2307C3.78022 23.8787 3.31715 24.4933 2.94689 25.1773C2.66355 25.7013 2.50729 26.256 2.39689 26.8347C2.27662 27.4707 2.28435 28.1187 2.25995 28.7614C2.20009 30.372 3.89955 31.6093 5.41569 31.1653C6.63129 30.8093 7.85475 30.5307 9.02195 30.0307C10.1105 29.564 11.1073 28.964 12.0933 28.3067Z" fill="#211E1E"/>
</svg>
