<svg width="353" height="58" viewBox="0 0 353 58" fill="none" xmlns="http://www.w3.org/2000/svg">
<path d="M25.9694 23.3572C26.1131 22.4572 26.2923 21.5705 26.521 20.6865C26.7846 19.6638 27.147 18.6665 27.5439 17.6879C28.3773 15.8439 29.3491 14.0798 30.5283 12.4318C31.3273 11.4558 32.1986 10.5785 33.1699 9.77316C33.8851 9.26516 34.6163 8.82253 35.4033 8.44653C35.9663 8.25053 36.5278 8.0985 37.1131 7.98116C37.6903 7.9305 38.2575 7.92251 38.8366 7.96385C39.2663 8.06118 39.6778 8.18117 40.0965 8.32517C40.6465 8.58651 41.1617 8.87984 41.6617 9.22784C42.0751 9.59584 42.4554 9.97981 42.8185 10.3958C43.1543 10.8745 43.4455 11.3639 43.6981 11.8879C43.8685 12.4012 43.9997 12.9051 44.097 13.4291C44.1147 13.7811 44.1127 14.1185 44.0893 14.4651C43.971 14.9918 43.8158 15.4932 43.6251 15.9945C43.3409 16.5705 43.0194 17.0985 42.647 17.6212C39.1961 21.9039 35.2507 25.7385 30.9267 29.1372C29.4231 30.2892 27.8893 31.4065 26.3242 32.4799C26.1965 31.8839 26.0846 31.2825 25.9877 30.6772C25.7079 28.2345 25.6997 25.8012 25.9694 23.3572ZM64.9012 29.9172C65.033 29.0732 65.1923 28.2385 65.3887 27.4038C65.6273 26.3958 65.9699 25.4105 66.346 24.4439C66.7136 23.6505 67.1237 22.8972 67.6122 22.1732C67.9351 21.8052 68.2737 21.4612 68.6366 21.1278C68.8257 21.0012 69.0174 20.8825 69.2158 20.7651C69.3653 20.7211 69.5158 20.6798 69.6689 20.6452C69.9611 20.6318 70.2497 20.6318 70.5403 20.6478C70.6043 20.6638 70.6674 20.6798 70.7303 20.6985C70.9257 20.8851 71.1101 21.0772 71.2893 21.2799C71.4945 21.6039 71.6803 21.9292 71.8559 22.2692C72.0475 22.8225 72.1996 23.3759 72.3131 23.9492C72.3616 24.7905 72.3392 25.6159 72.2642 26.4545C72.0007 28.0039 71.5846 29.4985 71.0267 30.9719C69.9903 33.2492 68.6622 35.3545 67.1674 37.3612C66.5585 38.1198 65.9257 38.8518 65.2685 39.5598C65.0835 38.8358 64.9298 38.1038 64.8022 37.3612C64.5475 34.8798 64.6278 32.3972 64.9012 29.9172ZM103.639 29.8011C103.96 27.6318 104.396 25.4892 105.17 23.4372C105.696 22.3492 106.318 21.3385 107.026 20.3598C107.846 19.3425 108.717 18.3745 109.708 17.5239C109.94 17.3732 110.17 17.2345 110.411 17.1052C110.331 17.3145 110.249 17.5211 110.166 17.7291C109.375 19.5158 108.522 21.2745 107.688 23.0412C106.389 25.7945 105.05 28.5332 103.508 31.1532C103.544 30.7025 103.588 30.2518 103.639 29.8011ZM110.664 16.4038C110.663 16.4065 110.662 16.4078 110.662 16.4092C110.63 16.3852 110.599 16.3612 110.568 16.3372C110.601 16.3585 110.632 16.3812 110.664 16.4038ZM110.81 15.9505C110.81 15.9532 110.81 15.9545 110.808 15.9558C110.796 15.8638 110.784 15.7705 110.771 15.6772C110.789 15.7679 110.802 15.8598 110.81 15.9505ZM110.791 16.5092C110.789 16.5078 110.787 16.5065 110.784 16.5038C110.785 16.5012 110.785 16.4985 110.785 16.4972C110.787 16.4985 110.79 16.4999 110.792 16.5025C110.792 16.5052 110.791 16.5065 110.791 16.5092ZM111.078 16.9118C111.101 16.9665 111.123 17.0212 111.143 17.0758C111.119 17.0225 111.096 16.9679 111.074 16.9132C111.075 16.9132 111.076 16.9132 111.078 16.9118ZM137.245 23.1398C137.488 21.5265 137.824 19.9278 138.386 18.3958C138.618 17.9291 138.872 17.4918 139.161 17.0612C139.461 16.7185 139.773 16.4038 140.114 16.1038C140.236 16.0252 140.361 15.9519 140.488 15.8825C140.529 15.8692 140.57 15.8558 140.612 15.8425C140.74 15.9692 140.866 16.0985 140.989 16.2345C141.226 16.5945 141.434 16.9585 141.633 17.3492C141.854 17.9239 142.04 18.5025 142.177 19.1079C142.21 19.6199 142.209 20.1238 142.18 20.6398C141.917 22.0678 141.45 23.4265 140.905 24.7758C139.916 27.0585 138.802 29.2732 137.58 31.4439C137.566 31.4665 137.553 31.4918 137.54 31.5145C137.43 30.9825 137.34 30.4465 137.26 29.9092C137.018 27.6492 137.008 25.4012 137.245 23.1398ZM183.477 22.2252C183.777 20.2932 184.229 18.3958 184.924 16.5651C185.233 15.9185 185.578 15.3105 185.981 14.7185C186.205 14.4599 186.436 14.2158 186.684 13.9758C186.796 13.9038 186.909 13.8345 187.025 13.7692C187.064 13.9599 187.098 14.1519 187.129 14.3439C187.296 15.7999 187.314 17.2345 187.186 18.6918C186.948 20.0438 186.545 21.3318 186.046 22.6118C185.281 24.3132 184.36 25.9198 183.372 27.5065C183.365 27.5172 183.358 27.5279 183.35 27.5385C183.324 27.1412 183.302 26.7425 183.288 26.3439C183.232 24.9665 183.322 23.5918 183.477 22.2252ZM186.993 13.6305C186.993 13.6318 186.993 13.6318 186.993 13.6318C186.982 13.6331 186.972 13.6345 186.961 13.6359C186.972 13.6332 186.982 13.6318 186.993 13.6305ZM224.733 25.3425C224.902 24.2278 225.117 23.1278 225.382 22.0305C225.692 20.7585 226.128 19.5305 226.614 18.3198C227.026 17.4052 227.485 16.5385 228.053 15.7105C228.294 15.4265 228.542 15.1558 228.809 14.8972C228.818 14.9158 228.826 14.9345 228.836 14.9545C229.078 15.6612 229.26 16.3732 229.388 17.1038C229.44 17.9865 229.418 18.8478 229.337 19.7252C229.028 21.5772 228.5 23.3518 227.809 25.0972C226.886 27.1385 225.765 29.0825 224.604 30.9972C224.553 30.3225 224.522 29.6451 224.512 28.9651C224.493 27.7545 224.596 26.5438 224.733 25.3425ZM228.784 14.8465C228.754 14.8705 228.724 14.8945 228.693 14.9172C228.724 14.8932 228.753 14.8705 228.784 14.8465ZM266.272 17.0705C266.593 14.8438 267.009 12.6518 267.804 10.5398C268.252 9.55182 268.761 8.61982 269.388 7.73448C269.768 7.29315 270.16 6.87716 270.586 6.48116C270.712 6.39716 270.84 6.31719 270.97 6.24119C271.017 6.32386 271.062 6.40654 271.105 6.49054C271.305 7.07987 271.449 7.67186 271.556 8.28253C271.641 9.27853 271.646 10.2545 271.562 11.2519C271.042 14.4612 270.012 17.5732 268.79 20.5785C268.19 21.9372 267.528 23.2585 266.78 24.5452C266.576 24.8958 266.364 25.2425 266.146 25.5852C265.848 22.7505 265.937 19.9012 266.272 17.0705ZM296.71 16.3252C297.017 14.2798 297.438 12.2505 298.182 10.3198C298.521 9.61984 298.896 8.95583 299.329 8.31183C299.612 7.97983 299.908 7.67052 300.233 7.37452C300.472 7.21319 300.714 7.06517 300.972 6.92517C301.084 6.89051 301.197 6.85982 301.31 6.83448C301.337 6.83315 301.362 6.83318 301.389 6.83318C301.4 6.84252 301.409 6.85318 301.418 6.86385C301.528 7.03851 301.628 7.21581 301.718 7.39848C301.754 7.50248 301.785 7.60649 301.813 7.71183C301.826 7.96383 301.828 8.21185 301.818 8.46651C301.604 9.40385 301.268 10.3065 300.902 11.1945C300.117 12.9998 299.312 14.7945 298.472 16.5745C297.868 17.8585 297.222 19.1185 296.549 20.3638C296.53 19.9852 296.52 19.6052 296.517 19.2239C296.508 18.2545 296.6 17.2865 296.71 16.3252ZM301.586 7.05187C301.653 7.1332 301.718 7.21852 301.778 7.30519C301.78 7.30919 301.78 7.3132 301.78 7.31853C301.72 7.23987 301.66 7.1625 301.6 7.08383C301.604 7.0945 301.608 7.10386 301.612 7.11319C301.608 7.10386 301.604 7.09317 301.6 7.08383C301.561 7.03317 301.521 6.98248 301.482 6.93181C301.517 6.97048 301.552 7.01053 301.586 7.05187ZM301.842 7.39848C301.822 7.37315 301.804 7.34917 301.785 7.3225C301.784 7.31984 301.784 7.31453 301.782 7.31053C301.802 7.33986 301.822 7.36915 301.842 7.39848ZM319.349 18.1612C319.617 16.5572 320.05 15.0212 320.637 13.5052C320.964 12.8145 321.325 12.1625 321.753 11.5291C321.901 11.3571 322.053 11.1918 322.214 11.0305C322.266 11.0158 322.32 11.0012 322.373 10.9892C322.422 10.9865 322.473 10.9865 322.522 10.9865C322.646 11.0158 322.768 11.0492 322.889 11.0879C322.904 11.0959 322.917 11.1038 322.93 11.1118C323.529 11.6558 324.088 12.2185 324.614 12.8291C325.094 13.5011 325.522 14.1891 325.904 14.9265C325.996 15.1905 326.074 15.4531 326.142 15.7291C326.152 15.9211 326.154 16.1105 326.149 16.3038C326.03 16.8198 325.864 17.3145 325.673 17.8079C324.897 19.4585 324.021 21.0545 323.076 22.6172C322.162 24.1225 321.258 25.6425 320.289 27.1145C319.882 25.9238 319.582 24.7131 319.373 23.4625C319.188 21.6918 319.177 19.9372 319.349 18.1612ZM21.3341 39.1772C21.6715 40.0825 22.045 40.9758 22.4413 41.8612C23.5423 44.3172 25.1027 46.5332 26.8309 48.5865C28.4319 50.4918 30.4382 52.0772 32.5075 53.4439C33.5033 54.1025 34.5803 54.6251 35.6715 55.1038C37.0731 55.7211 38.4975 56.2292 39.9819 56.6052C42.4409 57.2265 45.0038 57.3252 47.5153 57.0732C50.2627 56.7998 52.9382 56.1772 55.5059 55.1612C57.8841 54.2185 60.1403 53.0332 62.3152 51.6892C62.4532 51.6038 62.5893 51.5185 62.7251 51.4305C63.0341 51.7665 63.3538 52.0932 63.6898 52.4105C64.6278 53.2945 65.7002 54.0638 66.771 54.7812C68.0079 55.6105 69.4065 56.1892 70.7903 56.7185C72.0961 57.2159 73.4961 57.4171 74.8726 57.5958C76.1131 57.7558 77.3412 57.8132 78.5923 57.7665C80.0142 57.7132 81.4507 57.4492 82.8387 57.1452C84.3131 56.8225 85.7455 56.3051 87.1538 55.7705C91.683 54.0478 95.7705 51.3825 99.457 48.2625C99.9465 49.1651 100.569 49.9945 101.207 50.7958C101.928 51.6971 102.704 52.5105 103.591 53.2532C104.696 54.1772 105.886 54.8959 107.2 55.4745C108.364 55.9865 109.531 56.3878 110.773 56.6612C112.018 56.9372 113.314 57.0332 114.586 57.0065C115.905 56.9812 117.245 56.7345 118.539 56.4785C119.904 56.2092 121.227 55.7878 122.516 55.2678C127.392 53.3011 131.646 50.1385 135.154 46.2452C135.685 45.6585 136.202 45.0572 136.706 44.4452C137.214 45.0452 137.744 45.6225 138.282 46.1799C139.137 47.0639 140.078 47.8585 141.05 48.6105C142.278 49.5599 143.544 50.4145 144.905 51.1651C146.086 51.8185 147.346 52.3345 148.596 52.8371C149.872 53.3518 151.2 53.6318 152.56 53.7972C155.36 54.1345 158.141 53.8091 160.902 53.2985C163.422 52.8305 165.809 51.8905 168.157 50.8958C170.648 49.8398 172.981 48.4532 175.18 46.8852C177.138 45.4892 178.944 43.9225 180.621 42.2038C180.828 42.6691 181.042 43.1319 181.265 43.5905C181.896 44.8919 182.705 46.0732 183.594 47.2105C184.308 48.1225 185.073 48.9678 185.914 49.7651C186.798 50.6038 187.801 51.3345 188.808 52.0159C189.757 52.6585 190.792 53.1665 191.842 53.6198C193.188 54.2025 194.537 54.6425 195.973 54.9398C198.473 55.4585 201.033 55.5199 203.562 55.2079C204.913 55.0412 206.232 54.7892 207.542 54.4212C209.04 54.0012 210.482 53.3532 211.886 52.7025C214.244 51.6078 216.353 50.1052 218.374 48.4865C219.941 47.2278 221.405 45.8172 222.764 44.3239C223.006 44.6372 223.254 44.9465 223.498 45.2532C224.278 46.2305 225.218 47.0438 226.209 47.7972C228.256 49.3492 230.632 50.4438 233.121 51.0785C234.406 51.4065 235.768 51.5332 237.09 51.6278C238.325 51.7132 239.568 51.6292 240.794 51.4785C242.154 51.3118 243.47 51.0425 244.79 50.6732C246.218 50.2732 247.604 49.7292 248.98 49.1785C251.38 48.2198 253.677 47.0692 255.874 45.7105C258.289 44.2159 260.5 42.3772 262.588 40.4558C263.512 39.6065 264.4 38.7198 265.257 37.8038C265.506 38.0318 265.764 38.2545 266.03 38.4719C267.026 39.2839 268.073 39.9625 269.222 40.5398C270.372 41.1158 271.602 41.5638 272.828 41.9452C274.073 42.3332 275.378 42.4838 276.669 42.6425C278.145 42.8212 279.636 42.6905 281.1 42.4678C282.256 42.2905 283.366 42.0212 284.47 41.6465C285.674 41.2372 286.84 40.6851 287.964 40.0985C289.014 39.5531 289.994 38.8799 290.945 38.1772C292.16 37.2732 293.301 36.2932 294.388 35.2398C294.59 35.0438 294.789 34.8425 294.985 34.6385C295.05 34.7212 295.116 34.8039 295.181 34.8852C296.041 35.9572 297.056 36.9012 298.11 37.7785C299.109 38.6078 300.164 39.3438 301.306 39.9532C301.904 40.2718 302.548 40.5011 303.173 40.7598C303.69 40.9771 304.233 41.1265 304.773 41.2758C306.017 41.6198 307.342 41.7518 308.626 41.8065C310.185 41.8705 311.79 41.5932 313.314 41.3172C314.558 41.0892 315.749 40.6652 316.901 40.1532C317.673 39.8105 318.378 39.3972 319.061 38.9252C319.409 39.2158 319.766 39.4918 320.128 39.7638C320.954 40.3798 321.805 40.9252 322.702 41.4332C323.694 41.9972 324.765 42.4159 325.816 42.8519C328.068 43.7852 330.458 44.1252 332.856 44.4439C334.889 44.7159 336.976 44.7078 339.022 44.6252C340.196 44.5785 341.357 44.4318 342.522 44.3011C344.401 44.0945 346.242 43.7692 348.03 43.1439C348.492 42.9732 348.946 42.7865 349.396 42.5838C349.969 42.2732 350.454 41.8572 350.961 41.4492C351.166 41.1852 351.37 40.9212 351.576 40.6558C351.905 40.2798 352.13 39.8465 352.25 39.3492C352.35 38.8012 352.421 38.2492 352.477 37.6972C352.476 37.0078 352.301 36.3651 351.956 35.7678C351.457 34.9158 350.628 34.2772 349.676 34.0145C348.689 33.7425 347.614 33.8838 346.733 34.3998C346.268 34.6718 345.832 35.0678 345.504 35.5318C345.318 35.5838 345.132 35.6345 344.945 35.6879C344.033 35.9479 343.104 36.1305 342.17 36.2892C341.561 36.3625 340.953 36.4345 340.345 36.5079C339.054 36.6639 337.733 36.6625 336.436 36.6585C335.198 36.6532 333.969 36.5839 332.741 36.4465C331.896 36.3145 331.058 36.1532 330.225 35.9505C329.421 35.7558 328.638 35.4825 327.869 35.1825C326.772 34.6732 325.728 34.0879 324.73 33.4105C325.028 33.0065 325.317 32.5972 325.598 32.1865C326.857 30.3492 327.925 28.3745 328.985 26.4172C329.928 24.6772 330.778 22.8945 331.528 21.0625C332.106 19.6438 332.649 18.2105 332.741 16.6612C332.8 15.6705 332.672 14.7158 332.49 13.7398C332.368 13.0852 332.062 12.4305 331.796 11.8318C331.585 11.3571 331.365 10.8972 331.121 10.4412C330.6 9.47186 329.957 8.58384 329.28 7.71984C328.676 6.94784 328.042 6.21049 327.296 5.57316C326.432 4.83316 325.484 4.40115 324.416 4.02915C324.237 3.99448 324.057 3.95584 323.878 3.91984C323.376 3.83717 322.873 3.77716 322.364 3.73982C321.68 3.67982 320.966 3.87186 320.293 3.97719C319.798 4.09453 319.322 4.26782 318.869 4.50382C318.252 4.79315 317.722 5.15052 317.204 5.60786C316.432 6.29186 315.836 7.0932 315.214 7.91586C314.602 8.72653 314.174 9.66651 313.769 10.5918C313.229 11.8238 312.762 13.0705 312.394 14.3651C312.077 15.4825 311.917 16.6385 311.774 17.7879C311.613 19.0772 311.54 20.3532 311.554 21.6532C311.569 22.8052 311.724 23.9611 311.882 25.1011C312.05 26.2945 312.289 27.4585 312.62 28.6172C312.941 29.7438 313.428 30.8172 313.888 31.8892C314.068 32.3092 314.269 32.7185 314.485 33.1212C314.198 33.2892 313.905 33.4505 313.602 33.5985C312.51 33.9918 311.397 34.2505 310.253 34.4358C309.293 34.5225 308.356 34.5412 307.404 34.4612C306.558 34.3012 305.742 34.0825 304.934 33.7931C304.125 33.4025 303.37 32.9452 302.633 32.4239C301.536 31.5185 300.538 30.5291 299.626 29.4345C299.533 29.3025 299.44 29.1692 299.35 29.0358C300.789 26.8958 302.002 24.5985 303.122 22.2812C304.44 19.5572 305.574 16.7225 306.636 13.8865C307.025 12.8478 307.369 11.8051 307.656 10.7318C307.992 9.48648 308.036 8.17586 307.822 6.91053C307.632 5.76919 307.166 4.7385 306.569 3.7505C306.244 3.20783 305.762 2.70649 305.301 2.27583C304.658 1.67316 303.905 1.35186 303.094 1.04386C302.576 0.849193 301.965 0.849187 301.417 0.805187C301.218 0.819854 301.017 0.831859 300.816 0.843859C300.342 0.890526 299.874 0.966489 299.41 1.07316C298.797 1.19716 298.201 1.53449 297.642 1.80382C297.101 2.06515 296.585 2.48648 296.128 2.86248C295.706 3.20781 295.332 3.56118 294.96 3.96118C294.534 4.42118 294.173 4.95184 293.801 5.45584C292.964 6.5945 292.428 7.93048 291.904 9.23181C291.448 10.3691 291.166 11.5785 290.894 12.7705C290.598 14.0678 290.38 15.3825 290.216 16.7052C290.064 17.9505 289.984 19.1852 289.99 20.4412C290.001 21.9319 290.206 23.4198 290.446 24.8865C290.634 26.0385 290.95 27.1798 291.357 28.2892C290.156 29.6852 288.853 30.9679 287.424 32.1439C286.09 33.1239 284.689 33.9705 283.188 34.6705C282.04 35.1092 280.876 35.4372 279.665 35.6545C278.596 35.7519 277.541 35.7492 276.468 35.6532C275.201 35.4305 273.982 35.0878 272.776 34.6358C271.929 34.2425 271.129 33.7945 270.356 33.2612C270.096 33.0438 269.844 32.8212 269.598 32.5918C270.576 31.2705 271.497 29.9065 272.348 28.4998C273.674 26.3105 274.67 23.9345 275.57 21.5439C276.541 18.9732 277.245 16.3159 277.71 13.6079C277.932 12.3239 278.053 11.0358 278.029 9.73448C278.006 8.50115 277.793 7.24119 277.534 6.03852C277.424 5.51852 277.229 5.02381 277.034 4.53181C276.817 3.99181 276.59 3.47982 276.304 2.97316C276.214 2.85449 276.126 2.73583 276.038 2.61717C275.788 2.23983 275.496 1.89848 275.16 1.59314C274.805 1.31448 274.442 1.03848 274.08 0.767818C273.676 0.574484 273.268 0.394479 272.852 0.229146C272.221 0.103812 271.605 0.0198488 270.961 -0.000151178C270.78 0.0198488 270.594 0.0424816 270.412 0.0651483C269.956 0.083815 269.514 0.169167 269.084 0.317167C268.508 0.4825 267.929 0.815815 267.422 1.13181C266.892 1.46248 266.408 1.9065 265.944 2.3225C265.042 3.1265 264.302 4.1665 263.618 5.1505C262.76 6.3825 262.202 7.81852 261.644 9.19985C260.69 11.5572 260.325 14.1611 259.978 16.6651C259.593 19.4598 259.445 22.2452 259.597 25.0612C259.724 27.4705 260.253 29.7932 261.168 32.0132C259.193 34.1852 257.054 36.2065 254.752 38.0345C252.35 39.8051 249.784 41.2878 247.058 42.4998C244.813 43.4212 242.538 44.2345 240.142 44.6665C238.676 44.8185 237.222 44.8292 235.754 44.6879C234.654 44.4919 233.6 44.2052 232.556 43.8172C231.609 43.3772 230.714 42.8718 229.856 42.2758C229.074 41.6172 228.377 40.8958 227.726 40.1092C227.469 39.7505 227.224 39.3878 226.985 39.0172C227.561 38.2025 228.121 37.3759 228.668 36.5465C230.14 34.3052 231.44 31.9359 232.589 29.5159C233.705 27.1585 234.533 24.6892 235.009 22.1252C235.25 20.8212 235.369 19.4918 235.378 18.1651C235.389 16.6545 235.077 15.1265 234.64 13.6879C234.464 13.1119 234.197 12.5652 233.958 12.0132C233.788 11.6145 233.57 11.2678 233.314 10.9198C232.978 10.4678 232.685 10.1225 232.261 9.77049C231.825 9.41049 231.19 8.94519 230.614 8.83852C230.06 8.73719 229.517 8.65584 228.954 8.65584C228.422 8.65584 227.809 8.79984 227.301 8.96118C225.956 9.38518 224.845 10.3798 223.922 11.4092C222.214 13.3145 221.238 15.6505 220.326 18.0052C219.3 20.6625 218.834 23.5065 218.501 26.3225C218.188 28.9718 218.302 31.6878 218.72 34.3198C218.921 35.5838 219.205 36.8332 219.582 38.0505C217.757 40.2052 215.744 42.1852 213.542 43.9558C211.758 45.2705 209.866 46.3838 207.846 47.2972C206.272 47.9105 204.676 48.3639 203.009 48.6492C201.35 48.8252 199.709 48.8305 198.05 48.6519C196.762 48.4252 195.528 48.0879 194.312 47.6212C193.157 47.0785 192.073 46.4465 191.038 45.7052C190.034 44.8679 189.126 43.9545 188.286 42.9492C187.309 41.6039 186.534 40.1585 185.856 38.6372C185.618 38.0438 185.401 37.4425 185.201 36.8385C185.594 36.3225 185.981 35.7998 186.361 35.2758C187.857 33.2132 189.197 31.0238 190.434 28.7985C191.774 26.3825 192.845 23.7559 193.408 21.0492C193.662 19.8199 193.741 18.5465 193.764 17.2958C193.788 15.9518 193.59 14.6198 193.388 13.2972C193.288 12.6532 193.142 12.0438 192.945 11.4265C192.761 10.8411 192.481 10.2772 192.206 9.73051C192.042 9.51851 191.877 9.30518 191.714 9.09451C191.456 8.74918 191.14 8.46519 190.768 8.24386C190.116 7.87053 189.46 7.60917 188.718 7.48917C188.082 7.38517 187.588 7.34784 186.961 7.42517C186.306 7.50517 185.79 7.60652 185.181 7.83585C184.61 8.04918 184.094 8.30654 183.581 8.62387C183.054 8.94921 182.55 9.41315 182.102 9.83715C181.972 9.98249 181.844 10.1252 181.714 10.2692C181.433 10.6265 181.153 10.9865 180.874 11.3492C180.549 11.8225 180.252 12.2958 179.973 12.7985C179.664 13.3518 179.414 13.9705 179.184 14.5598C178.9 15.2771 178.657 15.9972 178.44 16.7372C177.705 19.2318 177.344 21.8452 177.202 24.4372C177.052 27.2465 177.422 30.0705 177.872 32.8398C177.97 33.4438 178.081 34.0465 178.205 34.6439C176.404 36.7412 174.47 38.7158 172.312 40.4558C169.901 42.2492 167.329 43.7412 164.584 44.9558C163.549 45.3665 162.506 45.7358 161.44 46.0612C160.162 46.4518 158.85 46.7105 157.534 46.9225C156.029 47.0905 154.538 47.1452 153.029 47.0132C151.873 46.7959 150.776 46.4505 149.682 46.0198C147.982 45.2412 146.388 44.3278 144.873 43.2318C143.418 42.0518 142.096 40.7491 140.914 39.2958C140.857 39.2158 140.801 39.1345 140.745 39.0545C142.025 37.1599 143.178 35.1879 144.236 33.1572C145.422 30.8772 146.442 28.5145 147.358 26.1118C147.82 24.9012 148.15 23.6572 148.376 22.3799C148.496 21.6985 148.556 21.0079 148.588 20.3185C148.628 19.4572 148.469 18.6012 148.35 17.7532C148.184 16.5665 147.589 15.4038 147.104 14.3252C146.848 13.7585 146.493 13.2545 146.124 12.7558C145.725 12.2238 145.324 11.7558 144.841 11.3012C143.877 10.3972 142.656 9.61448 141.298 9.56782C140.665 9.54648 140.066 9.64785 139.444 9.73852C139.08 9.82252 138.73 9.94385 138.393 10.1025C137.976 10.2545 137.573 10.4398 137.188 10.6585C136.64 10.9478 136.165 11.3945 135.681 11.7772C135.24 12.1252 134.878 12.5745 134.522 13.0052C134.118 13.4945 133.76 14.0079 133.417 14.5412C133.072 15.0865 132.826 15.7105 132.586 16.3038C131.556 18.8305 131.14 21.5932 130.882 24.2945C130.632 26.9412 130.866 29.5892 131.244 32.2105C131.546 34.3012 132.181 36.3252 132.992 38.2732C132.009 39.5038 130.99 40.7065 129.925 41.8692C128.798 43.0985 127.569 44.2185 126.272 45.2625C124.436 46.6211 122.479 47.7732 120.4 48.7159C118.828 49.3185 117.213 49.7412 115.553 50.0118C114.644 50.0932 113.755 50.1065 112.851 50.0305C111.946 49.8558 111.078 49.6105 110.214 49.2945C109.501 48.9572 108.827 48.5772 108.177 48.1278C107.511 47.5505 106.908 46.9305 106.341 46.2558C105.804 45.5012 105.346 44.7225 104.946 43.8852C104.855 43.6452 104.767 43.4052 104.683 43.1638C105.182 42.5972 105.669 42.0185 106.145 41.4318C107.011 40.3625 107.836 39.2572 108.612 38.1225C109.42 36.9372 110.136 35.6852 110.839 34.4372C112.663 31.1878 114.136 27.7691 115.632 24.3625C116.223 23.0158 116.801 21.6665 117.341 20.2972C117.794 19.1452 118.229 17.8945 118.303 16.6505C118.39 15.1878 117.944 13.6772 117.05 12.5132C116.858 12.2639 116.665 12.0145 116.474 11.7651C116.142 11.4265 115.779 11.1225 115.381 10.8572C114.877 10.5159 114.313 10.2292 113.728 10.0439C113.133 9.85719 112.513 9.73048 111.888 9.69581C111.221 9.66115 110.578 9.72253 109.919 9.84386C108.652 10.0719 107.466 10.5585 106.37 11.2318C105.801 11.5785 105.291 12.0345 104.775 12.4545C104.19 12.9305 103.686 13.5092 103.188 14.0692C101.54 15.9212 100.073 17.9612 99.0636 20.2305C98.5392 21.4132 98.1256 22.6145 97.7923 23.8638C97.4371 25.2078 97.2283 26.5945 97.0267 27.9678C96.6455 30.5798 96.4699 33.1812 96.5423 35.8172C96.5778 37.1025 96.6742 38.3945 96.8445 39.6745C95.5445 40.9585 94.1751 42.1732 92.7439 43.3172C90.3746 45.0798 87.8513 46.6319 85.157 47.8465C83.2631 48.5865 81.3371 49.1972 79.3346 49.5532C78.0679 49.6678 76.8153 49.6558 75.5518 49.5332C74.6043 49.3598 73.6882 49.1251 72.7794 48.8038C71.8075 48.3411 70.8955 47.7945 70.0194 47.1665C69.7111 46.9038 69.4127 46.6345 69.1251 46.3558C70.9877 44.6105 72.5913 42.6412 74.1289 40.6092C75.8242 38.3678 77.2142 35.9465 78.2851 33.3492C78.7689 32.1705 79.1647 30.9812 79.4783 29.7452C79.8256 28.3705 79.9903 26.9372 80.107 25.5278C80.2251 24.1318 80.0163 22.7105 79.7575 21.3439C79.6455 20.7505 79.4325 20.1825 79.2189 19.6198C78.8798 18.7158 78.4616 17.8679 77.9434 17.0572C77.56 16.4559 77.0757 15.9065 76.6122 15.3678C76.1903 14.8772 75.5554 14.3585 75.0246 14.0225C74.033 13.3945 72.9319 12.9865 71.771 12.8198C71.0439 12.7158 70.407 12.6439 69.6819 12.6492C68.9527 12.6572 68.2188 12.8118 67.5002 12.9318C67.321 12.9785 67.1428 13.0265 66.9616 13.0745C66.4694 13.2625 65.9835 13.4612 65.5012 13.6745C64.6876 14.1039 63.9325 14.6278 63.2314 15.2291C62.7778 15.6185 62.3631 16.0185 61.9579 16.4585C61.4658 16.9918 61.0497 17.5985 60.6199 18.1852C59.8309 19.2639 59.3022 20.5492 58.8002 21.7812C58.3341 22.9198 57.9423 24.0745 57.6231 25.2625C57.1929 26.8531 57.0038 28.5105 56.8054 30.1412C56.4877 32.7545 56.4637 35.4105 56.7893 38.0239C56.9642 39.4265 57.2131 40.7998 57.5669 42.1678C57.8382 43.2198 58.2194 44.2438 58.6559 45.2425C56.8991 46.3958 55.0575 47.4132 53.1398 48.2772C51.209 49.0345 49.2289 49.5651 47.183 49.8958C45.7757 50.0398 44.3855 50.0719 42.9751 49.9492C41.4002 49.6839 39.8814 49.2478 38.3929 48.6638C36.9851 48.0065 35.6726 47.2278 34.4153 46.3172C33.0991 45.2372 31.9127 44.0532 30.8366 42.7358C29.6819 41.1492 28.7054 39.4719 27.8909 37.6852C27.6418 37.0545 27.4137 36.4185 27.2065 35.7772C31.4169 33.1732 35.4163 30.2305 39.1642 26.9972C40.1429 26.1545 41.1013 25.2852 42.0393 24.3945C42.9669 23.5145 43.8409 22.5825 44.7366 21.6692C45.5319 20.8545 46.3679 20.0492 47.0049 19.0972C47.7475 17.9825 48.3079 16.7878 48.6841 15.4998C48.9975 14.4172 48.9689 13.2358 48.8205 12.1318C48.6663 10.9678 48.3803 9.86916 47.8642 8.80916C46.7898 6.60116 45.1101 4.80382 42.9893 3.57049C42.4527 3.25849 41.8179 2.98516 41.2335 2.77849C40.6627 2.57716 40.1226 2.4265 39.5262 2.31984C38.2642 2.09317 37.0314 2.14514 35.7715 2.32648C34.5726 2.49714 33.4658 2.82251 32.3647 3.32784C31.0527 3.93184 29.8757 4.70653 28.7527 5.61053C24.759 8.82786 22.1742 13.6039 20.5631 18.4025C19.7355 20.8625 19.4242 23.5158 19.2835 26.0985C19.1289 28.9265 19.4685 31.7772 20.0049 34.5519C20.1153 35.1239 20.2461 35.6905 20.3955 36.2505C17.2794 38.0758 14.0601 39.7185 10.7439 41.1345C9.58299 41.6038 8.41419 42.0265 7.21472 42.3905C6.14699 42.7145 5.09646 43.0611 3.99966 43.2705C3.60592 43.3038 3.23766 43.3105 2.84646 43.2799C2.80019 43.2652 2.75379 43.2491 2.70798 43.2318C2.6986 43.2265 2.68975 43.2212 2.68038 43.2159C2.80792 43.0652 2.94806 42.9278 3.09912 42.7998C3.63032 42.4198 4.15846 42.0345 4.67779 41.6398C5.15019 41.2825 5.39286 40.7118 5.06792 40.1558C4.79446 39.6892 4.05539 39.4078 3.58299 39.7651C2.98246 40.2185 2.32776 40.6171 1.75746 41.1011C1.4559 41.3225 1.19079 41.5798 0.959536 41.8732C0.666309 42.1998 0.421522 42.5865 0.158496 42.9371C-0.113371 43.2985 -0.0227576 44.0039 0.332976 44.2852C0.641829 44.5305 0.935576 44.8011 1.25486 45.0345C1.37308 45.1211 1.49183 45.2052 1.61058 45.2918C1.82934 45.3878 2.04808 45.4825 2.26683 45.5732C2.74183 45.6492 3.16366 45.6999 3.64339 45.7159C4.11166 45.7319 4.62366 45.6225 5.08352 45.5585C5.66059 45.4785 6.23032 45.3118 6.79125 45.1651C7.36739 45.0145 7.94232 44.8599 8.51632 44.7052C9.96686 44.3159 11.3751 43.7745 12.7674 43.2185C15.7054 42.0412 18.5533 40.6745 21.3341 39.1772Z" fill="#EEE5DC"/>
</svg>
