<svg width="258" height="61" viewBox="0 0 258 61" fill="none" xmlns="http://www.w3.org/2000/svg">
<path d="M29.4896 15.9028C30.8571 15.3375 32.2413 14.8287 33.6256 14.3041C37.0711 12.9971 40.6323 11.9167 44.2811 11.3641C46.6167 11.085 48.9538 11.0435 51.2957 11.2939C53.4136 11.6264 55.4677 12.1982 57.4588 12.9932C59.1939 13.7682 60.858 14.6653 62.5373 15.5536C63.3252 15.969 64.1146 16.3805 64.9024 16.7911C66.738 17.7496 68.6118 18.5916 70.5216 19.3874C73.8834 20.7876 77.4126 21.7357 81.0033 22.3178C82.862 22.6184 84.7374 22.8529 86.6169 22.9589C88.6247 23.0714 90.6357 22.982 92.6332 22.7699C94.5916 22.5618 96.5356 22.2453 98.4637 21.8434C99.1869 21.6935 99.903 21.4901 100.621 21.3155C101.94 20.9918 103.233 20.6019 104.535 20.2119C107.052 19.4592 109.496 18.4848 111.942 17.5295C113.774 16.8151 115.585 16.0232 117.385 15.2314C119.162 14.4508 120.936 13.667 122.711 12.8815C126.403 11.3338 130.135 9.81558 134.102 9.16012C136.477 8.90177 138.879 8.9552 141.25 9.22791C142.589 9.44719 143.885 9.76535 145.152 10.2414C147.357 11.29 149.271 12.8265 151.213 14.2929C152.169 15.0169 153.121 15.7537 154.095 16.4522C155.233 17.2648 156.37 18.0677 157.53 18.846C158.522 19.5118 159.544 20.1162 160.623 20.6329C162.424 21.4925 164.286 22.0682 166.227 22.4972C168.036 22.8959 169.9 23.1423 171.739 23.3265C173.716 23.5219 175.705 23.4198 177.671 23.1782C179.608 22.9406 181.511 22.5826 183.398 22.0802C184.32 21.8354 185.212 21.5292 186.113 21.2182C186.784 20.9854 187.454 20.7541 188.124 20.5221C188.734 20.3116 189.325 20.0174 189.92 19.7678C190.511 19.519 191.104 19.2694 191.696 19.0206C192.572 18.6514 193.419 18.2424 194.274 17.8309C196.798 16.6181 199.275 15.3159 201.78 14.0664C203.07 13.4222 204.359 12.7795 205.66 12.1575C206.759 11.6312 207.868 11.1345 208.981 10.6417C210.972 9.88655 212.98 9.1354 215.079 8.75664C216.168 8.67451 217.246 8.72792 218.331 8.84354C219.624 9.04209 220.913 9.29406 222.193 9.55321C223.518 9.82193 224.845 10.0715 226.175 10.3084C227.853 10.6074 229.53 10.849 231.219 11.0643C232.57 11.2357 233.92 11.2995 235.281 11.3657C236.544 11.4255 237.82 11.349 239.082 11.3179C240.379 11.286 241.682 11.1432 242.975 11.0412C245.558 10.8394 248.137 10.4646 250.7 10.109C253.112 9.7749 255.524 9.43125 257.934 9.08837C257.937 9.08677 257.937 9.08037 257.934 9.07957C255.377 8.65695 252.825 8.20643 250.271 7.77026C247.906 7.36519 245.536 6.98562 243.175 6.5662C240.574 6.1061 237.959 5.70024 235.385 5.1022C234.683 4.93874 233.98 4.78004 233.278 4.62455C232.585 4.47145 231.904 4.23944 231.219 4.05364C229.934 3.7004 228.661 3.30649 227.379 2.9357C226.256 2.61037 225.13 2.25872 223.99 1.99558C223.219 1.81617 222.447 1.64314 221.672 1.47887C220.119 1.14716 218.52 0.974115 216.936 0.909527C216.761 0.90235 216.588 0.89917 216.413 0.89917C214.579 0.89917 212.752 1.28591 211.008 1.82255C210.322 2.03227 209.646 2.27865 208.967 2.5075C208.369 2.70684 207.789 2.98513 207.205 3.22355C206.421 3.54251 205.647 3.87903 204.882 4.24264C200.124 6.50483 195.597 9.21435 190.859 11.5172C190.086 11.8928 189.322 12.2883 188.53 12.6232C187.758 12.9501 186.986 13.2778 186.212 13.6047C185.225 13.9468 184.237 14.2905 183.251 14.6334C181.347 15.2928 179.36 15.7441 177.368 16.0471C175.354 16.2704 173.356 16.3007 171.343 16.0775C169.044 15.7354 166.739 15.2849 164.563 14.458C162.881 13.6829 161.298 12.6926 159.792 11.6137C158.663 10.8043 157.541 9.9934 156.43 9.16012C155.354 8.35317 154.279 7.54221 153.204 6.73206C151.933 5.772 150.611 4.8925 149.183 4.17804C147.438 3.3049 145.569 2.73796 143.652 2.40385C141.764 2.07453 139.847 1.91424 137.934 1.86799C135.813 1.81775 133.696 2.05138 131.613 2.43652C129.758 2.7786 127.979 3.39739 126.189 3.97391C125.545 4.18202 124.917 4.45312 124.285 4.69074C123.799 4.87334 123.314 5.05515 122.834 5.2537C121.395 5.85094 119.95 6.44182 118.52 7.06379C116.75 7.83327 114.979 8.59715 113.207 9.35865C106.579 12.0634 99.8344 14.6685 92.7201 15.725C91.154 15.9116 89.588 16.0129 88.0099 16.0193C86.4782 16.0272 84.9504 15.8972 83.4313 15.7098C79.4715 15.1182 75.6392 14.0656 71.9322 12.5514C69.7082 11.5802 67.5561 10.4606 65.3936 9.36025C64.6424 8.9783 63.8929 8.59634 63.1418 8.21439C61.775 7.51907 60.3365 6.92903 58.9044 6.3876C57.2801 5.77202 55.5841 5.34938 53.8737 5.06471C51.7503 4.71147 49.6276 4.56476 47.4786 4.73699C44.3792 4.98578 41.3802 5.79992 38.5096 6.97766C37.8805 7.23681 37.2514 7.49835 36.6214 7.76228C35.785 8.11154 34.9812 8.52142 34.1686 8.92251C32.9757 9.51178 31.8251 10.1592 30.6673 10.8187C28.2807 12.1814 26.0018 13.7188 23.7212 15.2506C23.3624 15.4906 23.0275 15.7792 22.6878 16.0448C21.8554 16.6946 21.0261 17.3493 20.2008 18.0095C19.4249 18.6275 18.6522 19.2527 17.882 19.881C16.961 20.6329 16.0886 21.4399 15.2083 22.2373C15.2043 22.2405 15.2083 22.2453 15.2131 22.2437C16.2338 21.7549 17.2449 21.2406 18.2807 20.7821C19.0693 20.4336 19.8563 20.0803 20.6417 19.7247C22.0731 19.0756 23.4996 18.4154 24.9213 17.7448C26.4499 17.1451 27.9721 16.5304 29.4896 15.9028Z" fill="#FBF7F3"/>
<path d="M14.4211 34.8255C15.7886 34.2602 17.1728 33.7514 18.5571 33.2267C22.0026 31.9198 25.5638 30.8393 29.2126 30.2867C31.5482 30.0076 33.8853 29.9662 36.2272 30.2166C38.3451 30.5491 40.3992 31.1208 42.3903 31.9158C44.1254 32.6909 45.7895 33.5879 47.4688 34.4762C48.2567 34.8917 49.0461 35.3031 49.8339 35.7138C51.6695 36.6722 53.5433 37.5143 55.4531 38.3101C58.8149 39.7103 62.3441 40.6584 65.9348 41.2405C67.7935 41.5411 69.6689 41.7755 71.5484 41.8816C73.5562 41.994 75.5672 41.9047 77.5647 41.6926C79.5231 41.4845 81.4671 41.1679 83.3952 40.7661C84.1184 40.6161 84.8345 40.4128 85.5529 40.2382C86.8718 39.9144 88.1644 39.5245 89.4665 39.1346C91.9831 38.3819 94.4279 37.4074 96.8735 36.4522C98.7059 35.7377 100.517 34.9459 102.316 34.1541C104.093 33.3734 105.867 32.5896 107.642 31.8042C111.334 30.2565 115.067 28.7382 119.034 28.0828C121.408 27.8244 123.81 27.8779 126.181 28.1506C127.52 28.3698 128.817 28.688 130.083 29.164C132.289 30.2126 134.202 31.7491 136.144 33.2155C137.101 33.9396 138.052 34.6764 139.027 35.3749C140.165 36.1874 141.302 36.9904 142.462 37.7686C143.454 38.4345 144.475 39.0389 145.555 39.5556C147.355 40.4152 149.217 40.9909 151.159 41.4199C152.967 41.8186 154.832 42.065 156.67 42.2492C158.647 42.4445 160.637 42.3425 162.602 42.1009C164.54 41.8632 166.442 41.5052 168.329 41.0029C169.252 40.7581 170.144 40.4519 171.045 40.1409C171.716 39.908 172.385 39.6768 173.056 39.4448C173.665 39.2342 174.257 38.94 174.852 38.6904C175.443 38.4416 176.036 38.192 176.627 37.9433C177.503 37.5741 178.351 37.165 179.205 36.7536C181.729 35.5407 184.207 34.2386 186.711 32.9891C188.001 32.3448 189.291 31.7021 190.591 31.0802C191.69 30.5539 192.799 30.0571 193.912 29.5643C195.904 28.8092 197.911 28.0581 200.011 27.6793C201.099 27.5972 202.177 27.6506 203.263 27.7662C204.555 27.9648 205.845 28.2167 207.124 28.4759C208.45 28.7446 209.777 28.9942 211.107 29.231C212.784 29.53 214.461 29.7716 216.15 29.9869C217.502 30.1584 218.852 30.2221 220.213 30.2883C221.476 30.3481 222.752 30.2716 224.014 30.2405C225.31 30.2086 226.613 30.0659 227.907 29.9638C230.489 29.7621 233.068 29.3873 235.632 29.0317C238.044 28.6976 240.455 28.3539 242.865 28.011C242.869 28.0094 242.869 28.003 242.865 28.0022C240.309 27.5796 237.756 27.1291 235.202 26.6929C232.838 26.2878 230.468 25.9083 228.106 25.4889C225.505 25.0288 222.89 24.6229 220.316 24.0249C219.615 23.8614 218.911 23.7027 218.21 23.5472C217.517 23.3941 216.835 23.1621 216.151 22.9763C214.865 22.6231 213.592 22.2291 212.311 21.8584C211.188 21.533 210.061 21.1814 208.922 20.9182C208.151 20.7388 207.378 20.5658 206.604 20.4015C205.05 20.0698 203.452 19.8968 201.867 19.8322C201.693 19.825 201.52 19.8218 201.345 19.8218C199.511 19.8218 197.683 20.2086 195.939 20.7452C195.254 20.9549 194.577 21.2013 193.898 21.4302C193.301 21.6295 192.72 21.9078 192.137 22.1462C191.353 22.4652 190.579 22.8017 189.813 23.1653C185.056 25.4275 180.528 28.137 175.79 30.4399C175.018 30.8154 174.254 31.2109 173.462 31.5458C172.689 31.8727 171.917 32.2005 171.144 32.5274C170.157 32.8695 169.169 33.2132 168.182 33.556C166.279 34.2155 164.292 34.6668 162.299 34.9698C160.286 35.1931 158.288 35.2234 156.274 35.0001C153.975 34.658 151.67 34.2075 149.495 33.3806C147.812 32.6056 146.229 31.6152 144.724 30.5363C143.595 29.727 142.473 28.9161 141.361 28.0828C140.286 27.2758 139.211 26.4649 138.136 25.6547C136.864 24.6947 135.542 23.8152 134.115 23.1007C132.369 22.2276 130.5 21.6606 128.583 21.3265C126.696 20.9972 124.779 20.8369 122.866 20.7906C120.744 20.7404 118.627 20.974 116.544 21.3592C114.69 21.7013 112.911 22.32 111.12 22.8966C110.477 23.1047 109.849 23.3758 109.216 23.6134C108.731 23.796 108.246 23.9778 107.766 24.1764C106.327 24.7736 104.882 25.3645 103.451 25.9864C101.682 26.7559 99.9107 27.5198 98.1381 28.2813C91.5102 30.9861 84.7659 33.5911 77.6516 34.6477C76.0855 34.8343 74.5195 34.9355 72.9414 34.9419C71.4097 34.9499 69.8819 34.8199 68.3628 34.6325C64.403 34.0408 60.5707 32.9883 56.8637 31.4741C54.6397 30.5028 52.4876 29.3833 50.3251 28.2829C49.5739 27.901 48.8244 27.519 48.0733 27.1371C46.7065 26.4417 45.268 25.8517 43.8359 25.3103C42.2116 24.6947 40.5156 24.272 38.8052 23.9874C36.6818 23.6341 34.5591 23.4874 32.4101 23.6596C29.3107 23.9084 26.3117 24.7226 23.4411 25.9003C22.812 26.1595 22.1829 26.421 21.5529 26.6849C20.7165 27.0342 19.9127 27.4441 19.1001 27.8452C17.9072 28.4344 16.7566 29.0819 15.5988 29.7413C13.2122 31.1041 10.9333 32.6414 8.65274 34.1732C8.29391 34.4132 7.95901 34.7019 7.61933 34.9674C6.78685 35.6173 5.95757 36.272 5.13227 36.9322C4.35642 37.5502 3.58374 38.1753 2.81346 38.8036C1.89248 39.5556 1.02013 40.3626 0.139815 41.16C0.135828 41.1631 0.139819 41.1679 0.144604 41.1663C1.16526 40.6775 2.17635 40.1632 3.21216 39.7047C4.00077 39.3563 4.78781 39.003 5.57323 38.6474C7.00455 37.9983 8.43107 37.338 9.85281 36.6674C11.3814 36.0678 12.9036 35.453 14.4211 34.8255Z" fill="#FBF7F3"/>
<path d="M25.094 53.4176C26.4615 52.8523 27.8457 52.3435 29.23 51.8188C32.6755 50.5119 36.2367 49.4314 39.8856 48.8788C42.2211 48.5997 44.5582 48.5583 46.9002 48.8087C49.018 49.1412 51.0721 49.7129 53.0632 50.5079C54.7983 51.283 56.4624 52.18 58.1417 53.0683C58.9296 53.4838 59.719 53.8952 60.5068 54.3059C62.3424 55.2643 64.2162 56.1064 66.126 56.9022C69.4878 58.3024 73.017 59.2505 76.6077 59.8326C78.4664 60.1332 80.3418 60.3676 82.2213 60.4737C84.2291 60.5861 86.2402 60.4968 88.2376 60.2847C90.196 60.0766 92.14 59.76 94.0681 59.3581C94.7914 59.2082 95.5074 59.0049 96.2258 58.8303C97.5447 58.5065 98.8373 58.1166 100.139 57.7267C102.656 56.974 105.101 55.9995 107.546 55.0443C109.379 54.3298 111.19 53.538 112.989 52.7462C114.766 51.9655 116.54 51.1817 118.315 50.3963C122.007 48.8486 125.74 47.3303 129.707 46.6749C132.081 46.4165 134.483 46.47 136.854 46.7427C138.193 46.9619 139.49 47.2801 140.756 47.7561C142.962 48.8047 144.875 50.3412 146.817 51.8076C147.774 52.5317 148.725 53.2685 149.7 53.967C150.837 54.7795 151.975 55.5825 153.135 56.3607C154.127 57.0266 155.148 57.631 156.228 58.1477C158.028 59.0073 159.89 59.583 161.832 60.012C163.64 60.4107 165.505 60.6571 167.343 60.8413C169.32 61.0366 171.31 60.9346 173.275 60.693C175.213 60.4553 177.115 60.0973 179.002 59.595C179.925 59.3502 180.817 59.0439 181.718 58.733C182.388 58.5001 183.058 58.2689 183.729 58.0368C184.338 57.8263 184.93 57.5321 185.525 57.2825C186.115 57.0337 186.709 56.7841 187.3 56.5354C188.176 56.1662 189.024 55.7571 189.878 55.3457C192.402 54.1328 194.88 52.8307 197.384 51.5812C198.674 50.9369 199.964 50.2942 201.264 49.6722C202.363 49.146 203.472 48.6492 204.585 48.1564C206.576 47.4013 208.584 46.6502 210.684 46.2714C211.772 46.1893 212.85 46.2427 213.936 46.3583C215.228 46.5568 216.518 46.8088 217.797 47.068C219.123 47.3367 220.449 47.5863 221.779 47.8231C223.457 48.1221 225.134 48.3637 226.823 48.579C228.175 48.7505 229.525 48.8142 230.886 48.8804C232.149 48.9402 233.425 48.8637 234.687 48.8326C235.983 48.8007 237.286 48.658 238.58 48.5559C241.162 48.3542 243.741 47.9794 246.305 47.6238C248.717 47.2897 251.128 46.946 253.538 46.6031C253.542 46.6015 253.542 46.5951 253.538 46.5943C250.981 46.1717 248.429 45.7212 245.875 45.285C243.511 44.8799 241.141 44.5004 238.779 44.081C236.178 43.6209 233.563 43.215 230.989 42.617C230.288 42.4535 229.584 42.2948 228.883 42.1393C228.19 41.9862 227.508 41.7542 226.824 41.5684C225.538 41.2152 224.265 40.8212 222.984 40.4505C221.861 40.1251 220.734 39.7735 219.595 39.5103C218.824 39.3309 218.051 39.1579 217.277 38.9936C215.723 38.6619 214.125 38.4889 212.54 38.4243C212.366 38.4171 212.192 38.4139 212.018 38.4139C210.184 38.4139 208.356 38.8007 206.612 39.3373C205.927 39.547 205.25 39.7934 204.571 40.0222C203.974 40.2216 203.393 40.4999 202.81 40.7383C202.026 41.0573 201.252 41.3938 200.486 41.7574C195.729 44.0196 191.201 46.7291 186.463 49.032C185.69 49.4075 184.927 49.803 184.135 50.1379C183.362 50.4648 182.59 50.7926 181.817 51.1195C180.83 51.4616 179.842 51.8052 178.855 52.1481C176.952 52.8076 174.965 53.2589 172.972 53.5619C170.959 53.7852 168.96 53.8155 166.947 53.5922C164.648 53.2501 162.343 52.7996 160.168 51.9727C158.485 51.1977 156.902 50.2073 155.397 49.1284C154.268 48.3191 153.146 47.5081 152.034 46.6749C150.959 45.8679 149.884 45.057 148.809 44.2468C147.537 43.2868 146.215 42.4073 144.788 41.6928C143.042 40.8197 141.173 40.2527 139.256 39.9186C137.369 39.5893 135.452 39.429 133.539 39.3827C131.417 39.3325 129.3 39.5661 127.217 39.9513C125.362 40.2934 123.583 40.9121 121.793 41.4887C121.15 41.6968 120.521 41.9679 119.889 42.2055C119.404 42.3881 118.919 42.5699 118.439 42.7685C116.999 43.3657 115.555 43.9566 114.124 44.5785C112.355 45.348 110.584 46.1119 108.811 46.8734C102.183 49.5781 95.4388 52.1832 88.3245 53.2398C86.7584 53.4264 85.1924 53.5276 83.6143 53.534C82.0826 53.542 80.5548 53.412 79.0358 53.2246C75.0759 52.6329 71.2436 51.5804 67.5366 50.0662C65.3127 49.0949 63.1605 47.9754 60.998 46.875C60.2468 46.4931 59.4973 46.1111 58.7462 45.7291C57.3794 45.0338 55.9409 44.4438 54.5088 43.9024C52.8846 43.2868 51.1885 42.8641 49.4781 42.5795C47.3547 42.2262 45.232 42.0795 43.083 42.2517C39.9836 42.5005 36.9846 43.3147 34.114 44.4924C33.4849 44.7516 32.8558 45.0131 32.2258 45.277C31.3894 45.6263 30.5856 46.0362 29.773 46.4373C28.5801 47.0265 27.4295 47.674 26.2717 48.3334C23.8851 49.6962 21.6062 51.2335 19.3257 52.7653C18.9668 53.0053 18.6319 53.294 18.2922 53.5595C17.4598 54.2094 16.6305 54.8641 15.8052 55.5243C15.0293 56.1423 14.2567 56.7674 13.4864 57.3957C12.5654 58.1477 11.693 58.9547 10.8127 59.7521C10.8087 59.7552 10.8127 59.76 10.8175 59.7584C11.8382 59.2696 12.8493 58.7553 13.8851 58.2968C14.6737 57.9484 15.4607 57.5951 16.2461 57.2395C17.6775 56.5904 19.104 55.9301 20.5257 55.2595C22.0543 54.6599 23.5765 54.0451 25.094 53.4176Z" fill="#FBF7F3"/>
</svg>
