<svg width="170" height="46" viewBox="0 0 170 46" fill="none" xmlns="http://www.w3.org/2000/svg">
<path d="M7.36325 41.1383C9.41244 41.234 11.001 41.1137 13.2664 40.9406C14.5495 40.8463 15.8203 40.8276 17.0939 40.8376C18.9175 40.8533 20.7289 40.9203 22.5402 41.0455C25.9902 41.2812 29.427 41.6342 32.8573 42.0298C39.7335 42.8228 46.6071 43.5708 53.5651 43.6451C60.7804 43.7186 67.9887 43.8535 75.2063 43.9084C82.0491 43.9589 88.892 44.0095 95.7153 44.2469C102.548 44.4815 109.369 44.7835 116.243 44.6309C123.276 44.4791 130.259 44.7931 137.232 45.2086C140.54 45.4079 143.865 45.5483 147.232 45.1409C148.99 44.9267 150.751 44.6588 152.514 44.3656C154.242 44.0801 155.957 43.9608 157.674 43.8038C159.259 43.6589 160.764 43.9679 162.277 44.4079C163.415 44.2618 164.409 43.0986 165.26 40.921C165.743 39.5378 166.225 38.1545 166.708 36.7725C167.737 33.0793 168.489 29.2357 168.966 25.2472C169.475 21.2599 169.681 17.3487 169.582 13.5162C169.451 12.057 169.319 10.5992 169.188 9.14C168.893 6.81949 168.211 5.45058 167.144 5.03061C166.276 5.08024 165.403 5.18065 164.537 5.21015C163.748 5.23706 162.973 5.13322 162.197 5.04943C160.538 4.87276 158.867 4.80285 157.194 4.75699C153.716 4.66253 150.219 4.7645 146.751 4.57665C140.032 4.21278 133.358 3.43669 126.593 3.51477C122.964 3.55592 119.331 3.67625 115.706 3.70422C112.411 3.73252 109.131 3.61245 105.853 3.49128C98.8744 3.22791 91.8838 3.10503 84.8807 3.09286C77.9651 3.08203 71.0558 3.01114 64.1401 3.01111C60.3162 3.00914 56.4968 2.97119 52.6815 2.89996C49.2626 2.83309 45.873 2.46288 42.4854 2.12806C35.5493 1.44125 28.6197 0.702482 21.5965 0.796011C19.8669 0.818915 18.13 0.920667 16.3796 1.17766C14.9577 1.38329 13.5171 1.74077 12.0805 2.24073C10.9691 2.62944 9.85827 3.31707 8.74659 3.96403C8.09966 4.34116 7.43354 4.96339 6.81906 5.70695C5.57001 7.45124 4.57022 9.74702 3.81985 12.5929C2.20587 18.0515 1.25828 24.7068 0.974013 30.5921C0.756406 34.1408 1.12908 36.3195 1.8317 37.3583C2.53433 38.3971 2.92933 38.753 3.91888 39.468C5.07304 40.302 5.31405 41.0425 7.36325 41.1383Z" fill="#FED137"/>
</svg>
