<svg width="206" height="46" viewBox="0 0 206 46" fill="none" xmlns="http://www.w3.org/2000/svg">
<path d="M198.062 3.741C195.295 4.77766 192.477 5.07011 189.731 5.23412C188.176 5.32331 186.633 5.33698 185.084 5.32188C182.867 5.29881 180.662 5.22454 178.455 5.09214C174.251 4.84258 170.057 4.47571 165.87 4.06636C157.475 3.24567 149.087 2.46996 140.626 2.36787C131.853 2.26541 123.085 2.10163 114.31 2.01781C105.99 1.93988 97.6705 1.86195 89.3661 1.59717C81.0501 1.3352 72.7461 1.00582 64.3982 1.13089C55.8563 1.25454 47.3547 0.912583 38.86 0.469069C34.8296 0.256517 30.7817 0.102726 26.7077 0.496761C24.5809 0.703902 22.4534 0.96483 20.3232 1.25105C18.2365 1.52969 16.1572 1.64217 14.0775 1.79232C12.1575 1.9309 10.3141 1.61575 8.45449 1.16969C7.07863 1.31128 5.92335 2.4707 4.98891 4.64528C4.46499 6.02682 3.94178 7.40844 3.41871 8.78873C2.3373 12.4785 1.59826 16.3198 1.20075 20.3071C0.764996 24.2932 0.693876 28.2043 0.989062 32.0379C1.21532 33.4978 1.44171 34.9564 1.66867 36.4165C2.13318 38.7386 3.02393 40.1105 4.34065 40.5348C5.39311 40.4886 6.44947 40.3917 7.50124 40.3657C8.45896 40.3419 9.40516 40.4489 10.3527 40.5358C12.3777 40.7191 14.4116 40.7957 16.4474 40.8483C20.6792 40.9567 24.9251 40.8687 29.1485 41.0705C37.3324 41.4613 45.4796 42.2643 53.6989 42.2133C58.1069 42.1866 62.5174 42.0808 66.9226 42.0674C70.9257 42.0522 74.9182 42.1855 78.9085 42.3198C87.4027 42.6111 95.9051 42.762 104.418 42.8022C112.824 42.8408 121.225 42.9393 129.631 42.967C134.279 42.9843 138.923 43.0376 143.564 43.1241C147.722 43.2047 151.859 43.5885 155.992 43.9369C164.454 44.6517 172.911 45.4183 181.443 45.3529C183.544 45.3369 185.651 45.2421 187.766 44.992C189.485 44.7921 191.22 44.4403 192.943 43.946C194.276 43.5616 195.595 42.8783 196.917 42.2357C197.686 41.8611 198.467 41.2414 199.18 40.5002C200.618 38.7606 201.728 36.4684 202.51 33.625C204.222 28.1718 205.07 21.519 205.146 15.6337C205.248 12.0853 204.96 8.75722 204.282 5.65087C203.9 4.65661 203.516 3.66345 203.133 2.67038C202.167 1.19905 201.057 1.08311 199.807 2.32277C199.245 2.90613 198.659 3.36991 198.062 3.741Z" fill="#FED137"/>
</svg>
