<svg width="287" height="45" viewBox="0 0 287 45" fill="none" xmlns="http://www.w3.org/2000/svg">
<path d="M11.2091 42.258C15.0082 41.1933 18.9353 40.874 22.7718 40.6841C24.9452 40.5803 27.1085 40.5522 29.2808 40.553C32.3912 40.5555 35.4881 40.6094 38.5931 40.7215C44.5072 40.9325 50.4152 41.2612 56.3184 41.6325C68.1516 42.3769 79.9738 43.0763 91.8438 43.0999C104.152 43.121 116.457 43.2036 128.767 43.206C140.437 43.2067 152.108 43.2074 163.771 43.3955C175.451 43.5807 187.119 43.8336 198.814 43.6306C210.78 43.4272 222.726 43.6908 234.67 44.0563C240.338 44.2318 246.025 44.3483 251.706 43.9155C254.672 43.6882 257.634 43.4069 260.598 43.1002C263.501 42.8016 266.408 42.6695 269.312 42.4997C271.993 42.3429 274.602 42.6416 277.244 43.0714C279.162 42.9167 280.691 41.744 281.83 39.556C282.456 38.1665 283.081 36.777 283.705 35.3889C284.931 31.681 285.666 27.8245 285.909 23.8247C286.207 19.8259 285.999 15.9057 285.284 12.0664C284.852 10.6054 284.42 9.14574 283.987 7.68466C283.153 5.3618 281.796 3.9952 279.917 3.58219C278.445 3.63825 276.971 3.74522 275.499 3.7811C274.158 3.81381 272.823 3.71542 271.487 3.63713C268.634 3.47222 265.776 3.41435 262.918 3.38061C256.977 3.31133 251.031 3.439 245.093 3.27608C233.589 2.9605 222.103 2.23158 210.584 2.35915C204.406 2.42684 198.23 2.5739 192.055 2.62837C186.444 2.68074 180.836 2.58437 175.231 2.48687C163.299 2.27388 151.367 2.20175 139.429 2.24062C127.64 2.28021 115.854 2.25957 104.066 2.30998C97.5486 2.33589 91.0333 2.32572 84.5203 2.28218C78.6834 2.24011 72.8532 1.8939 67.0316 1.58314C55.1115 0.945578 43.195 0.255918 31.2379 0.400848C28.2932 0.43641 25.3472 0.551028 22.4006 0.821288C20.0065 1.03768 17.6021 1.40637 15.2248 1.91778C13.3862 2.31534 11.5909 3.01241 9.78856 3.66873C8.73975 4.05131 7.69324 4.6796 6.75208 5.42909C4.87223 7.18588 3.49595 9.49339 2.62334 12.3502C0.651829 17.8313 -0.0130201 24.5064 0.342786 30.4052C0.478569 33.9623 1.14447 37.295 2.33962 40.4018C2.95271 41.3947 3.56887 42.3864 4.18404 43.3781C5.65459 44.8437 7.21916 44.9495 8.87474 43.6955C9.61685 43.1057 10.4017 42.6354 11.2091 42.258Z" fill="#FED137"/>
</svg>
