<svg width="125" height="45" viewBox="0 0 125 45" fill="none" xmlns="http://www.w3.org/2000/svg">
<path d="M119.82 1.00008C118.32 1.00008 117.154 1.19349 115.492 1.47073C114.551 1.62408 113.619 1.70175 112.686 1.75097C111.351 1.82002 110.024 1.83757 108.699 1.79734C106.175 1.72333 103.662 1.53207 101.154 1.29827C96.1272 0.829485 91.1018 0.405255 86.005 0.654712C80.7198 0.916775 75.4406 1.11755 70.1534 1.39826C65.1407 1.66592 60.128 1.93359 55.1323 2.01456C50.1294 2.09883 45.1365 2.11549 40.0983 2.58644C34.9433 3.06403 29.8318 3.07636 24.7288 2.98728C22.3076 2.94291 19.8735 2.95776 17.4009 3.51915C16.1101 3.81365 14.8166 4.16173 13.5204 4.5351C12.2507 4.89913 10.9925 5.09742 9.73238 5.33322C8.56907 5.55087 7.47072 5.31359 6.36808 4.94663C5.53269 5.14471 4.78805 6.34704 4.13443 8.55096C3.76122 9.94826 3.38844 11.3456 3.0158 12.7416C2.2107 16.4602 1.60572 20.3155 1.20059 24.3021C0.772458 28.289 0.567274 32.186 0.586154 35.9908C0.661978 37.435 0.737941 38.8779 0.814186 40.3222C0.997879 42.6149 1.47799 43.9439 2.25424 44.3117C2.89068 44.2221 3.53159 44.0818 4.16679 44.0122C4.74518 43.9488 5.31122 44.016 5.87891 44.0632C7.09214 44.1618 8.31523 44.1536 9.54041 44.1215C12.0873 44.0538 14.6508 43.79 17.1888 43.8156C22.1066 43.8652 26.9853 44.3265 31.9429 43.9346C34.6016 43.7252 37.2651 43.4368 39.9215 43.2406C42.3356 43.0594 44.7372 43.0264 47.1374 42.9946C52.2465 42.9322 57.3664 42.7295 62.497 42.4163C67.5635 42.1058 72.6246 41.8553 77.6914 41.5341C80.4929 41.3584 83.2907 41.2187 86.0849 41.1123C88.5888 41.0199 91.0671 41.2304 93.5443 41.4058C98.6164 41.7663 103.683 42.1787 108.83 41.7595C110.097 41.6564 111.371 41.4745 112.657 41.1378C113.702 40.8673 114.762 40.4451 115.822 39.8814C116.642 39.4434 117.465 38.7084 118.288 38.0137C118.768 37.6088 119.264 36.9594 119.725 36.1918C120.664 34.4 121.429 32.0717 122.018 29.2082C123.277 23.7076 124.064 17.0485 124.354 11.1856C124.563 7.6483 124.32 5.50013 123.82 4.50022C123.319 3.50032 123.035 3.16489 122.32 2.50019C121.486 1.72492 121.32 1.00008 119.82 1.00008Z" fill="#FED137"/>
</svg>
