<svg width="60" height="60" viewBox="0 0 60 60" fill="none" xmlns="http://www.w3.org/2000/svg">
<g clip-path="url(#clip0_106_1641)">
<path opacity="0.95" fill-rule="evenodd" clip-rule="evenodd" d="M59.9414 6.03516C59.9414 17.9493 59.9414 29.8632 59.9414 41.7773C59.5832 42.8194 58.88 43.5421 57.832 43.9453C55.9242 44.0945 54.0101 44.1727 52.0898 44.1797C54.7042 47.2956 55.7783 50.8698 55.3125 54.9023C54.9559 55.5325 54.4286 55.9426 53.7305 56.1328C42.5586 56.211 31.3867 56.211 20.2148 56.1328C19.6612 55.8475 19.4855 55.3982 19.6875 54.7852C19.8298 54.6036 20.0055 54.467 20.2148 54.375C31.2695 54.336 42.3243 54.2968 53.3789 54.2578C53.6067 54.056 53.7239 53.8021 53.7305 53.4961C53.2666 47.7011 50.376 43.6581 45.0586 41.3672C43.7339 40.8836 42.3668 40.61 40.957 40.5469C33.8476 40.4687 26.7383 40.4687 19.6289 40.5469C14.732 40.9174 11.0406 43.2026 8.55469 47.4023C7.39949 49.4838 6.89168 51.7104 7.03125 54.082C7.11919 54.1554 7.21685 54.214 7.32422 54.2578C10.4883 54.2968 13.6523 54.336 16.8164 54.375C17.3275 54.6359 17.5032 55.046 17.3438 55.6055C17.2461 55.8594 17.0704 56.0352 16.8164 56.1328C15.1758 56.1524 13.5352 56.1718 11.8945 56.1914C10.0916 56.2072 8.29477 56.1486 6.50391 56.0156C5.80174 55.704 5.35252 55.1767 5.15625 54.4336C4.95724 50.5777 6.07052 47.1598 8.49609 44.1797C6.34157 44.1735 4.19313 44.0954 2.05078 43.9453C1.00581 43.545 0.302688 42.8223 -0.0585938 41.7773C-0.0585938 35.0586 -0.0585938 28.3398 -0.0585938 21.6211C0.508278 21.0038 1.07468 21.0038 1.64062 21.6211C1.69922 25.9178 1.71875 30.2147 1.69922 34.5117C7.87121 34.4922 14.043 34.5117 20.2148 34.5703C20.8398 35.1172 20.8398 35.664 20.2148 36.2109C14.043 36.2695 7.87121 36.2891 1.69922 36.2695C1.6797 37.7934 1.69923 39.3169 1.75781 40.8398C1.77541 41.5215 2.10745 41.9707 2.75391 42.1875C5.33203 42.2657 7.91016 42.2657 10.4883 42.1875C12.72 40.2909 15.2981 39.1581 18.2227 38.7891C19.7439 38.6678 21.2673 38.6092 22.793 38.6133C22.8125 36.7379 22.793 34.8629 22.7344 32.9883C21.1587 31.5675 20.182 29.8097 19.8047 27.7148C19.7265 23.8086 19.7265 19.9023 19.8047 15.9961C20.6771 12.4675 22.9232 10.5339 26.543 10.1953C29.1601 10.1172 31.7774 10.1172 34.3945 10.1953C34.7946 10.2301 35.1852 10.3082 35.5664 10.4297C36.143 10.8988 36.182 11.4066 35.6836 11.9531C35.4452 12.071 35.1914 12.1296 34.9219 12.1289C32.0913 11.9974 29.2593 11.9779 26.4258 12.0703C23.4695 12.5657 21.8483 14.3039 21.5625 17.2852C21.4843 20.332 21.4843 23.3789 21.5625 26.4258C21.8605 30.0049 23.7551 32.212 27.2461 33.0469C29.2773 33.125 31.3086 33.125 33.3398 33.0469C36.5609 32.2867 38.4554 30.275 39.0234 27.0117C39.1016 23.5743 39.1016 20.1367 39.0234 16.6992C38.9191 15.6709 38.5286 14.7724 37.8516 14.0039C37.4217 13.1176 37.6757 12.5707 38.6133 12.3633C39.2313 12.6101 39.6805 13.0398 39.9609 13.6523C40.4852 14.5613 40.7978 15.5378 40.8984 16.582C40.9766 20.0586 40.9766 23.5351 40.8984 27.0117C40.6588 29.405 39.6432 31.3972 37.8516 32.9883C37.7931 33.4947 37.7735 34.0024 37.793 34.5117C44.5898 34.5117 51.3867 34.5117 58.1836 34.5117C58.2032 25.332 58.1836 16.1523 58.125 6.97266C58.1074 6.29099 57.7753 5.84178 57.1289 5.625C39.0039 5.54687 20.8789 5.54687 2.75391 5.625C2.10745 5.84178 1.77541 6.29099 1.75781 6.97266C1.71875 10.8398 1.67968 14.707 1.64062 18.5742C1.47739 18.9101 1.20396 19.0663 0.820312 19.043C0.425805 19.0512 0.132837 18.895 -0.0585938 18.5742C-0.0585938 14.3945 -0.0585938 10.2149 -0.0585938 6.03516C0.37108 4.80551 1.23046 4.04379 2.51953 3.75C20.8008 3.67187 39.082 3.67187 57.3633 3.75C58.6523 4.04379 59.5117 4.80551 59.9414 6.03516ZM24.668 34.1602C25.4439 34.54 26.2642 34.7939 27.1289 34.9219C29.2383 35 31.3477 35 33.457 34.9219C34.2679 34.8144 35.049 34.5995 35.8008 34.2773C35.9179 35.7205 35.9569 37.1659 35.918 38.6133C32.168 38.6133 28.418 38.6133 24.668 38.6133C24.668 37.1289 24.668 35.6446 24.668 34.1602ZM37.793 36.2695C44.5898 36.2695 51.3867 36.2695 58.1836 36.2695C58.2032 37.7934 58.1836 39.3169 58.125 40.8398C58.1074 41.5215 57.7753 41.9707 57.1289 42.1875C54.8242 42.2657 52.5196 42.2657 50.2148 42.1875C46.5717 39.3231 42.431 38.1708 37.793 38.7305C37.793 37.9102 37.793 37.0898 37.793 36.2695Z" fill="#3C3939"/>
<path opacity="0.918" fill-rule="evenodd" clip-rule="evenodd" d="M43.3007 8.61328C45.6057 8.59375 47.9104 8.61328 50.2148 8.67187C50.6498 8.96636 50.7864 9.37652 50.6249 9.90234C50.5154 10.2073 50.3006 10.383 49.9804 10.4297C47.7929 10.5078 45.6054 10.5078 43.4179 10.4297C42.52 9.8681 42.481 9.26263 43.3007 8.61328Z" fill="#3C3939"/>
<path opacity="0.91" fill-rule="evenodd" clip-rule="evenodd" d="M7.79297 10.2539C8.74977 10.0987 9.19898 10.4893 9.14062 11.4258C8.31178 12.6457 7.39382 13.798 6.38672 14.8828C7.26562 15.918 8.14453 16.9532 9.02344 17.9883C9.35123 19.223 8.90202 19.6723 7.67578 19.336C6.58765 18.0773 5.51343 16.8078 4.45312 15.5274C4.21875 15.0977 4.21875 14.668 4.45312 14.2383C5.54706 12.8908 6.66034 11.5627 7.79297 10.2539Z" fill="#FED137"/>
<path opacity="0.91" fill-rule="evenodd" clip-rule="evenodd" d="M13.418 10.2539C13.986 10.1766 14.4353 10.3719 14.7656 10.8398C15.6589 12.0068 16.5964 13.1396 17.5781 14.2382C17.8362 14.7353 17.7971 15.2041 17.4609 15.6445C16.4119 16.8641 15.3766 18.0945 14.3555 19.3359C13.2914 19.7127 12.8031 19.3415 12.8906 18.2226C13.7712 17.108 14.6501 15.9948 15.5273 14.8828C14.6501 13.7708 13.7712 12.6575 12.8906 11.5429C12.7472 10.9718 12.923 10.5421 13.418 10.2539Z" fill="#FED137"/>
<path opacity="0.919" fill-rule="evenodd" clip-rule="evenodd" d="M47.2851 13.1836C49.5901 13.164 51.8948 13.1836 54.1992 13.2422C54.414 13.3008 54.5508 13.4376 54.6094 13.6524C54.8114 14.2654 54.6356 14.7147 54.082 15C51.8554 15.0782 49.6289 15.0782 47.4023 15C46.5074 14.4433 46.4682 13.8379 47.2851 13.1836Z" fill="#FED137"/>
<path opacity="0.912" fill-rule="evenodd" clip-rule="evenodd" d="M46.5821 22.3243C47.5378 22.2447 47.948 22.6744 47.8125 23.6133C46.9336 24.7266 46.0547 25.8399 45.1758 26.9532C46.0104 28.0614 46.8893 29.1357 47.8125 30.1758C48.0664 30.9949 47.7734 31.4636 46.9336 31.5821C46.6276 31.5755 46.3737 31.4583 46.1719 31.2305C45.2786 30.0636 44.3411 28.9307 43.3594 27.8321C42.8125 27.2461 42.8125 26.6602 43.3594 26.0743C44.4092 24.7893 45.4834 23.5393 46.5821 22.3243Z" fill="#FED137"/>
<path opacity="0.914" fill-rule="evenodd" clip-rule="evenodd" d="M52.0898 22.3242C52.4918 22.2782 52.8628 22.3562 53.2031 22.5586C54.0964 23.7255 55.0339 24.8584 56.0156 25.957C56.4511 26.4087 56.5683 26.9166 56.3672 27.4805C55.2587 28.8626 54.1064 30.2102 52.9101 31.5234C51.8553 31.6792 51.4452 31.23 51.6797 30.1758C52.5165 29.0693 53.3954 27.995 54.3164 26.9531C53.3954 25.9112 52.5165 24.837 51.6797 23.7305C51.5148 23.1511 51.6514 22.6823 52.0898 22.3242Z" fill="#FED137"/>
<path opacity="0.918" fill-rule="evenodd" clip-rule="evenodd" d="M4.74603 24.7852C7.0901 24.7656 9.43385 24.7852 11.7773 24.8438C12.4445 25.5307 12.3664 26.1167 11.5429 26.6016C9.3554 26.6797 7.16791 26.6797 4.9804 26.6016C4.34694 26.3695 4.13209 25.9203 4.33587 25.2539C4.49707 25.1127 4.6338 24.9565 4.74603 24.7852Z" fill="#3C3939"/>
</g>
<defs>
<clipPath id="clip0_106_1641">
<rect width="60" height="60" fill="white"/>
</clipPath>
</defs>
</svg>
