<svg width="20" height="20" viewBox="0 0 20 20" fill="none" xmlns="http://www.w3.org/2000/svg">
<path d="M14.8242 5.23051C14.6406 5.31645 14.4766 5.48051 14.418 5.63676C14.3594 5.79301 14.3633 6.11332 14.4297 6.26176C14.4609 6.33207 15.1094 7.01176 15.8945 7.79301L17.3047 9.19926L8.91797 9.21879L0.527344 9.23832L0.378906 9.33207C0.296875 9.38285 0.183594 9.49613 0.125 9.58207C0.0351562 9.71488 0.0195312 9.78519 0.0195312 10C0.0195312 10.2149 0.0351562 10.2852 0.125 10.418C0.183594 10.5039 0.296875 10.6172 0.378906 10.668L0.527344 10.7618L8.91797 10.7813L17.3047 10.8008L15.8945 12.2071C15.1094 12.9883 14.4609 13.668 14.4297 13.7383C14.3633 13.8868 14.3594 14.2071 14.418 14.3633C14.5586 14.7422 15.0703 14.9454 15.4375 14.7735C15.6055 14.6954 19.75 10.625 19.8906 10.3985C20.0234 10.1836 20.0195 9.79691 19.8789 9.58598C19.7148 9.33988 15.6055 5.30473 15.4375 5.2266C15.25 5.13676 15.0195 5.14066 14.8242 5.23051Z" fill="white"/>
</svg>
