<svg width="92" height="103" viewBox="0 0 92 103" fill="none" xmlns="http://www.w3.org/2000/svg">
<path d="M64.3327 16.8324C64.2834 16.8324 64.2327 16.827 64.1821 16.815C63.8287 16.7324 63.6114 16.379 63.694 16.027C66.3474 4.74837 62.5007 2.67905 58.3327 1.52571C56.9474 1.14305 54.7887 1.07637 52.3807 2.94437C50.494 4.4097 48.2341 7.76837 47.7314 11.679C47.6861 12.039 47.3607 12.295 46.9967 12.2457C46.6381 12.2004 46.3847 11.8724 46.4301 11.5124C46.9021 7.84437 49.0181 3.89636 51.5767 1.9097C53.7901 0.192365 56.3127 -0.394299 58.6834 0.261701C63.5927 1.62037 67.7514 4.50703 64.9701 16.327C64.8994 16.6284 64.6301 16.8324 64.3327 16.8324Z" fill="#211E1E"/>
<path d="M0.655762 83.3655L23.2611 1.67367L90.8411 20.375L68.2358 102.066L0.655762 83.3655Z" fill="white"/>
<path d="M1.46249 82.9083L67.7784 101.259L90.0345 20.8323L23.7185 2.48165L1.46249 82.9083ZM68.2372 102.722C68.1785 102.722 68.1198 102.714 68.0611 102.698L0.479809 83.9979C0.313143 83.951 0.170481 83.84 0.0851477 83.6884C-0.000185624 83.5374 -0.0228471 83.3578 0.0238196 83.1895L22.6292 1.49898C22.6745 1.33231 22.7865 1.18965 22.9372 1.10432C23.0892 1.01765 23.2678 0.994991 23.4358 1.04165L91.0158 19.743C91.3652 19.839 91.5692 20.2003 91.4732 20.5496L68.8678 102.24C68.7878 102.531 68.5238 102.722 68.2372 102.722Z" fill="#211E1E"/>
<path d="M75.6595 13.3577C73.3061 12.5724 41.4448 3.69102 38.8381 3.04569C36.5035 11.4857 39.2621 13.799 46.7648 16.147C58.4341 19.8004 65.7102 21.7617 69.0755 21.251C73.3235 20.6057 75.2168 17.5244 75.6595 13.3577Z" fill="#FED137"/>
<path d="M39.3036 3.84433C37.4209 11.1737 39.6422 13.231 46.9609 15.5217C58.4356 19.1137 65.7169 21.0977 68.9782 20.6017C72.4209 20.079 74.3769 17.859 74.9423 13.8203C70.4769 12.471 44.1716 5.139 39.3036 3.84433ZM67.9156 21.983C64.0276 21.983 56.9836 20.0337 46.5689 16.7737C38.7996 14.3417 35.7476 11.7563 38.2063 2.86968C38.3009 2.52834 38.6503 2.32301 38.9956 2.40835C41.4769 3.02302 73.5223 11.9523 75.8676 12.7363C76.1596 12.8337 76.3449 13.1217 76.3115 13.427C75.7889 18.3403 73.3209 21.2697 69.1742 21.899C68.7996 21.9563 68.3796 21.983 67.9156 21.983Z" fill="#211E1E"/>
<path d="M70.9371 48.1723C70.9171 48.1723 70.8971 48.1697 70.8784 48.1643L38.2078 39.1243C38.0918 39.0923 38.0238 38.9723 38.0558 38.855C38.0878 38.7403 38.2078 38.6697 38.3251 38.703L70.9944 47.743C71.1104 47.775 71.1798 47.8963 71.1464 48.0123C71.1211 48.1083 71.0331 48.1723 70.9371 48.1723Z" fill="#211E1E"/>
<path d="M67.4436 60.7964C67.4236 60.7964 67.4049 60.7937 67.3849 60.7885L34.7156 51.7484C34.5996 51.7164 34.5302 51.595 34.5635 51.479C34.5942 51.363 34.7142 51.2937 34.8316 51.327L67.5022 60.3672C67.6182 60.3989 67.6862 60.5193 67.6542 60.6365C67.6276 60.7322 67.5396 60.7964 67.4436 60.7964Z" fill="#211E1E"/>
<path d="M63.9503 73.4203C63.9303 73.4203 63.9117 73.4176 63.8917 73.4124L31.2223 64.3723C31.1063 64.34 31.0371 64.2192 31.0704 64.1031C31.1011 63.9869 31.221 63.9176 31.3384 63.9509L64.0091 72.9911C64.1251 73.0228 64.193 73.1431 64.161 73.2603C64.1343 73.3561 64.0463 73.4203 63.9503 73.4203Z" fill="#211E1E"/>
<path d="M28.0914 38.2696C28.0354 38.2696 27.9794 38.263 27.9234 38.2483C27.7207 38.1936 27.5554 38.047 27.4794 37.851L25.5514 32.8696C25.4194 32.531 25.5874 32.151 25.9261 32.0216C26.2647 31.891 26.6434 32.0576 26.774 32.395L28.3767 36.535L32.686 33.0176C32.966 32.7883 33.3794 32.831 33.6087 33.111C33.8367 33.3923 33.7954 33.8056 33.5154 34.0336L28.5061 38.1216C28.3874 38.219 28.2407 38.2696 28.0914 38.2696Z" fill="#211E1E"/>
<path d="M24.4408 51.4603C24.3848 51.4603 24.3288 51.4536 24.2728 51.439C24.0701 51.3856 23.9047 51.2376 23.8301 51.0416L21.9008 46.0603C21.7701 45.7216 21.9381 45.343 22.2755 45.2123C22.6141 45.0816 22.9941 45.2483 23.1234 45.5856L24.7261 49.7256L29.0354 46.2083C29.3167 45.979 29.7287 46.0216 29.9581 46.3016C30.1874 46.583 30.1448 46.9963 29.8648 47.2243L24.8554 51.3136C24.7381 51.4096 24.5901 51.4603 24.4408 51.4603Z" fill="#211E1E"/>
<path d="M20.7916 64.6526C20.7356 64.6526 20.6796 64.6442 20.6249 64.6296C20.4209 64.5764 20.2556 64.428 20.1809 64.2322L18.2516 59.251C18.1196 58.9135 18.2876 58.5338 18.6249 58.4031C18.9649 58.2707 19.3436 58.44 19.4743 58.7764L21.0769 62.916L25.3862 59.3988C25.6662 59.1698 26.0796 59.2124 26.309 59.4936C26.537 59.7734 26.4956 60.187 26.2156 60.415L21.2063 64.504C21.0876 64.6004 20.9409 64.6526 20.7916 64.6526Z" fill="#211E1E"/>
</svg>
