<svg width="85" height="103" viewBox="0 0 85 103" fill="none" xmlns="http://www.w3.org/2000/svg">
<path d="M32.4998 83.6841C32.4998 83.6841 19.752 91.7442 16.3938 93.3734C18.3633 97.5566 20.3866 99.8609 24.0824 101.185C27.0692 102.254 29.6836 101.644 32.5262 99.9344C40.7088 95.012 32.4998 83.6841 32.4998 83.6841Z" fill="#FED137"/>
<path d="M17.2629 93.6657C19.1759 97.534 21.1266 99.43 24.3038 100.567C26.8956 101.496 29.2536 101.138 32.1885 99.3725C33.9186 98.3307 34.983 96.893 35.3507 95.096C36.1823 91.0249 33.3246 86.144 32.3111 84.578C29.9635 86.0563 20.8154 91.7952 17.2629 93.6657ZM34.6012 99.1528C34.1043 99.6497 33.5255 100.098 32.8636 100.496C29.6005 102.46 26.8239 102.863 23.8616 101.801C20.2054 100.493 17.9455 98.2082 15.8006 93.6516C15.6479 93.3272 15.7856 92.9388 16.1071 92.7832C19.3946 91.1889 32.0226 83.209 32.1499 83.1289C32.4422 82.9441 32.8278 83.0185 33.0305 83.2986C33.2237 83.5654 37.7502 89.8907 36.6358 95.3552C36.336 96.8297 35.6534 98.1007 34.6012 99.1528Z" fill="#211E1E"/>
<path d="M81.4523 51.0102C83.8169 55.4319 84.5891 60.9275 83.1551 66.1309C82.1312 69.8456 79.8553 71.8764 75.5909 74.4417C62.1597 82.5216 41.1605 94.7451 31.3845 100.627C35.2208 98.0431 39.2994 95.1298 32.7714 84.1404C20.8137 64.0105 1.25136 31.3582 1.25136 31.3582L51.7369 0.984722C51.7369 0.984722 79.2037 46.8081 81.4523 51.0102Z" fill="white"/>
<path d="M36.0703 97.0672C40.0517 94.7036 44.8601 91.8714 49.856 88.9289C58.3639 83.9188 68.0079 78.2384 75.2524 73.8788C79.2961 71.4473 81.5315 69.5532 82.5224 65.9564C83.8584 61.1094 83.2569 55.7751 80.8735 51.3193C78.7936 47.4312 54.6681 7.15157 51.5134 1.88503L2.14889 31.5826C4.79441 35.9987 22.3703 65.3464 33.3352 83.8066C37.3562 90.5751 37.4449 94.4821 36.0703 97.0672ZM80.831 71.4077C79.5639 72.6749 77.9413 73.7921 75.9284 75.0036C68.6782 79.3651 59.0324 85.0474 50.5216 90.0603C43.1677 94.3916 36.2201 98.4824 31.7229 101.188C31.4184 101.372 31.0224 101.28 30.831 100.979C30.6406 100.679 30.7245 100.28 31.0177 100.083C34.69 97.6084 38.4886 95.0506 32.2076 84.476C20.3876 64.5762 0.88369 32.0219 0.687581 31.6957C0.50185 31.3855 0.601778 30.982 0.91196 30.7962L51.3994 0.422714C51.5484 0.332205 51.7275 0.305825 51.8962 0.348249C52.065 0.390674 52.2102 0.498149 52.2998 0.646172C53.4217 2.51859 79.8015 46.5327 82.0293 50.7008C84.5702 55.4498 85.2104 61.1378 83.7867 66.3043C83.2078 68.4087 82.2377 70.0011 80.831 71.4077Z" fill="#211E1E"/>
<path d="M25.8493 29.5782C25.8361 29.5914 25.8219 29.6018 25.8068 29.6112L16.0799 35.4632C15.9762 35.5255 15.8423 35.4915 15.7791 35.3888C15.7169 35.2851 15.7499 35.1521 15.8545 35.0889L25.5815 29.2369C25.6852 29.1747 25.8191 29.2086 25.8813 29.3105C25.9341 29.3991 25.9181 29.5094 25.8493 29.5782Z" fill="#211E1E"/>
<path d="M31.6474 30.1931C31.6351 30.2053 31.6219 30.2166 31.6059 30.227L17.8748 38.486C17.7721 38.5492 17.6382 38.5152 17.575 38.4124C17.5128 38.3087 17.5458 38.1758 17.6495 38.1117L31.3806 29.8508C31.4834 29.7895 31.6182 29.8225 31.6804 29.9262C31.7342 30.0139 31.7172 30.1233 31.6474 30.1931Z" fill="#211E1E"/>
<path d="M59.6176 31.5234C59.6044 31.5366 59.5903 31.547 59.5752 31.5564L33.8138 47.0562C33.7101 47.1165 33.5763 47.0845 33.514 46.9808C33.4518 46.877 33.4839 46.745 33.5885 46.68L59.3498 31.1821C59.4535 31.1199 59.5884 31.1529 59.6506 31.2566C59.7025 31.3443 59.6864 31.4546 59.6176 31.5234Z" fill="#211E1E"/>
<path d="M65.4884 41.407C65.4752 41.4202 65.462 41.4315 65.446 41.44L39.6847 56.9397C39.5819 57.001 39.4471 56.968 39.3849 56.8643C39.3227 56.7606 39.3547 56.6286 39.4593 56.5636L65.2207 41.0657C65.3244 41.0034 65.4592 41.0364 65.5214 41.1401C65.5733 41.2278 65.5572 41.3382 65.4884 41.407Z" fill="#211E1E"/>
<path d="M71.3593 51.2923C71.3471 51.3046 71.333 51.3149 71.3179 51.3243L45.5556 66.8232C45.4519 66.8854 45.318 66.8515 45.2558 66.7478C45.1926 66.645 45.2266 66.513 45.3303 66.4489L71.0925 50.95C71.1953 50.8869 71.3292 50.9208 71.3914 51.0245C71.4452 51.1122 71.4291 51.2225 71.3593 51.2923Z" fill="#211E1E"/>
<path d="M25.4239 51.8465C25.0298 51.1828 25.2523 50.3173 25.9217 49.9137C26.592 49.5112 27.4537 49.7243 27.8488 50.389C28.2438 51.0536 28.0213 51.9191 27.351 52.3217C26.6826 52.7243 25.8199 52.5122 25.4239 51.8465Z" fill="#211E1E"/>
<path d="M26.1104 50.5925C25.87 50.8329 25.8097 51.2119 25.9888 51.5117L25.9878 51.5127C26.0887 51.6795 26.248 51.7993 26.4385 51.8464C26.6336 51.8964 26.8383 51.8652 27.0136 51.7597C27.3757 51.5428 27.4963 51.0771 27.2851 50.7226C27.1862 50.5557 27.0259 50.4369 26.8354 50.3879C26.6393 50.3388 26.4357 50.3709 26.2594 50.4755C26.2047 50.5095 26.1538 50.5491 26.1104 50.5925ZM28.0894 52.5714C27.9715 52.6893 27.8386 52.7939 27.6906 52.8835C27.2135 53.1701 26.6544 53.254 26.118 53.1192C25.5872 52.9844 25.1403 52.6525 24.8612 52.1811C24.2833 51.2091 24.6066 49.9391 25.5843 49.3517C26.0614 49.0651 26.6195 48.9821 27.156 49.117C27.6877 49.2508 28.1327 49.5827 28.4127 50.0532C28.902 50.8781 28.7446 51.9162 28.0894 52.5714Z" fill="#211E1E"/>
<path d="M31.2957 61.731C30.9007 61.0663 31.1231 60.2009 31.7935 59.7983C32.4619 59.3957 33.3246 59.6078 33.7196 60.2725C34.1147 60.9372 33.8922 61.8027 33.2228 62.2062C32.5534 62.6079 31.6907 62.3957 31.2957 61.731Z" fill="#211E1E"/>
<path d="M31.981 60.4762C31.7397 60.7176 31.6812 61.0966 31.8585 61.3964C31.9584 61.5642 32.1187 61.683 32.3082 61.7311C32.5043 61.7801 32.7089 61.749 32.8843 61.6434C33.2453 61.4275 33.367 60.9627 33.1567 60.6072C33.0568 60.4394 32.8965 60.3206 32.707 60.2725C32.5109 60.2235 32.3063 60.2546 32.1309 60.3602C32.0753 60.3932 32.0253 60.4319 31.981 60.4762ZM33.96 62.4552C33.8421 62.573 33.7092 62.6776 33.5612 62.7672C33.0842 63.0538 32.525 63.1377 31.9886 63.0029C31.4568 62.869 31.0109 62.5362 30.7309 62.0657C30.1529 61.0937 30.4782 59.8237 31.454 59.2364C31.9311 58.9498 32.4902 58.8659 33.0266 59.0007C33.5584 59.1346 34.0043 59.4674 34.2843 59.9378C34.7736 60.7628 34.6143 61.8009 33.96 62.4552Z" fill="#211E1E"/>
<path d="M37.0807 71.4721C36.6866 70.8084 36.9091 69.9429 37.5785 69.5394C38.2479 69.1359 39.1115 69.349 39.5065 70.0136C39.9016 70.6783 39.6791 71.5438 39.0087 71.9464C38.3393 72.3499 37.4757 72.1368 37.0807 71.4721Z" fill="#211E1E"/>
<path d="M37.7682 70.2171C37.5268 70.4585 37.4664 70.8375 37.6456 71.1373C37.7455 71.3051 37.9049 71.4249 38.0953 71.472C38.2914 71.521 38.496 71.4899 38.6714 71.3843C39.0325 71.1684 39.1531 70.7027 38.942 70.3482C38.842 70.1804 38.6827 70.0606 38.4922 70.0135C38.2961 69.9644 38.0925 69.9946 37.9162 70.1012C37.8615 70.1351 37.8115 70.1737 37.7682 70.2171ZM39.7461 72.197C39.6292 72.3139 39.4954 72.4195 39.3464 72.5082C38.8703 72.7957 38.3122 72.8787 37.7748 72.7429C37.244 72.61 36.7971 72.2781 36.518 71.8067C35.9401 70.8347 36.2644 69.5657 37.2411 68.9774C37.7172 68.6898 38.2754 68.6068 38.8118 68.7416C39.3436 68.8755 39.7914 69.2083 40.0696 69.6788C40.5608 70.5037 40.4014 71.5418 39.7461 72.197Z" fill="#211E1E"/>
</svg>
