<svg width="74" height="74" viewBox="0 0 74 74" fill="none" xmlns="http://www.w3.org/2000/svg">
<path d="M33.6823 61.4032C28.465 60.7232 23.4223 58.3846 19.4143 54.3766C9.75962 44.7219 9.75962 29.0686 19.4143 19.4139C28.3063 10.5219 42.2836 9.82589 51.9796 17.3126L60.1729 9.11921C45.9343 -2.84079 24.6649 -2.12612 11.2703 11.2685C-2.88306 25.4219 -2.88306 48.3685 11.2703 62.5219C17.5276 68.7792 25.505 72.2686 33.6823 72.9926V61.4032Z" fill="white"/>
<path d="M36.9426 1.38455C27.7626 1.38455 18.5987 4.86723 11.7333 11.7326C5.012 18.4539 1.31068 27.3899 1.31068 36.8952C1.31068 46.4006 5.012 55.3366 11.7333 62.0579C17.46 67.7832 24.9974 71.3925 33.0267 72.2685V61.9726C27.66 61.1526 22.8054 58.6939 18.952 54.8406C14.1587 50.0472 11.5187 43.6739 11.5187 36.8952C11.5187 30.1166 14.1587 23.7432 18.952 18.9499C27.812 10.0899 41.8854 9.05789 51.9187 16.4459L59.1987 9.1659C52.7334 3.95657 44.832 1.38455 36.9426 1.38455ZM33.6827 73.6486C33.6627 73.6486 33.644 73.6472 33.624 73.6459C25.0227 72.8832 16.9186 69.0979 10.8066 62.9845C3.83731 56.0165 0 46.7499 0 36.8952C0 27.0392 3.83731 17.7739 10.8066 10.8046C17.376 4.23522 26.1026 0.409897 35.3786 0.0312271C44.6066 -0.3461 53.556 2.70323 60.596 8.61656C60.736 8.73523 60.8214 8.90589 60.8294 9.08989C60.8374 9.27389 60.768 9.45256 60.6373 9.58189L52.4426 17.7766C52.2093 18.0099 51.84 18.0326 51.5786 17.8326C42.0386 10.4672 28.4106 11.3446 19.8786 19.8766C15.3333 24.4232 12.8294 30.4672 12.8294 36.8952C12.8294 43.3232 15.3333 49.3672 19.8786 53.9126C23.6626 57.6952 28.464 60.0619 33.7667 60.7525C34.0933 60.7952 34.3387 61.0739 34.3387 61.4032V72.9926C34.3387 73.1766 34.2613 73.3512 34.1253 73.4766C34.004 73.5872 33.8454 73.6486 33.6827 73.6486Z" fill="#211E1E"/>
<path d="M56.4785 21.8125C59.9225 26.2712 61.6386 31.6338 61.6159 36.9938L73.1079 38.3125C73.4479 29.5645 70.6358 20.7178 64.6732 13.6178L56.4785 21.8125Z" fill="#211E1E"/>
<path d="M62.268 36.4085L72.4733 37.5805C72.6346 29.2019 69.8653 21.0912 64.6253 14.5925L57.3453 21.8725C60.432 26.0685 62.1654 31.1885 62.268 36.4085ZM73.108 38.9685C73.0827 38.9685 73.0573 38.9672 73.0333 38.9645L61.5413 37.6458C61.2093 37.6072 60.96 37.3258 60.9613 36.9912C60.9827 31.6658 59.2053 26.4165 55.9586 22.2125C55.7573 21.9525 55.7813 21.5819 56.0146 21.3485L64.2093 13.1538C64.34 13.0232 64.5067 12.9512 64.7014 12.9619C64.8854 12.9699 65.0573 13.0552 65.1747 13.1952C71.0707 20.2152 74.12 29.1445 73.7627 38.3392C73.756 38.5205 73.6734 38.6925 73.5347 38.8112C73.4147 38.9138 73.264 38.9685 73.108 38.9685Z" fill="#211E1E"/>
<path d="M60.7702 43.3018C59.6862 47.3578 57.5596 51.1938 54.377 54.3765C50.353 58.4018 45.2849 60.7418 40.0449 61.4111V72.9978C48.2436 72.2871 56.2476 68.7965 62.5223 62.5218C67.6209 57.4231 70.8823 51.1845 72.3076 44.6258L60.7702 43.3018Z" fill="#FED137"/>
<path d="M40.7012 61.9818V72.2751C48.7559 71.4125 56.3159 67.8005 62.0599 62.0578C66.7252 57.3911 69.9825 51.5738 71.5052 45.1938L61.2519 44.0165C60.0625 48.0952 57.8545 51.8271 54.8412 54.8405C50.9705 58.7111 46.0932 61.1725 40.7012 61.9818ZM40.0451 73.6538C39.8811 73.6538 39.7225 73.5925 39.6025 73.4805C39.4665 73.3565 39.3892 73.1818 39.3892 72.9978V61.4111C39.3892 61.0805 39.6345 60.8018 39.9612 60.7605C45.2905 60.0805 50.1145 57.7125 53.9145 53.9125C56.8972 50.9285 59.0505 47.2005 60.1371 43.1325C60.2211 42.8178 60.5225 42.6125 60.8465 42.6498L72.3825 43.9738C72.5665 43.9951 72.7332 44.0938 72.8412 44.2445C72.9492 44.3952 72.9878 44.5832 72.9478 44.7645C71.4478 51.6685 68.0025 57.9685 62.9865 62.9845C56.8558 69.1151 48.7292 72.9031 40.1012 73.6511C40.0825 73.6525 40.0638 73.6538 40.0451 73.6538Z" fill="#211E1E"/>
</svg>
