<svg width="60" height="60" viewBox="0 0 60 60" fill="none" xmlns="http://www.w3.org/2000/svg">
<g clip-path="url(#clip0_106_1627)">
<path opacity="0.952" fill-rule="evenodd" clip-rule="evenodd" d="M59.9414 6.03516C59.9414 17.9493 59.9414 29.8632 59.9414 41.7773C59.5832 42.8194 58.88 43.5421 57.832 43.9453C55.9242 44.0945 54.0101 44.1727 52.0898 44.1797C54.7042 47.2956 55.7783 50.8698 55.3125 54.9023C54.9559 55.5325 54.4286 55.9426 53.7305 56.1328C51.6211 56.211 49.5117 56.211 47.4023 56.1328C46.7754 55.7131 46.6777 55.1857 47.1094 54.5508C47.2344 54.4698 47.3712 54.4112 47.5195 54.375C49.4727 54.336 51.4257 54.2968 53.3789 54.2578C53.6067 54.056 53.7239 53.8021 53.7305 53.4961C53.1816 47.2257 49.9393 43.0656 44.0039 41.0156C43.0039 40.7578 41.9884 40.6016 40.957 40.5469C33.8476 40.4687 26.7383 40.4687 19.6289 40.5469C14.0407 41.0247 10.1149 43.8177 7.85156 48.9258C7.17415 50.5819 6.90071 52.3007 7.03125 54.082C7.11919 54.1554 7.21685 54.214 7.32422 54.2578C19.4727 54.2968 31.6211 54.336 43.7695 54.375C44.305 54.6728 44.4807 55.1221 44.2969 55.7227C44.1546 55.9042 43.9788 56.0408 43.7695 56.1328C31.3426 56.249 18.9207 56.2099 6.50391 56.0156C5.80174 55.704 5.35252 55.1767 5.15625 54.4336C4.95724 50.5777 6.07052 47.1598 8.49609 44.1797C6.34157 44.1735 4.19313 44.0954 2.05078 43.9453C1.00581 43.545 0.302688 42.8223 -0.0585938 41.7773C-0.0585938 29.8632 -0.0585938 17.9493 -0.0585938 6.03516C0.37108 4.80551 1.23046 4.04379 2.51953 3.75C7.40235 3.67187 12.2851 3.67187 17.168 3.75C17.7216 4.03539 17.8973 4.4846 17.6953 5.09766C17.553 5.27916 17.3773 5.41588 17.168 5.50782C12.3633 5.54687 7.55859 5.58594 2.75391 5.625C2.10745 5.84178 1.77541 6.29099 1.75781 6.97266C1.69922 12.9491 1.67968 18.9257 1.69922 24.9023C2.44814 25.1421 3.07314 25.5718 3.57422 26.1914C3.90646 26.48 4.25802 26.4996 4.62891 26.25C6.32848 24.3117 8.00816 24.3507 9.66797 26.3672C9.90234 26.4454 10.1367 26.4454 10.3711 26.3672C10.7227 26.0156 11.0742 25.6641 11.4258 25.3125C11.9098 25.0072 12.4371 24.8314 13.0078 24.7852C13.9173 25.0659 14.1322 25.6324 13.6523 26.4844C13.3008 26.6016 12.9492 26.7188 12.5977 26.8359C12.1027 27.4884 11.4776 27.9572 10.7227 28.2422C10.1263 28.339 9.54032 28.2998 8.96484 28.125C8.32305 27.6591 7.69806 27.1709 7.08984 26.6602C6.89453 26.7578 6.69922 26.8555 6.50391 26.9531C5.48965 28.3698 4.20059 28.6823 2.63672 27.8906C2.30469 27.6367 2.01172 27.3437 1.75781 27.0117C1.69922 29.5114 1.6797 32.0114 1.69922 34.5117C3.26221 34.4922 4.8247 34.5117 6.38672 34.5703C7.01171 35.1172 7.01171 35.664 6.38672 36.2109C4.8247 36.2695 3.26221 36.2891 1.69922 36.2695C1.6797 37.7934 1.69923 39.3169 1.75781 40.8398C1.77541 41.5215 2.10745 41.9707 2.75391 42.1875C5.33203 42.2657 7.91016 42.2657 10.4883 42.1875C14.0827 39.3173 18.1842 38.1649 22.793 38.7305C22.793 37.9102 22.793 37.0898 22.793 36.2695C18.4178 36.2891 14.0428 36.2695 9.66797 36.2109C9.04297 35.664 9.04297 35.1172 9.66797 34.5703C14.0428 34.5117 18.4178 34.4922 22.793 34.5117C22.8124 34.0024 22.7929 33.4947 22.7344 32.9883C21.1587 31.5675 20.182 29.8097 19.8047 27.7148C19.7265 23.8086 19.7265 19.9023 19.8047 15.9961C20.3273 13.7547 21.675 12.2508 23.8477 11.4844C28.1339 10.7688 32.4308 10.1243 36.7383 9.55078C39.0923 9.65903 40.4791 10.87 40.8984 13.1836C41.0104 18.1085 40.9712 23.0304 40.7812 27.9492C40.3777 29.9681 39.401 31.6479 37.8516 32.9883C37.7931 33.4947 37.7735 34.0024 37.793 34.5117C44.5898 34.5117 51.3867 34.5117 58.1836 34.5117C58.2032 25.332 58.1836 16.1523 58.125 6.97266C58.1074 6.29099 57.7753 5.84178 57.1289 5.625C45.0196 5.58594 32.9101 5.54687 20.8008 5.50782C20.2107 5.15469 20.074 4.66642 20.3906 4.04297C20.4964 3.90218 20.6331 3.80452 20.8008 3.75C32.9883 3.67187 45.1758 3.67187 57.3633 3.75C58.6523 4.04379 59.5117 4.80551 59.9414 6.03516ZM36.0352 11.4258C37.5811 11.2109 38.5772 11.8358 39.0234 13.3008C39.1016 17.8711 39.1016 22.4414 39.0234 27.0117C38.4554 30.275 36.5609 32.2867 33.3398 33.0469C31.3086 33.125 29.2773 33.125 27.2461 33.0469C24.2678 32.3733 22.4123 30.5569 21.6797 27.5977C21.4473 23.8081 21.4473 20.019 21.6797 16.2305C22.0604 14.8731 22.9002 13.916 24.1992 13.3594C28.157 12.6967 32.1023 12.0522 36.0352 11.4258ZM10.3711 12.2461C12.1841 13.1719 13.9419 14.1875 15.6445 15.293C13.9159 16.3234 12.1775 17.3389 10.4297 18.3398C10.3711 16.309 10.3516 14.2778 10.3711 12.2461ZM49.8633 21.8555C51.9682 21.8704 52.9643 22.925 52.8516 25.0195C52.0936 26.8922 50.7851 27.4195 48.9258 26.6016C47.3633 25.1563 47.3633 23.7109 48.9258 22.2656C49.2373 22.0924 49.5498 21.9557 49.8633 21.8555ZM24.668 34.1602C25.4439 34.54 26.2642 34.7939 27.1289 34.9219C29.2383 35 31.3477 35 33.457 34.9219C34.2679 34.8144 35.049 34.5995 35.8008 34.2773C35.9179 35.7597 35.9569 37.2441 35.918 38.7305C32.168 38.7305 28.418 38.7305 24.668 38.7305C24.668 37.207 24.668 35.6836 24.668 34.1602ZM37.793 36.2695C44.5898 36.2695 51.3867 36.2695 58.1836 36.2695C58.2032 37.7934 58.1836 39.3169 58.125 40.8398C58.1074 41.5215 57.7753 41.9707 57.1289 42.1875C54.8242 42.2657 52.5196 42.2657 50.2148 42.1875C46.5717 39.3231 42.431 38.1708 37.793 38.7305C37.793 37.9102 37.793 37.0898 37.793 36.2695Z" fill="#322F2F"/>
<circle cx="50.5" cy="24.5" r="3.5" fill="#F6CB36"/>
<path opacity="0.91" fill-rule="evenodd" clip-rule="evenodd" d="M44.5898 8.49611C45.1065 8.39281 45.5167 8.54905 45.8203 8.96486C45.9408 11.2338 47.1322 12.4642 49.3945 12.6563C49.9481 12.9416 50.1239 13.3909 49.9219 14.0039C49.6564 14.3515 49.3049 14.5077 48.8672 14.4727C45.731 14.0324 44.1295 12.2354 44.0625 9.08204C44.1826 8.82575 44.3584 8.63045 44.5898 8.49611Z" fill="#F1C736"/>
<path opacity="0.926" fill-rule="evenodd" clip-rule="evenodd" d="M9.66797 10.1367C10.0217 10.1174 10.3733 10.1369 10.7227 10.1953C12.9102 11.4453 15.0976 12.6953 17.2852 13.9453C18.0925 14.8823 18.0533 15.7807 17.168 16.6406C15.293 17.7343 13.418 18.8282 11.543 19.9219C10.5591 20.6781 9.6411 20.6195 8.78907 19.7461C8.688 19.5601 8.60987 19.3648 8.55469 19.1601C8.47656 16.582 8.47656 14.0039 8.55469 11.4258C8.71144 10.7932 9.08254 10.3635 9.66797 10.1367ZM10.3711 12.2461C10.3516 14.2778 10.3711 16.309 10.4297 18.3398C12.1775 17.3389 13.9159 16.3234 15.6445 15.293C13.9419 14.1875 12.1841 13.1719 10.3711 12.2461Z" fill="#F1C736"/>
<path opacity="0.925" fill-rule="evenodd" clip-rule="evenodd" d="M49.629 19.9805C53.1733 19.9621 54.8725 21.7199 54.7266 25.2539C54.0132 27.9078 52.2748 29.0991 49.5118 28.8281C46.9468 28.0928 45.7553 26.3936 45.9376 23.7305C46.4095 21.7157 47.6399 20.4656 49.629 19.9805ZM49.8633 21.8555C49.5499 21.9557 49.2373 22.0924 48.9258 22.2656C47.3634 23.7109 47.3634 25.1563 48.9258 26.6016C50.7851 27.4196 52.0937 26.8922 52.8516 25.0196C52.9644 22.9251 51.9683 21.8704 49.8633 21.8555Z" fill="#F1C736"/>
<path d="M17 15L10.25 18.4641L10.25 11.5359L17 15Z" fill="#F6CB36"/>
</g>
<defs>
<clipPath id="clip0_106_1627">
<rect width="60" height="60" fill="white"/>
</clipPath>
</defs>
</svg>
