<svg width="1405" height="713" viewBox="0 0 1405 713" fill="none" xmlns="http://www.w3.org/2000/svg">
<path d="M30.9221 234.215C30.5263 234.215 30.1333 234.303 29.7678 234.48L8.19553 244.966C7.31673 245.393 6.74948 246.265 6.67846 247.299C6.61975 248.157 6.81484 249.014 7.24193 249.777C11.1103 256.692 17.9059 261.368 25.4202 262.287C27.0708 262.489 28.0774 263.008 28.4979 263.874C28.9183 264.739 28.7043 265.851 27.8435 267.273C23.9249 273.75 23.4041 281.983 26.4514 289.296C26.7876 290.104 27.3406 290.787 28.0518 291.271C28.9079 291.854 29.9439 291.946 30.8236 291.519L52.3958 281.033C53.2746 280.606 53.8419 279.735 53.9129 278.701C53.9716 277.843 53.7766 276.986 53.3495 276.222C49.4801 269.307 42.6845 264.631 35.1712 263.712C33.5206 263.51 32.514 262.991 32.0935 262.126C31.6721 261.261 31.8871 260.148 32.7479 258.726C36.6665 252.249 37.1874 244.016 34.14 236.703C33.8038 235.895 33.2498 235.212 32.5396 234.728C32.0386 234.388 31.4771 234.215 30.9221 234.215ZM29.6769 292.71C28.9316 292.71 28.1787 292.484 27.5281 292.041C26.6673 291.455 25.9978 290.631 25.5906 289.655C22.4305 282.068 22.9751 273.521 27.0471 266.791C27.7213 265.676 27.9278 264.832 27.6598 264.281C27.3927 263.73 26.6011 263.371 25.3075 263.212C17.4996 262.257 10.4427 257.404 6.42942 250.231C5.91331 249.31 5.67844 248.274 5.74947 247.235C5.84132 245.886 6.62356 244.695 7.78834 244.129L29.3605 233.643C30.5253 233.077 31.9449 233.197 33.0632 233.959C33.924 234.545 34.5936 235.37 34.9998 236.344C38.1609 243.931 37.6163 252.479 33.5443 259.208C32.8701 260.323 32.6627 261.168 32.9307 261.719C33.1987 262.269 33.9904 262.629 35.2839 262.787C43.0908 263.742 50.1486 268.595 54.162 275.768C54.6781 276.689 54.9129 277.726 54.8419 278.765C54.7491 280.114 53.9679 281.305 52.8031 281.871L31.2299 292.357C30.7432 292.594 30.2119 292.71 29.6769 292.71Z" fill="black"/>
<path d="M28.3724 251.856C24.7322 252.984 21.021 253.848 17.4878 255.293C20.1621 257.15 23.2066 258.366 26.3771 258.753C27.1205 258.845 27.8345 259.035 28.5021 259.312C28.6972 258.615 28.9889 257.937 29.3762 257.296C30.5845 255.3 31.4018 253.084 31.8317 250.768C30.6802 251.136 29.5268 251.498 28.3724 251.856Z" fill="#FFD42E"/>
<path d="M18.4891 255.399C20.9541 256.96 23.6833 257.955 26.4343 258.291C27.0403 258.366 27.635 258.503 28.2061 258.7C28.403 258.129 28.6625 257.577 28.9788 257.054C30.0101 255.35 30.761 253.468 31.2156 251.453C30.315 251.739 29.4135 252.021 28.511 252.302C27.3784 252.652 26.2222 252.982 25.1038 253.302C22.9134 253.927 20.6558 254.571 18.4891 255.399ZM28.5025 259.777C28.4418 259.777 28.3813 259.766 28.3244 259.742C27.6881 259.478 27.0138 259.301 26.3206 259.216C23.1444 258.827 19.9986 257.604 17.223 255.677C17.0828 255.579 17.0071 255.412 17.0251 255.243C17.044 255.073 17.1538 254.928 17.312 254.862C19.7741 253.855 22.3537 253.119 24.8481 252.406C25.9617 252.088 27.1123 251.759 28.2354 251.411C29.3879 251.054 30.5404 250.692 31.69 250.325C31.8463 250.275 32.0167 250.311 32.1398 250.419C32.2629 250.528 32.3198 250.693 32.2895 250.854C31.8415 253.272 30.9958 255.52 29.7752 257.536C29.4144 258.134 29.137 258.773 28.9513 259.437C28.9154 259.566 28.8264 259.672 28.7061 259.731C28.6417 259.762 28.5725 259.777 28.5025 259.777Z" fill="black"/>
<path d="M35.24 269.359C34.4967 269.269 33.7826 269.079 33.115 268.802C32.9208 269.498 32.6292 270.177 32.2409 270.818C29.5913 275.197 28.8091 280.633 29.9256 285.862L48.5015 276.833C45.0791 272.724 40.3215 269.982 35.24 269.359Z" fill="#FFD42E"/>
<path d="M33.4126 269.413C33.2147 269.985 32.9561 270.536 32.6398 271.058C30.1994 275.092 29.3453 280.206 30.2648 285.18L47.7555 276.678C44.4136 272.883 39.8625 270.395 35.1844 269.822C34.5774 269.748 33.9836 269.61 33.4126 269.413ZM29.9258 286.328C29.8557 286.328 29.7856 286.312 29.7212 286.281C29.5925 286.219 29.4997 286.1 29.4703 285.96C28.3207 280.576 29.1852 274.968 31.8425 270.576C32.2042 269.979 32.4817 269.341 32.6673 268.677C32.7033 268.548 32.7923 268.441 32.9116 268.383C33.0319 268.324 33.1701 268.321 33.2942 268.371C33.9306 268.635 34.6039 268.812 35.2971 268.897C40.3928 269.52 45.336 272.305 48.8597 276.535C48.9516 276.646 48.9876 276.791 48.9572 276.932C48.9269 277.072 48.8342 277.189 48.7054 277.252L30.1294 286.281C30.065 286.312 29.9949 286.328 29.9258 286.328Z" fill="black"/>
<path d="M60.125 279.312L24.6937 296.534L22.9939 293.035L58.4242 275.813L60.125 279.312Z" fill="white"/>
<path d="M23.6161 293.25L24.9096 295.911L59.5029 279.097L58.2093 276.435L23.6161 293.25ZM24.6937 297C24.6426 297 24.5915 296.991 24.5422 296.974C24.4248 296.934 24.3292 296.848 24.2752 296.738L22.5744 293.239C22.4617 293.008 22.5583 292.728 22.7903 292.616L58.2207 275.395C58.4517 275.281 58.7311 275.379 58.8428 275.61L60.5436 279.109C60.5985 279.219 60.6061 279.347 60.5654 279.465C60.5246 279.581 60.4394 279.677 60.3286 279.731L24.8973 296.953C24.8339 296.984 24.7638 297 24.6937 297Z" fill="black"/>
<path d="M37.5972 232.965L2.16688 250.187L0.466064 246.688L35.8964 229.466L37.5972 232.965Z" fill="white"/>
<path d="M1.08833 246.903L2.38188 249.564L36.9751 232.749L35.6815 230.088L1.08833 246.903ZM2.16599 250.652C2.11485 250.652 2.0637 250.643 2.01446 250.627C1.89704 250.587 1.80141 250.501 1.74743 250.39L0.0466555 246.89C-0.0650882 246.659 0.0305365 246.381 0.262547 246.269L35.6929 229.047C35.9249 228.934 36.2033 229.031 36.315 229.262L38.0158 232.761C38.0698 232.872 38.0774 233 38.0376 233.117C37.9969 233.234 37.9116 233.33 37.8008 233.384L2.36958 250.605C2.30613 250.637 2.23606 250.652 2.16599 250.652Z" fill="black"/>
<path d="M1399.61 94.2776L1304.64 39.4456C1301.94 37.8836 1298.48 39.0999 1297.34 42.0109L1282.23 80.8197C1281.32 83.1651 1282.25 85.8263 1284.43 87.0849L1289.8 90.1836L1278.44 110.264L1303.61 98.1609L1368.47 135.606C1370.65 136.864 1373.42 136.342 1375 134.378L1401.04 101.881C1403 99.4446 1402.32 95.8389 1399.61 94.2776Z" fill="white"/>
<path d="M1304.31 40.0137C1303.19 39.365 1301.84 39.2399 1300.62 39.6694C1299.39 40.0989 1298.42 41.0406 1297.95 42.2483L1282.84 81.0571C1282.04 83.1159 1282.85 85.4121 1284.76 86.5168L1290.13 89.6155C1290.44 89.7955 1290.55 90.1921 1290.37 90.5058L1280.04 108.767L1303.33 97.5692C1303.53 97.4758 1303.76 97.4848 1303.94 97.5935L1368.8 135.037C1370.71 136.142 1373.1 135.693 1374.49 133.967L1400.53 101.472C1401.34 100.459 1401.67 99.1476 1401.43 97.8728C1401.19 96.5968 1400.41 95.4944 1399.29 94.8457L1304.31 40.0137ZM1278.12 110.832C1278.06 110.8 1278.01 110.76 1277.97 110.712C1277.77 110.502 1277.73 110.19 1277.87 109.941L1288.91 90.4259L1284.1 87.6519C1281.63 86.2212 1280.58 83.2481 1281.62 80.5812L1296.73 41.7735C1297.34 40.2074 1298.6 38.9897 1300.18 38.4319C1301.77 37.8754 1303.51 38.0368 1304.97 38.8775L1399.94 93.7094C1401.4 94.5494 1402.41 95.9787 1402.72 97.6299C1403.03 99.2812 1402.6 100.98 1401.55 102.292L1375.51 134.787C1373.72 137.021 1370.62 137.603 1368.14 136.172L1303.59 98.9012L1278.73 110.854C1278.53 110.951 1278.3 110.938 1278.12 110.832Z" fill="black"/>
<path d="M1363.23 95.846L1320.08 70.928C1319.76 70.7467 1319.65 70.346 1319.84 70.0319C1320.02 69.719 1320.42 69.6116 1320.73 69.793L1363.89 94.711C1364.2 94.8916 1364.31 95.293 1364.13 95.6059C1363.95 95.92 1363.55 96.0267 1363.23 95.846Z" fill="black"/>
<path d="M1351.69 101.851L1321.4 84.3639C1321.09 84.1832 1320.98 83.7818 1321.16 83.4677C1321.34 83.1548 1321.75 83.047 1322.06 83.2276L1352.35 100.714C1352.66 100.896 1352.77 101.297 1352.59 101.61C1352.41 101.924 1352 102.032 1351.69 101.851Z" fill="black"/>
<path d="M116.29 80.7235C113.989 70.8666 104.022 64.7969 94.1682 67.3449C84.934 69.7321 79.1025 79.0444 80.9903 88.3931C82.0227 93.5051 85.0984 97.6486 89.1762 100.178C93.6449 102.95 96.9382 104.675 98.134 109.796L110.263 106.963C109.083 101.905 111.147 98.911 113.936 94.5303C116.455 90.576 117.441 85.6506 116.29 80.7235Z" fill="white"/>
<path d="M98.7361 67.1965C97.2516 67.1965 95.7564 67.3857 94.2772 67.7678C85.2145 70.1114 79.566 79.1323 81.4183 88.3061C82.3929 93.1319 85.2296 97.2159 89.406 99.8065C89.6939 99.9851 89.9764 100.159 90.2545 100.33C94.1306 102.716 97.2161 104.616 98.4536 109.273L109.744 106.636C108.765 101.821 110.675 98.8302 113.288 94.7337L113.567 94.2957C116.136 90.2623 116.952 85.4774 115.865 80.823C114.776 76.1615 111.921 72.2285 107.825 69.7498C105.035 68.0609 101.911 67.1965 98.7361 67.1965ZM98.1329 110.233C97.9348 110.233 97.7553 110.096 97.7082 109.895C96.6306 105.282 93.7637 103.517 89.796 101.074C89.518 100.903 89.2346 100.728 88.9458 100.549C84.5615 97.8307 81.5845 93.5441 80.5619 88.4793C78.6172 78.8507 84.5455 69.3811 94.0578 66.922C98.9298 65.6622 103.979 66.4005 108.277 69.0018C112.576 71.6039 115.573 75.7315 116.716 80.624C117.857 85.5093 117.001 90.5315 114.305 94.7648L114.025 95.2037C111.354 99.3899 109.59 102.155 110.689 106.864C110.715 106.977 110.696 107.095 110.635 107.194C110.573 107.292 110.476 107.362 110.363 107.389L98.2333 110.221C98.1995 110.228 98.1658 110.233 98.1329 110.233Z" fill="#211E1E"/>
<path d="M103.145 117.536L103.697 119.896L109.748 118.483L109.197 116.122L103.145 117.536ZM103.37 120.857C103.172 120.857 102.993 120.721 102.946 120.52L102.196 117.308C102.169 117.195 102.189 117.077 102.25 116.979C102.311 116.88 102.409 116.81 102.522 116.783L109.424 115.172C109.537 115.146 109.656 115.165 109.754 115.227C109.852 115.287 109.922 115.386 109.949 115.499L110.699 118.709C110.754 118.945 110.607 119.179 110.373 119.234L103.471 120.846C103.437 120.854 103.404 120.857 103.37 120.857Z" fill="#211E1E"/>
<path d="M97.5904 112.505L96.2693 106.845L110.629 103.492L111.951 109.153C112.876 113.118 110.413 117.083 106.448 118.009H106.447C102.482 118.935 98.517 116.471 97.5904 112.505Z" fill="#FED137"/>
<path d="M96.7934 107.171L98.2957 113.604C98.6422 115.089 99.5466 116.349 100.841 117.154C102.135 117.958 103.665 118.21 105.15 117.863L107.547 117.304C109.03 116.957 110.291 116.054 111.095 114.759C111.899 113.465 112.151 111.934 111.805 110.451L110.303 104.016L96.7934 107.171ZM103.839 118.89C102.627 118.89 101.435 118.552 100.379 117.895C98.8865 116.968 97.8444 115.515 97.4455 113.803L95.8429 106.944C95.7887 106.709 95.9344 106.474 96.1698 106.419L110.529 103.066C110.642 103.04 110.761 103.059 110.86 103.12C110.957 103.182 111.028 103.279 111.054 103.392L112.656 110.252C113.056 111.963 112.764 113.728 111.837 115.22C110.909 116.713 109.457 117.755 107.745 118.155L105.348 118.715C104.847 118.831 104.341 118.89 103.839 118.89Z" fill="#211E1E"/>
<path d="M98.5177 109.198C98.4511 109.198 98.3915 109.153 98.3756 109.086C98.3569 109.007 98.4058 108.929 98.4839 108.911L109.557 106.326C109.635 106.307 109.713 106.356 109.732 106.434C109.75 106.512 109.702 106.59 109.623 106.609L98.5506 109.194C98.5399 109.197 98.5283 109.198 98.5177 109.198Z" fill="#211E1E"/>
<path d="M94.5456 92.1893C94.4799 92.1893 94.4195 92.1449 94.4044 92.0774C94.3857 91.9992 94.4346 91.921 94.5127 91.9024L105.585 89.3171C105.663 89.2984 105.742 89.3473 105.76 89.4255C105.779 89.5037 105.73 89.5818 105.652 89.6005L94.5794 92.1858C94.5678 92.1884 94.5572 92.1893 94.5456 92.1893Z" fill="#211E1E"/>
<path d="M92.935 60.5823C92.7369 60.5823 92.5565 60.4455 92.5094 60.2447L90.92 53.436C90.865 53.2014 91.0116 52.966 91.2461 52.9109C91.4806 52.8567 91.7161 53.0024 91.7711 53.2379L93.3605 60.0457C93.4156 60.2803 93.2699 60.5157 93.0345 60.5699C93.0016 60.5779 92.9678 60.5823 92.935 60.5823Z" fill="#211E1E"/>
<path d="M113.604 62.7482C113.525 62.7482 113.445 62.7269 113.374 62.6825C113.168 62.5554 113.105 62.2854 113.233 62.081L116.923 56.1429C117.05 55.9377 117.32 55.8746 117.524 56.0025C117.729 56.1296 117.793 56.3988 117.665 56.604L113.975 62.5421C113.892 62.6754 113.749 62.7482 113.604 62.7482Z" fill="#211E1E"/>
<path d="M124.642 77.9072C124.444 77.9072 124.264 77.7713 124.217 77.5696C124.162 77.3342 124.308 77.0997 124.543 77.0446L131.351 75.4543C131.585 75.401 131.821 75.5458 131.877 75.7813C131.931 76.0158 131.785 76.2503 131.55 76.3063L124.742 77.8957C124.709 77.9037 124.675 77.9072 124.642 77.9072Z" fill="#211E1E"/>
<path d="M76.4283 71.429C76.3501 71.429 76.2702 71.4076 76.1982 71.3632L70.2601 67.6736C70.0548 67.5457 69.9918 67.2765 70.1197 67.0713C70.2467 66.867 70.5159 66.803 70.7212 66.9309L76.6593 70.6214C76.8645 70.7484 76.9276 71.0176 76.7997 71.2228C76.717 71.3561 76.5749 71.429 76.4283 71.429Z" fill="#211E1E"/>
<path d="M66.4363 91.499C66.2382 91.499 66.0587 91.3622 66.0116 91.1614C65.9566 90.926 66.1022 90.6906 66.3377 90.6364L73.1456 89.0461C73.3801 88.9919 73.6155 89.1376 73.6706 89.3722C73.7257 89.6076 73.5791 89.8421 73.3446 89.8972L66.5358 91.4866C66.5029 91.4946 66.4692 91.499 66.4363 91.499Z" fill="#211E1E"/>
<path d="M100.81 105.876C100.619 105.876 100.444 105.75 100.39 105.556C100.356 105.433 96.8561 93.1204 89.8955 89.2123C89.6849 89.0941 89.6103 88.8285 89.7284 88.6179C89.8466 88.4074 90.1122 88.3328 90.3228 88.4509C97.6024 92.5367 101.087 104.802 101.232 105.322C101.296 105.555 101.161 105.795 100.929 105.86C100.89 105.872 100.85 105.876 100.81 105.876Z" fill="#211E1E"/>
<path d="M105.933 104.68C105.727 104.68 105.544 104.535 105.504 104.325C105.404 103.795 103.097 91.2538 107.813 84.3669C107.949 84.1678 108.221 84.1163 108.421 84.2531C108.62 84.3891 108.671 84.6609 108.535 84.8599C104.023 91.4466 106.339 104.035 106.363 104.162C106.408 104.4 106.252 104.628 106.015 104.672C105.988 104.678 105.96 104.68 105.933 104.68Z" fill="#211E1E"/>
<path d="M90.0912 89.1909C89.8922 89.1909 89.7127 89.055 89.6656 88.8533C89.6114 88.6188 89.7571 88.3834 89.9916 88.3292C90.5531 88.1977 90.7566 87.821 91.0142 87.3439C91.3029 86.8091 91.6619 86.1437 92.6062 85.9233C93.5506 85.703 94.1681 86.1401 94.6638 86.4919C95.1054 86.8055 95.4554 87.0525 96.016 86.9219C96.5766 86.7913 96.78 86.4146 97.0368 85.9375C97.3255 85.4027 97.6844 84.7382 98.6288 84.517C99.574 84.2967 100.19 84.7347 100.685 85.0856C101.127 85.3992 101.477 85.647 102.037 85.5164C102.598 85.385 102.801 85.0083 103.058 84.5321C103.346 83.9973 103.705 83.3319 104.65 83.1115C105.595 82.8912 106.21 83.3292 106.705 83.6801C107.147 83.9937 107.496 84.2416 108.056 84.1101C108.29 84.0568 108.527 84.2016 108.581 84.437C108.636 84.6716 108.49 84.907 108.255 84.9621C107.31 85.1824 106.695 84.7444 106.199 84.3926C105.757 84.079 105.409 83.8311 104.849 83.9626C104.288 84.0932 104.085 84.4699 103.827 84.9461C103.539 85.4809 103.18 86.1463 102.236 86.3675C101.29 86.587 100.675 86.1499 100.179 85.7981C99.7375 85.4854 99.3884 85.2366 98.8278 85.3681C98.2663 85.4996 98.0637 85.8754 97.8061 86.3524C97.5183 86.8873 97.1594 87.5527 96.215 87.773C95.2706 87.9933 94.6531 87.5562 94.1583 87.2044C93.7159 86.8908 93.3667 86.6438 92.8052 86.7744C92.2438 86.905 92.0403 87.2826 91.7827 87.7588C91.4948 88.2936 91.135 88.959 90.1907 89.1802C90.1578 89.1874 90.124 89.1909 90.0912 89.1909Z" fill="#211E1E"/>
<path d="M194.871 35.7388C196.197 35.7388 197.271 36.8129 197.271 38.1384C197.271 39.4639 196.197 40.538 194.871 40.538C193.547 40.538 192.472 39.4639 192.472 38.1384C192.472 36.8129 193.547 35.7388 194.871 35.7388Z" fill="#211E1E"/>
<path d="M194.871 36.1759C193.789 36.1759 192.909 37.0563 192.909 38.1384C192.909 39.2205 193.789 40.1009 194.871 40.1009C195.953 40.1009 196.835 39.2205 196.835 38.1384C196.835 37.0563 195.953 36.1759 194.871 36.1759ZM194.871 40.9751C193.308 40.9751 192.035 39.702 192.035 38.1384C192.035 36.5739 193.308 35.3017 194.871 35.3017C196.436 35.3017 197.708 36.5739 197.708 38.1384C197.708 39.702 196.436 40.9751 194.871 40.9751Z" fill="#211E1E"/>
<path d="M167.55 68.419C167.392 68.419 167.245 68.3328 167.168 68.1942L150.117 37.4757L108.483 29.2285C108.246 29.1824 108.092 28.9522 108.139 28.715C108.186 28.4787 108.415 28.3259 108.653 28.3712L150.486 36.6574C150.612 36.6823 150.721 36.7614 150.783 36.8742L167.801 67.535L205.166 66.1242C205.409 66.1162 205.609 66.3037 205.619 66.5445C205.628 66.7861 205.44 66.9887 205.199 66.9975L167.566 68.419C167.56 68.419 167.555 68.419 167.55 68.419Z" fill="#211E1E"/>
<path d="M161.504 65.7147C162.862 62.352 166.688 60.7262 170.051 62.0837C173.414 63.4412 175.039 67.2685 173.682 70.6311C172.324 73.9938 168.498 75.6196 165.134 74.2612C161.772 72.9037 160.147 69.0773 161.504 65.7147Z" fill="#FED137"/>
<path d="M167.592 62.0403C166.779 62.0403 165.967 62.2046 165.197 62.5316C163.69 63.1721 162.523 64.3599 161.91 65.8782C161.297 67.3965 161.312 69.0623 161.951 70.569C162.592 72.0766 163.781 73.244 165.299 73.857C166.816 74.47 168.483 74.454 169.99 73.8144C171.496 73.1747 172.664 71.9851 173.277 70.4677C174.542 67.3334 173.022 63.754 169.888 62.4889C169.146 62.1895 168.368 62.0403 167.592 62.0403ZM167.594 75.1799C166.707 75.1799 165.819 75.0093 164.971 74.6673C163.237 73.9663 161.879 72.6328 161.147 70.9111C160.416 69.1893 160.398 67.2854 161.099 65.5513C162.545 61.9701 166.634 60.2341 170.214 61.6787C171.95 62.3788 173.307 63.7131 174.038 65.4349C174.77 67.1566 174.787 69.0596 174.087 70.7947C173.387 72.5288 172.053 73.8872 170.331 74.6184C169.45 74.9924 168.523 75.1799 167.594 75.1799Z" fill="#211E1E"/>
<path d="M146.251 35.411C147.177 33.1189 149.784 32.0111 152.076 32.9359C154.369 33.8616 155.476 36.4691 154.551 38.7612C153.626 41.0533 151.018 42.1612 148.726 41.2363C146.434 40.3106 145.326 37.7022 146.251 35.411Z" fill="#211E1E"/>
<path d="M150.406 33.0477C148.807 33.0477 147.291 34.0037 146.656 35.5744C146.253 36.5747 146.263 37.6719 146.685 38.6651C147.106 39.6575 147.889 40.4269 148.89 40.8302C149.89 41.2344 150.987 41.2246 151.98 40.8026C152.973 40.3807 153.742 39.598 154.146 38.5976C154.55 37.5973 154.54 36.5001 154.118 35.5068C153.696 34.5145 152.913 33.7451 151.913 33.3418C151.419 33.1419 150.908 33.0477 150.406 33.0477ZM150.402 42.0002C149.779 42.0002 149.157 41.8803 148.563 41.6404C147.346 41.1491 146.393 40.2145 145.88 39.0063C145.367 37.7989 145.355 36.4637 145.846 35.2474C146.337 34.0303 147.273 33.0779 148.48 32.5644C149.688 32.0518 151.023 32.0394 152.24 32.5307C153.457 33.022 154.41 33.9574 154.922 35.1657C155.436 36.373 155.447 37.7083 154.956 38.9246C154.465 40.1417 153.529 41.0941 152.322 41.6076C151.704 41.8687 151.053 42.0002 150.402 42.0002Z" fill="#211E1E"/>
<path d="M204.875 62.4497C204.343 62.4497 203.81 62.5563 203.304 62.7713C202.316 63.1907 201.551 63.9698 201.15 64.9657C200.747 65.9607 200.757 67.0535 201.177 68.0414C201.597 69.0293 202.376 69.7942 203.372 70.1967C204.367 70.5982 205.459 70.5885 206.447 70.1682C207.434 69.7489 208.2 68.9698 208.602 67.9739C209.432 65.9199 208.435 63.5736 206.38 62.7438C205.894 62.5475 205.384 62.4497 204.875 62.4497ZM204.877 71.3649C204.257 71.3649 203.636 71.2459 203.044 71.0069C201.833 70.5174 200.883 69.5855 200.372 68.3825C199.862 67.1796 199.85 65.8506 200.34 64.6388C200.828 63.427 201.76 62.4782 202.963 61.9673C204.165 61.4565 205.495 61.4441 206.707 61.9336C209.209 62.9437 210.422 65.7999 209.412 68.3017C208.923 69.5135 207.991 70.4623 206.789 70.9731C206.174 71.2343 205.525 71.3649 204.877 71.3649Z" fill="#211E1E"/>
<path d="M108.368 25.8748C107.941 25.8748 107.515 25.9601 107.11 26.1324C106.319 26.4683 105.707 27.0919 105.385 27.8888C105.064 28.6857 105.071 29.5599 105.406 30.3515C105.743 31.1422 106.367 31.7543 107.164 32.0759C107.961 32.3984 108.835 32.3904 109.625 32.0546C110.416 31.7188 111.029 31.0942 111.351 30.2973C112.015 28.6528 111.217 26.7739 109.572 26.1102C109.183 25.953 108.775 25.8748 108.368 25.8748ZM108.363 33.1846C107.854 33.1846 107.337 33.0887 106.837 32.887C105.823 32.4775 105.03 31.6983 104.602 30.6927C104.175 29.687 104.165 28.5747 104.575 27.5619C104.984 26.5491 105.763 25.7557 106.768 25.3275C107.774 24.9002 108.886 24.8913 109.899 25.3C111.991 26.144 113.006 28.5329 112.161 30.6242C111.519 32.2163 109.982 33.1846 108.363 33.1846Z" fill="#211E1E"/>
<path d="M1229.6 545C1231.59 545 1233.2 546.612 1233.2 548.601C1233.2 550.591 1231.59 552.203 1229.6 552.203C1227.61 552.203 1226 550.591 1226 548.601C1226 546.612 1227.61 545 1229.6 545Z" fill="#211E1E"/>
<path d="M1358.03 546.018C1357.8 546.151 1357.5 546.135 1357.28 545.955C1357 545.724 1356.96 545.311 1357.19 545.032C1358.35 543.634 1359.71 542.421 1361.25 541.428C1361.56 541.229 1361.96 541.319 1362.15 541.622C1362.35 541.927 1362.26 542.333 1361.96 542.53C1360.54 543.449 1359.28 544.573 1358.2 545.868C1358.15 545.93 1358.09 545.98 1358.03 546.018ZM1371.88 539.77C1371.78 539.829 1371.66 539.862 1371.53 539.858C1369.84 539.803 1368.16 540.004 1366.54 540.458C1366.19 540.555 1365.83 540.352 1365.73 540.003C1365.63 539.654 1365.84 539.293 1366.19 539.195C1367.94 538.705 1369.75 538.487 1371.57 538.546C1371.93 538.558 1372.22 538.861 1372.21 539.222C1372.2 539.457 1372.07 539.661 1371.88 539.77ZM1354.13 555.582C1354.01 555.647 1353.88 555.68 1353.74 555.668C1353.38 555.638 1353.11 555.32 1353.14 554.959C1353.3 553.147 1353.72 551.374 1354.41 549.687C1354.55 549.351 1354.93 549.19 1355.27 549.327C1355.6 549.464 1355.76 549.846 1355.63 550.182C1354.99 551.746 1354.59 553.391 1354.45 555.071C1354.43 555.293 1354.3 555.479 1354.13 555.582ZM1381.63 543.166C1381.41 543.294 1381.13 543.286 1380.91 543.126C1379.56 542.122 1378.07 541.331 1376.47 540.777C1376.13 540.657 1375.95 540.284 1376.07 539.941C1376.19 539.6 1376.56 539.419 1376.9 539.538C1378.62 540.137 1380.24 540.99 1381.7 542.072C1381.99 542.288 1382.05 542.699 1381.83 542.99C1381.78 543.064 1381.71 543.123 1381.63 543.166ZM1387.7 551.525C1387.66 551.547 1387.62 551.564 1387.58 551.578C1387.24 551.694 1386.87 551.51 1386.75 551.167C1386.4 550.127 1385.94 549.114 1385.39 548.156C1385.1 547.656 1384.78 547.167 1384.45 546.701C1384.23 546.408 1384.3 545.997 1384.59 545.784C1384.88 545.578 1385.3 545.637 1385.51 545.93C1385.87 546.434 1386.21 546.962 1386.52 547.5C1387.12 548.533 1387.61 549.625 1387.99 550.747C1388.1 551.048 1387.97 551.373 1387.7 551.525ZM1358.49 568.578C1358.23 568.73 1357.89 568.682 1357.68 568.447C1356.85 567.524 1356.11 566.506 1355.48 565.421C1354.57 563.838 1353.91 562.139 1353.51 560.372C1353.43 560.017 1353.65 559.667 1354.01 559.588C1354.36 559.51 1354.71 559.732 1354.79 560.085C1355.16 561.723 1355.77 563.298 1356.62 564.766C1357.2 565.772 1357.88 566.716 1358.65 567.571C1358.89 567.84 1358.87 568.255 1358.6 568.497C1358.57 568.528 1358.53 568.555 1358.49 568.578ZM1387.91 561.852C1387.76 561.938 1387.58 561.966 1387.4 561.914C1387.05 561.813 1386.85 561.449 1386.95 561.102C1387.42 559.479 1387.65 557.803 1387.61 556.118C1387.61 555.756 1387.89 555.456 1388.26 555.45C1388.62 555.442 1388.92 555.73 1388.93 556.092C1388.96 557.91 1388.72 559.718 1388.21 561.468C1388.16 561.636 1388.05 561.771 1387.91 561.852ZM1367.38 573.836C1367.24 573.917 1367.07 573.947 1366.9 573.906C1365.13 573.489 1363.44 572.808 1361.87 571.884C1361.56 571.7 1361.46 571.298 1361.64 570.985C1361.82 570.675 1362.23 570.57 1362.54 570.755C1363.99 571.612 1365.56 572.243 1367.2 572.63C1367.56 572.713 1367.77 573.066 1367.69 573.418C1367.65 573.601 1367.53 573.749 1367.38 573.836ZM1382.19 570.453C1381.92 570.612 1381.56 570.552 1381.36 570.297C1381.13 570.016 1381.17 569.603 1381.45 569.376C1382.77 568.316 1383.9 567.066 1384.84 565.661C1385.04 565.36 1385.44 565.278 1385.75 565.478C1386.05 565.677 1386.13 566.084 1385.93 566.386C1384.92 567.903 1383.69 569.252 1382.28 570.395C1382.25 570.418 1382.22 570.436 1382.19 570.453ZM1377.68 573.086C1377.65 573.102 1377.63 573.117 1377.6 573.128C1375.9 573.8 1374.12 574.208 1372.31 574.338C1371.95 574.364 1371.63 574.093 1371.61 573.732C1371.58 573.37 1371.85 573.056 1372.21 573.03C1373.9 572.909 1375.54 572.532 1377.11 571.91C1377.45 571.776 1377.83 571.941 1377.96 572.277C1378.08 572.583 1377.96 572.926 1377.68 573.086Z" fill="#211E1E"/>
<path d="M1181.64 453.783C1181.57 453.783 1181.49 453.771 1181.42 453.746C1179.91 453.206 1178.21 453.169 1176.67 453.637C1176.33 453.742 1175.96 453.546 1175.86 453.199C1175.75 452.853 1175.95 452.487 1176.29 452.381C1178.1 451.833 1180.08 451.877 1181.86 452.51C1182.2 452.631 1182.38 453.006 1182.26 453.347C1182.16 453.615 1181.91 453.783 1181.64 453.783ZM1170.66 461.535C1170.29 461.535 1170 461.241 1170 460.879C1170 458.958 1170.6 457.13 1171.74 455.593C1171.96 455.302 1172.37 455.241 1172.66 455.457C1172.95 455.671 1173.01 456.082 1172.8 456.374C1171.83 457.683 1171.31 459.242 1171.31 460.879C1171.31 461.241 1171.02 461.535 1170.66 461.535ZM1187.1 461.915C1187.09 461.915 1187.08 461.914 1187.07 461.914C1186.71 461.898 1186.43 461.593 1186.44 461.23C1186.45 461.114 1186.45 460.997 1186.45 460.879C1186.45 459.367 1186.01 457.909 1185.17 456.659C1184.96 456.359 1185.04 455.951 1185.34 455.749C1185.64 455.547 1186.05 455.626 1186.25 455.927C1187.24 457.393 1187.76 459.106 1187.76 460.879C1187.76 461.015 1187.76 461.151 1187.75 461.287C1187.74 461.639 1187.45 461.915 1187.1 461.915ZM1175.77 469.15C1175.68 469.15 1175.6 469.135 1175.52 469.102C1173.77 468.387 1172.27 467.102 1171.29 465.486C1171.1 465.175 1171.2 464.773 1171.51 464.585C1171.81 464.397 1172.22 464.494 1172.41 464.805C1173.25 466.183 1174.53 467.278 1176.02 467.887C1176.35 468.025 1176.51 468.407 1176.37 468.743C1176.27 468.997 1176.03 469.15 1175.77 469.15ZM1180.91 469.507C1180.62 469.507 1180.35 469.309 1180.28 469.013C1180.19 468.662 1180.4 468.305 1180.75 468.215C1182.31 467.821 1183.73 466.913 1184.75 465.661C1184.98 465.381 1185.39 465.337 1185.67 465.566C1185.95 465.795 1185.99 466.209 1185.77 466.49C1184.57 467.958 1182.9 469.022 1181.07 469.487C1181.02 469.501 1180.97 469.507 1180.91 469.507Z" fill="#211E1E"/>
<path d="M384.889 38.0316C384.375 39.9518 382.4 41.0929 380.479 40.5781C378.557 40.0632 377.418 38.0876 377.932 36.1674C378.447 34.2458 380.421 33.1059 382.343 33.6208C384.264 34.1357 385.404 36.11 384.889 38.0316Z" fill="#211E1E"/>
<path d="M472.332 79.9687C472.401 79.7111 472.622 79.5124 472.904 79.4858C473.264 79.4524 473.584 79.7162 473.618 80.0773C473.788 81.8843 473.682 83.7057 473.301 85.4904C473.217 85.8557 472.876 86.0696 472.523 85.9942C472.167 85.9183 471.942 85.5707 472.018 85.2156C472.371 83.5627 472.47 81.8734 472.312 80.1996C472.305 80.1203 472.312 80.0421 472.332 79.9687ZM466.955 94.1815C466.986 94.0668 467.048 93.9592 467.14 93.8721C468.373 92.7172 469.418 91.3878 470.244 89.9194C470.422 89.6041 470.82 89.4928 471.137 89.6702C471.453 89.8472 471.566 90.246 471.387 90.5625C470.496 92.1472 469.368 93.583 468.037 94.8304C467.774 95.0772 467.358 95.0638 467.111 94.8002C466.95 94.6287 466.899 94.3927 466.955 94.1815ZM468.328 70.4466C468.361 70.3217 468.431 70.2051 468.538 70.1151C468.815 69.8814 469.229 69.9165 469.463 70.1931C470.635 71.5838 471.587 73.1394 472.294 74.8182C472.435 75.1514 472.278 75.5359 471.944 75.6768C471.611 75.8167 471.226 75.6599 471.085 75.3266C470.43 73.7706 469.546 72.3275 468.459 71.0394C468.315 70.8685 468.274 70.6463 468.328 70.4466ZM457.656 98.6772C457.722 98.4312 457.927 98.2364 458.193 98.1972C459.859 97.9507 461.475 97.4533 462.996 96.7165C463.323 96.5597 463.714 96.6962 463.872 97.0217C464.029 97.3481 463.892 97.7407 463.567 97.8979C461.926 98.6921 460.182 99.2285 458.385 99.4952C458.027 99.5483 457.693 99.3001 457.64 98.9422C457.628 98.8504 457.634 98.7609 457.656 98.6772ZM447.454 97.0576C447.465 97.0164 447.482 96.9753 447.501 96.9362C447.662 96.6109 448.055 96.4788 448.38 96.6389C449.363 97.126 450.404 97.518 451.473 97.8044C452.029 97.9548 452.599 98.076 453.169 98.1664C453.526 98.2236 453.77 98.5607 453.713 98.9181C453.653 99.2706 453.32 99.5195 452.962 99.4624C452.348 99.3641 451.733 99.2325 451.133 99.0717C449.98 98.7629 448.86 98.3397 447.798 97.8151C447.513 97.6738 447.375 97.3525 447.454 97.0576ZM456.051 64.3453C456.13 64.0517 456.405 63.8438 456.721 63.8608C457.959 63.9275 459.2 64.1263 460.41 64.4504C462.176 64.9235 463.847 65.6557 465.376 66.6245C465.683 66.8199 465.775 67.2228 465.579 67.5306C465.384 67.8359 464.979 67.9261 464.674 67.7324C463.257 66.8337 461.708 66.1549 460.071 65.7163C458.949 65.4158 457.797 65.2315 456.65 65.1698C456.288 65.1514 456.01 64.8424 456.03 64.4805C456.033 64.433 456.039 64.3891 456.051 64.3453ZM440.004 89.903C440.049 89.7368 440.159 89.587 440.322 89.4982C440.64 89.3237 441.038 89.44 441.213 89.7561C442.026 91.2371 443.054 92.5808 444.269 93.7484C444.53 93.9992 444.539 94.4144 444.287 94.6753C444.036 94.9367 443.621 94.9443 443.36 94.6934C442.049 93.4339 440.94 91.9854 440.063 90.3881C439.979 90.2344 439.962 90.0601 440.004 89.903ZM446.047 66.9129C446.089 66.7571 446.187 66.6164 446.336 66.5251C447.885 65.5654 449.563 64.8501 451.323 64.3981C451.673 64.3069 452.031 64.5187 452.121 64.8701C452.212 65.2187 452.001 65.5777 451.649 65.6685C450.017 66.087 448.462 66.7511 447.025 67.6403C446.718 67.8311 446.314 67.7353 446.123 67.4275C446.024 67.2683 446.002 67.0816 446.047 66.9129ZM437.966 79.7784C438.048 79.4719 438.343 79.2611 438.668 79.297C439.028 79.3341 439.289 79.658 439.25 80.0176C439.071 81.6952 439.15 83.3838 439.484 85.0373C439.555 85.3917 439.326 85.7374 438.971 85.8094C438.616 85.8814 438.271 85.6521 438.199 85.2961C437.838 83.5125 437.753 81.6898 437.947 79.8796C437.95 79.8444 437.957 79.8106 437.966 79.7784ZM439.293 74.7271C439.301 74.6962 439.311 74.6656 439.324 74.6361C440.047 72.9635 441.016 71.4177 442.208 70.0418C442.446 69.7674 442.859 69.7375 443.133 69.9749C443.407 70.2115 443.437 70.6253 443.199 70.8998C442.096 72.1749 441.198 73.6058 440.528 75.1561C440.385 75.4878 439.999 75.641 439.666 75.498C439.364 75.3674 439.21 75.0362 439.293 74.7271Z" fill="#211E1E"/>
<path d="M485.411 15.313C485.43 15.2422 485.461 15.1732 485.504 15.1102C486.418 13.7869 486.892 12.1597 486.838 10.5549C486.826 10.1928 487.11 9.88929 487.472 9.87727C487.834 9.86525 488.137 10.1478 488.15 10.5103C488.213 12.3947 487.656 14.301 486.585 15.8538C486.379 16.1521 485.971 16.2277 485.673 16.0221C485.439 15.8601 485.341 15.5732 485.411 15.313ZM480.766 2.69694C480.86 2.34663 481.221 2.13957 481.57 2.23309C483.425 2.73037 485.035 3.78563 486.225 5.28597C486.45 5.56984 486.403 5.98237 486.119 6.20723C485.836 6.43372 485.424 6.38539 485.197 6.10117C484.184 4.82341 482.812 3.92288 481.23 3.49911C480.881 3.40559 480.673 3.04597 480.766 2.69694ZM476.144 18.4797C476.146 18.4707 476.15 18.462 476.153 18.4517C476.262 18.1068 476.629 17.9154 476.976 18.0234C477.086 18.0586 477.199 18.0915 477.312 18.1219C478.773 18.5132 480.297 18.4619 481.721 17.9739C482.063 17.857 482.436 18.0387 482.554 18.3822C482.671 18.7241 482.489 19.0978 482.146 19.2143C480.475 19.7881 478.686 19.8482 476.973 19.3892C476.841 19.354 476.711 19.3162 476.581 19.2746C476.245 19.1693 476.053 18.8171 476.144 18.4797ZM472.088 5.66266C472.11 5.58281 472.146 5.50542 472.199 5.43549C473.341 3.93459 474.972 2.81455 476.787 2.28361C477.136 2.18243 477.499 2.38068 477.601 2.72813C477.702 3.07558 477.504 3.44059 477.155 3.54178C475.606 3.99504 474.217 4.94938 473.243 6.23025C473.024 6.51797 472.613 6.57482 472.324 6.3552C472.106 6.18918 472.021 5.91252 472.088 5.66266ZM470.411 10.5402C470.487 10.2568 470.748 10.0507 471.054 10.0539C471.416 10.0583 471.706 10.3569 471.701 10.7187C471.68 12.3239 472.189 13.9304 473.134 15.2423C473.345 15.535 473.281 15.9457 472.986 16.1581C472.692 16.3692 472.282 16.3034 472.07 16.0091C470.962 14.4713 470.365 12.5873 470.389 10.7012C470.39 10.6449 470.398 10.5917 470.411 10.5402Z" fill="#211E1E"/>
<path d="M1289.85 684.981C1289.77 685.003 1289.69 685.01 1289.6 685.001L1225.67 678.301C1225.31 678.263 1225.05 677.94 1225.09 677.581C1225.13 677.22 1225.45 676.961 1225.81 676.997L1289.34 683.655L1322.61 632.133C1322.81 631.83 1323.21 631.743 1323.51 631.939C1323.82 632.135 1323.91 632.541 1323.71 632.845L1290.22 684.705C1290.13 684.841 1290 684.939 1289.85 684.981Z" fill="black"/>
<path d="M1280.94 690.333C1277.7 685.347 1279.12 678.681 1284.11 675.443C1289.09 672.206 1295.76 673.622 1298.99 678.608C1302.23 683.594 1300.81 690.26 1295.83 693.497C1290.84 696.735 1284.18 695.318 1280.94 690.333Z" fill="#FFD42E"/>
<path d="M1281.49 689.975C1284.53 694.649 1290.8 695.984 1295.47 692.948C1297.74 691.477 1299.29 689.213 1299.85 686.571C1300.42 683.931 1299.91 681.229 1298.44 678.965C1295.41 674.29 1289.14 672.959 1284.46 675.993C1279.79 679.029 1278.45 685.301 1281.49 689.975ZM1293.06 695.465C1288.37 696.778 1283.17 694.98 1280.39 690.689C1276.96 685.41 1278.47 678.323 1283.75 674.893C1289.03 671.464 1296.11 672.971 1299.54 678.251C1301.2 680.809 1301.77 683.861 1301.14 686.845C1300.5 689.828 1298.74 692.387 1296.19 694.047C1295.2 694.692 1294.14 695.162 1293.06 695.465Z" fill="black"/>
<path d="M1225.91 682.307C1223.7 678.908 1224.67 674.365 1228.07 672.159C1231.46 669.952 1236.01 670.917 1238.21 674.316C1240.42 677.714 1239.46 682.257 1236.06 684.463C1232.66 686.67 1228.12 685.704 1225.91 682.307Z" fill="black"/>
<path d="M1226.46 681.949C1228.47 685.038 1232.61 685.919 1235.7 683.913C1238.79 681.908 1239.67 677.762 1237.66 674.673C1235.66 671.584 1231.51 670.703 1228.42 672.709C1226.93 673.681 1225.9 675.177 1225.53 676.922C1225.16 678.668 1225.49 680.453 1226.46 681.949ZM1234.22 686.006C1230.95 686.924 1227.31 685.666 1225.36 682.663C1222.96 678.968 1224.01 674.009 1227.71 671.609C1231.41 669.208 1236.36 670.262 1238.76 673.958C1241.16 677.654 1240.11 682.614 1236.41 685.014C1235.72 685.464 1234.98 685.793 1234.22 686.006Z" fill="black"/>
<path d="M1316.62 636.793C1314.43 633.411 1315.39 628.888 1318.77 626.691C1322.15 624.494 1326.68 625.455 1328.87 628.837C1331.07 632.221 1330.11 636.744 1326.73 638.941C1323.34 641.138 1318.82 640.177 1316.62 636.793Z" fill="white"/>
<path d="M1320.96 626.409C1320.32 626.589 1319.7 626.867 1319.13 627.24C1317.64 628.207 1316.62 629.698 1316.25 631.434C1315.88 633.171 1316.21 634.947 1317.17 636.437C1318.14 637.926 1319.63 638.948 1321.37 639.318C1323.1 639.688 1324.88 639.358 1326.37 638.39C1329.44 636.395 1330.32 632.27 1328.32 629.195C1327.36 627.706 1325.87 626.683 1324.13 626.313C1323.06 626.086 1321.98 626.123 1320.96 626.409ZM1324.89 640.486C1323.67 640.829 1322.37 640.872 1321.09 640.601C1319.01 640.16 1317.23 638.934 1316.07 637.151C1314.92 635.368 1314.52 633.241 1314.96 631.162C1315.41 629.081 1316.63 627.299 1318.41 626.14C1320.2 624.983 1322.32 624.589 1324.4 625.03C1326.48 625.473 1328.27 626.698 1329.42 628.481C1331.81 632.162 1330.76 637.1 1327.08 639.49C1326.4 639.938 1325.66 640.271 1324.89 640.486Z" fill="black"/>
<path d="M84.4527 606.4C82.8877 606.833 81.967 608.46 82.4007 610.026C82.8342 611.591 84.4603 612.511 86.0254 612.078C87.5905 611.644 88.5111 610.018 88.0777 608.453C87.6439 606.887 86.0178 605.966 84.4527 606.4ZM86.3753 613.341C84.1138 613.968 81.7628 612.637 81.1363 610.376C80.5096 608.113 81.8413 605.763 84.1028 605.137C86.3656 604.51 88.7153 605.84 89.342 608.103C89.9685 610.365 88.6381 612.714 86.3753 613.341Z" fill="black"/>
<path d="M133.593 653.796C133.542 653.81 133.49 653.819 133.436 653.821C131.777 653.87 130.094 654.233 128.565 654.862C128.232 654.999 127.848 654.841 127.71 654.506C127.571 654.171 127.732 653.787 128.066 653.649C129.742 652.96 131.581 652.563 133.397 652.51C133.759 652.498 134.062 652.784 134.072 653.146C134.081 653.453 133.877 653.717 133.593 653.796ZM121.011 661.91C120.862 661.952 120.697 661.941 120.548 661.867C120.222 661.708 120.088 661.315 120.247 660.989C121.056 659.336 122.145 657.86 123.483 656.602C123.746 656.355 124.161 656.367 124.41 656.632C124.658 656.895 124.645 657.311 124.381 657.558C123.159 658.706 122.165 660.055 121.425 661.566C121.34 661.742 121.186 661.862 121.011 661.91ZM143.288 657.158C143.088 657.214 142.865 657.173 142.693 657.03C141.403 655.955 139.944 655.129 138.357 654.578C138.015 654.458 137.834 654.085 137.953 653.744C138.071 653.401 138.445 653.22 138.787 653.339C140.525 653.943 142.121 654.846 143.533 656.023C143.812 656.255 143.849 656.668 143.616 656.947C143.528 657.053 143.413 657.124 143.288 657.158ZM120.065 672.127C119.717 672.223 119.355 672.019 119.258 671.67C118.765 669.89 118.602 668.062 118.771 666.239C118.804 665.878 119.123 665.613 119.484 665.647C119.844 665.68 120.11 665.999 120.077 666.36C119.922 668.024 120.072 669.693 120.523 671.32C120.619 671.669 120.415 672.03 120.065 672.127ZM148.319 666.1C148.295 666.106 148.269 666.113 148.242 666.117C147.885 666.172 147.55 665.926 147.495 665.567C147.412 665.023 147.296 664.478 147.148 663.945C146.849 662.864 146.421 661.826 145.877 660.856C145.7 660.541 145.812 660.141 146.128 659.963C146.444 659.786 146.844 659.899 147.021 660.214C147.616 661.275 148.085 662.413 148.412 663.595C148.574 664.178 148.702 664.775 148.792 665.37C148.843 665.702 148.635 666.012 148.319 666.1ZM123.469 678.181C123.243 678.243 122.989 678.181 122.817 677.999C121.555 676.66 120.559 675.119 119.858 673.417C119.72 673.082 119.879 672.699 120.215 672.56C120.549 672.424 120.933 672.582 121.07 672.917C121.711 674.47 122.619 675.878 123.771 677.098C124.019 677.363 124.006 677.777 123.743 678.026C123.663 678.102 123.569 678.153 123.469 678.181ZM146.155 676.131C145.982 676.179 145.788 676.156 145.624 676.05C145.32 675.853 145.233 675.447 145.43 675.143C146.344 673.731 146.988 672.182 147.342 670.543C147.418 670.19 147.768 669.964 148.123 670.04C148.476 670.118 148.701 670.467 148.624 670.822C148.235 672.616 147.531 674.309 146.531 675.855C146.44 675.995 146.305 676.089 146.155 676.131ZM132.693 682.678C132.619 682.698 132.539 682.706 132.459 682.7C130.63 682.533 128.865 682.036 127.207 681.228C126.882 681.069 126.747 680.676 126.906 680.351C127.065 680.027 127.458 679.891 127.783 680.049C129.296 680.788 130.909 681.241 132.578 681.393C132.939 681.425 133.204 681.745 133.171 682.105C133.145 682.385 132.948 682.607 132.693 682.678ZM137.889 682.205C137.54 682.302 137.179 682.098 137.082 681.75C136.984 681.401 137.189 681.04 137.538 680.942C139.164 680.488 140.671 679.758 142.017 678.768C142.31 678.555 142.72 678.617 142.933 678.909C143.148 679.199 143.086 679.61 142.794 679.824C141.319 680.909 139.669 681.71 137.889 682.205Z" fill="black"/>
<path d="M1154.46 98.9453C1152.89 98.525 1151.27 99.4593 1150.85 101.028C1150.43 102.596 1151.36 104.215 1152.93 104.635C1154.5 105.055 1156.12 104.121 1156.54 102.552C1156.96 100.984 1156.03 99.3656 1154.46 98.9453ZM1152.59 105.902C1150.33 105.295 1148.97 102.956 1149.58 100.688C1150.19 98.4219 1152.53 97.0707 1154.8 97.678C1157.06 98.2857 1158.41 100.626 1157.81 102.892C1157.2 105.16 1154.86 106.51 1152.59 105.902Z" fill="black"/>
<path d="M1135.33 51.5447C1135.28 51.5316 1135.23 51.5113 1135.19 51.4862C1134.22 50.9531 1133.18 50.5368 1132.1 50.248C1132.1 50.2469 1132.09 50.2463 1132.09 50.2452C1131.56 50.1017 1131.01 49.9893 1130.46 49.9122C1130.1 49.8578 1129.85 49.5286 1129.91 49.17C1129.96 48.812 1130.29 48.5631 1130.65 48.6135C1131.24 48.6987 1131.84 48.8209 1132.43 48.9779C1133.6 49.3051 1134.75 49.7524 1135.82 50.336C1136.14 50.5105 1136.25 50.9087 1136.08 51.2267C1135.93 51.4975 1135.62 51.6214 1135.33 51.5447ZM1120.38 52.1529C1120.23 52.1132 1120.09 52.02 1120 51.8808C1119.8 51.579 1119.88 51.1718 1120.18 50.9729C1121.72 49.9573 1123.41 49.2374 1125.2 48.8335C1125.55 48.7529 1125.9 48.974 1125.98 49.3279C1126.06 49.6807 1125.84 50.0329 1125.49 50.1121C1123.85 50.4815 1122.31 51.1394 1120.91 52.0665C1120.75 52.1744 1120.55 52.2002 1120.38 52.1529ZM1141.98 59.3608C1141.78 59.3069 1141.61 59.1591 1141.54 58.9479C1140.97 57.3663 1140.13 55.916 1139.04 54.6344C1138.81 54.3593 1138.84 53.9444 1139.12 53.7104C1139.4 53.4756 1139.81 53.5106 1140.04 53.7854C1141.23 55.1868 1142.15 56.7747 1142.77 58.5061C1142.89 58.8469 1142.72 59.2224 1142.37 59.3439C1142.24 59.3915 1142.11 59.3943 1141.98 59.3608ZM1114.38 60.4794C1114.03 60.3859 1113.82 60.0259 1113.91 59.6758C1114.39 57.8918 1115.18 56.2334 1116.25 54.7481C1116.46 54.4542 1116.87 54.3869 1117.16 54.6001C1117.46 54.811 1117.53 55.2209 1117.31 55.515C1116.34 56.8707 1115.62 58.3863 1115.18 60.0154C1115.09 60.3654 1114.73 60.5732 1114.38 60.4794ZM1141.79 69.6187C1141.76 69.6118 1141.74 69.6042 1141.71 69.5933C1141.37 69.4589 1141.21 69.0769 1141.35 68.7416C1141.55 68.2308 1141.73 67.7002 1141.87 67.166C1142.16 66.0819 1142.32 64.9698 1142.34 63.8608C1142.35 63.4983 1142.65 63.2112 1143.01 63.2185C1143.37 63.2253 1143.66 63.525 1143.65 63.8865C1143.63 65.1012 1143.45 66.319 1143.14 67.5056C1142.98 68.0902 1142.79 68.6694 1142.56 69.2278C1142.44 69.5394 1142.1 69.7032 1141.79 69.6187ZM1114.24 67.4226C1114.01 67.3618 1113.83 67.1796 1113.77 66.9335C1113.36 65.1405 1113.29 63.3081 1113.55 61.4862C1113.6 61.1266 1113.93 60.8774 1114.29 60.928C1114.64 60.9831 1114.89 61.3105 1114.84 61.6695C1114.61 63.3329 1114.68 65.0067 1115.05 66.643C1115.13 66.9968 1114.91 67.3474 1114.56 67.4286C1114.45 67.4522 1114.34 67.4491 1114.24 67.4226ZM1134.83 77.1655C1134.66 77.1186 1134.5 76.9996 1134.41 76.8247C1134.25 76.5007 1134.38 76.1067 1134.71 75.945C1136.21 75.1916 1137.55 74.1836 1138.69 72.9519C1138.93 72.685 1139.35 72.6682 1139.61 72.9144C1139.88 73.1601 1139.9 73.5746 1139.65 73.8411C1138.41 75.1904 1136.94 76.2938 1135.29 77.1181C1135.14 77.1912 1134.98 77.2056 1134.83 77.1655ZM1119.91 75.9771C1119.83 75.9571 1119.76 75.9237 1119.69 75.8768C1118.2 74.8059 1116.93 73.4826 1115.92 71.9454C1115.72 71.643 1115.8 71.2359 1116.1 71.0365C1116.4 70.8356 1116.81 70.9189 1117.01 71.2206C1117.94 72.6253 1119.1 73.8337 1120.46 74.8112C1120.75 75.0236 1120.82 75.4325 1120.61 75.7274C1120.45 75.9544 1120.16 76.0457 1119.91 75.9771ZM1124.63 78.2048C1124.28 78.1112 1124.07 77.7531 1124.16 77.403C1124.25 77.0535 1124.61 76.8446 1124.96 76.9385C1126.59 77.3725 1128.27 77.5087 1129.93 77.3382C1130.29 77.3018 1130.61 77.5636 1130.65 77.924C1130.68 78.2847 1130.42 78.6051 1130.06 78.6422C1128.24 78.828 1126.41 78.6815 1124.63 78.2051C1124.63 78.2051 1124.63 78.2051 1124.63 78.2048Z" fill="black"/>
<path d="M1219.51 111.803C1218.28 111.475 1217.18 110.636 1216.49 109.388L1197.6 74.8346C1196.84 73.442 1196.67 71.8001 1197.14 70.326C1197.58 68.9432 1198.52 67.8403 1199.79 67.2199L1207.79 63.3215C1209.04 62.7092 1210.48 62.6431 1211.82 63.1246C1213.26 63.6428 1214.45 64.7579 1215.1 66.1854L1230.75 100.8C1230.9 101.13 1230.75 101.519 1230.42 101.668C1230.09 101.818 1229.7 101.67 1229.56 101.342L1213.9 66.7251C1213.4 65.6194 1212.48 64.7575 1211.38 64.3598C1210.37 63.9925 1209.3 64.0444 1208.36 64.4994L1200.37 68.3993C1199.42 68.86 1198.72 69.6859 1198.39 70.7238C1198.03 71.8571 1198.16 73.1265 1198.75 74.2056L1217.64 108.759C1218.56 110.44 1220.52 111.117 1222.11 110.296L1225.32 108.636C1226.88 107.826 1227.48 105.78 1226.65 104.076L1212.98 76.0523C1212.03 74.115 1209.8 73.2546 1207.99 74.1344C1207.13 74.5545 1206.49 75.3069 1206.19 76.252C1205.86 77.2862 1205.99 78.4423 1206.53 79.4249L1219.26 102.608C1219.43 102.927 1219.31 103.325 1219 103.499C1218.68 103.672 1218.28 103.556 1218.1 103.24L1205.38 80.0568C1204.66 78.7608 1204.51 77.2286 1204.94 75.8549C1205.35 74.5652 1206.23 73.5344 1207.42 72.9565C1209.87 71.7589 1212.9 72.8897 1214.16 75.4762L1227.83 103.5C1228.97 105.839 1228.11 108.666 1225.92 109.801L1222.71 111.46C1221.69 111.99 1220.55 112.083 1219.51 111.803Z" fill="black"/>
</svg>
