<svg width="60" height="60" viewBox="0 0 60 60" fill="none" xmlns="http://www.w3.org/2000/svg">
<g clip-path="url(#clip0_106_1594)">
<path opacity="0.949" fill-rule="evenodd" clip-rule="evenodd" d="M59.9414 10.6055C59.9414 15.6445 59.9414 20.6836 59.9414 25.7227C59.3746 26.34 58.8081 26.34 58.2422 25.7227C58.1836 23.4574 58.164 21.1917 58.1836 18.9258C39.3554 18.9258 20.5274 18.9258 1.69922 18.9258C1.67968 28.7305 1.69922 38.5352 1.75781 48.3399C1.93552 49.6503 2.65816 50.4901 3.92578 50.8594C21.4308 50.9759 38.9307 50.9369 56.4258 50.7422C57.4511 50.2642 58.0174 49.4633 58.125 48.3399C58.164 41.8555 58.2032 35.3711 58.2422 28.8867C58.4054 28.5509 58.6788 28.3947 59.0625 28.418C59.4049 28.4236 59.6979 28.5408 59.9414 28.7695C59.9414 35.6054 59.9414 42.4415 59.9414 49.2774C59.3549 51.1329 58.1048 52.2852 56.1914 52.7344C38.6914 52.8126 21.1914 52.8126 3.69141 52.7344C1.77797 52.2852 0.527966 51.1329 -0.0585938 49.2774C-0.0585938 36.3867 -0.0585938 23.4961 -0.0585938 10.6055C0.527966 8.74993 1.77797 7.59757 3.69141 7.14844C14.7852 7.07031 25.8789 7.07031 36.9727 7.14844C37.5168 7.3913 37.6925 7.80146 37.5 8.37891C37.4024 8.63282 37.2266 8.8086 36.9727 8.90625C25.918 8.94531 14.8632 8.98438 3.80859 9.02344C2.90098 9.34502 2.25645 9.95048 1.875 10.8398C1.70929 12.9053 1.65069 14.9755 1.69922 17.0508C20.5274 17.0508 39.3554 17.0508 58.1836 17.0508C58.2321 14.9755 58.1735 12.9053 58.0078 10.8398C57.6264 9.95048 56.9818 9.34502 56.0742 9.02344C50.8789 8.98438 45.6836 8.94531 40.4883 8.90625C39.9259 8.54636 39.7893 8.05807 40.0781 7.44141C40.1839 7.30062 40.3206 7.20296 40.4883 7.14844C45.7227 7.07031 50.957 7.07031 56.1914 7.14844C58.1048 7.59757 59.3549 8.74993 59.9414 10.6055ZM20.0977 23.3789C26.6405 23.2424 33.203 23.2228 39.7852 23.3203C36.5105 23.8579 33.2292 24.3462 29.9414 24.7852C26.6597 24.3163 23.3784 23.8475 20.0977 23.3789ZM9.31641 35.332C11.5042 35.3125 13.6917 35.332 15.8789 35.3906C14.7797 36.7881 13.6664 38.1748 12.5391 39.5508C11.4343 38.1586 10.3601 36.7524 9.31641 35.332ZM35.8008 35.4492C40.3123 35.3127 44.8434 35.2933 49.3945 35.3906C47.1397 36.9771 44.8546 38.5201 42.5391 40.0195C40.3069 38.4702 38.0609 36.9468 35.8008 35.4492ZM33.457 36.1524C35.9319 37.7865 38.3929 39.4467 40.8398 41.1328C38.3985 42.793 35.957 44.4531 33.5156 46.1133C33.457 42.7933 33.4375 39.4729 33.457 36.1524ZM51.5039 36.2695C51.6596 39.4926 51.6596 42.7348 51.5039 45.9961C49.0805 44.4329 46.6977 42.8119 44.3555 41.1328C46.746 39.5091 49.1289 37.8879 51.5039 36.2695ZM16.8164 37.207C16.9527 39.8433 16.9723 42.4996 16.875 45.1758C15.8399 43.8281 14.8046 42.4805 13.7695 41.1328C14.8003 39.8313 15.816 38.5227 16.8164 37.207ZM42.3633 42.3633C42.5242 42.3449 42.6805 42.3645 42.832 42.4219C45.0196 43.9063 47.207 45.3906 49.3945 46.875C44.8632 46.9532 40.3321 46.9532 35.8008 46.875C38.0164 45.3974 40.2039 43.8935 42.3633 42.3633ZM12.4805 42.7149C13.597 44.1041 14.7299 45.4908 15.8789 46.875C13.6914 46.9532 11.5039 46.9532 9.31641 46.875C10.3964 45.5028 11.4511 44.1161 12.4805 42.7149Z" fill="#F1C736" fill-opacity="0.780392"/>
<path opacity="0.91" fill-rule="evenodd" clip-rule="evenodd" d="M6.97274 11.3086C8.37306 11.2442 9.05665 11.9082 9.02352 13.3008C8.55958 14.6278 7.68067 14.9989 6.38681 14.4141C5.64032 13.7204 5.50361 12.9196 5.97665 12.0117C6.24874 11.6724 6.58077 11.4381 6.97274 11.3086Z" fill="#F1C736"/>
<path opacity="0.923" fill-rule="evenodd" clip-rule="evenodd" d="M12.0117 11.3086C13.6943 11.4091 14.2997 12.2685 13.8281 13.8867C12.7128 15.0287 11.6972 14.9505 10.7812 13.6523C10.4888 12.4786 10.899 11.6974 12.0117 11.3086Z" fill="#252222"/>
<path opacity="0.899" fill-rule="evenodd" clip-rule="evenodd" d="M16.9335 11.3086C18.7666 11.381 19.372 12.2795 18.7499 14.0039C17.8124 14.9414 16.8749 14.9414 15.9374 14.0039C15.3821 12.7586 15.7141 11.8601 16.9335 11.3086Z" fill="#252222"/>
<path opacity="0.96" fill-rule="evenodd" clip-rule="evenodd" d="M6.85547 21.3867C22.2462 21.3672 37.6368 21.3867 53.0274 21.4453C53.2031 21.5429 53.3399 21.6797 53.4375 21.8555C53.5157 24.4726 53.5157 27.0899 53.4375 29.707C53.3789 29.9218 53.2422 30.0586 53.0274 30.1172C37.6368 30.1954 22.2461 30.1954 6.85547 30.1172C6.64063 30.0586 6.50391 29.9218 6.44532 29.707C6.36719 27.0899 6.36719 24.4726 6.44532 21.8555C6.52614 21.6387 6.66286 21.4824 6.85547 21.3867ZM20.0977 23.3789C23.3784 23.8476 26.6597 24.3163 29.9414 24.7852C33.2292 24.3462 36.5105 23.8579 39.7852 23.3203C33.203 23.2228 26.6405 23.2424 20.0977 23.3789ZM8.26172 23.3789C13.4145 24.1921 18.5707 24.9929 23.7305 25.7813C18.579 26.6203 13.4228 27.4211 8.26172 28.1836C8.26172 26.582 8.26172 24.9805 8.26172 23.3789ZM51.3867 23.3789C51.619 24.9366 51.6972 26.5382 51.6211 28.1836C46.4617 27.4103 41.3054 26.6094 36.1524 25.7813C41.2528 25.0166 46.331 24.2158 51.3867 23.3789ZM29.3555 26.7774C33.037 27.2224 36.7089 27.7498 40.3711 28.3594C33.418 28.4376 26.4648 28.4376 19.5117 28.3594C22.8152 27.8673 26.0965 27.34 29.3555 26.7774Z" fill="#322F2F"/>
<path opacity="0.934" fill-rule="evenodd" clip-rule="evenodd" d="M6.97258 33.457C10.6837 33.4375 14.3946 33.457 18.1054 33.5156C18.3147 33.6076 18.4905 33.7443 18.6327 33.9258C18.826 38.6063 18.865 43.2938 18.7499 47.9883C18.6972 48.2249 18.5996 48.4397 18.457 48.6328C14.5997 48.8264 10.7326 48.8655 6.85539 48.75C6.71867 48.6133 6.58196 48.4766 6.44524 48.3399C6.36711 45.5274 6.36711 42.7149 6.44524 39.9024C6.99701 39.2949 7.54388 39.2949 8.08586 39.9024C8.23629 41.6132 8.31442 43.3319 8.32023 45.0586C9.29391 43.7528 10.29 42.4637 11.3085 41.1914C9.70986 39.0653 8.08877 36.9559 6.44524 34.8633C6.24704 34.2341 6.42282 33.7654 6.97258 33.457ZM9.31633 35.332C10.3601 36.7524 11.4343 38.1586 12.539 39.5508C13.6663 38.1748 14.7796 36.7881 15.8788 35.3906C13.6916 35.332 11.5042 35.3125 9.31633 35.332ZM16.8163 37.207C15.8159 38.5227 14.8002 39.8313 13.7695 41.1328C14.8046 42.4805 15.8398 43.8281 16.8749 45.1758C16.9722 42.4996 16.9526 39.8433 16.8163 37.207ZM12.4804 42.7149C11.451 44.1161 10.3963 45.5028 9.31633 46.875C11.5038 46.9532 13.6913 46.9532 15.8788 46.875C14.7298 45.4908 13.597 44.1041 12.4804 42.7149Z" fill="#252222"/>
<path opacity="0.917" fill-rule="evenodd" clip-rule="evenodd" d="M21.2696 33.457C23.6918 33.4375 26.1137 33.457 28.5352 33.5156C29.3307 34.153 29.2917 34.739 28.418 35.2735C26.0743 35.3516 23.7305 35.3516 21.3868 35.2735C20.4923 34.7229 20.4533 34.1174 21.2696 33.457Z" fill="#252222"/>
<path opacity="0.942" fill-rule="evenodd" clip-rule="evenodd" d="M32.2852 33.4571C39.2481 33.3994 46.2012 33.458 53.1446 33.6328C53.2422 33.7305 53.3399 33.8282 53.4375 33.9258C53.5157 38.7305 53.5157 43.5352 53.4375 48.3399C53.3008 48.4766 53.1641 48.6133 53.0274 48.75C45.9865 48.8663 38.9553 48.8272 31.9336 48.6328C31.8603 48.5449 31.8017 48.4472 31.7578 48.3399C31.6797 43.5352 31.6797 38.7305 31.7578 33.9258C31.9216 33.7418 32.0973 33.5855 32.2852 33.4571ZM35.8008 35.4492C38.0609 36.9468 40.3069 38.4702 42.5391 40.0196C44.8546 38.5201 47.1398 36.9771 49.3946 35.3906C44.8435 35.2933 40.3123 35.3127 35.8008 35.4492ZM33.4571 36.1524C33.4375 39.4729 33.4571 42.7933 33.5157 46.1133C35.957 44.4531 38.3985 42.793 40.8399 41.1328C38.3929 39.4467 35.9319 37.7865 33.4571 36.1524ZM51.5039 36.2696C49.1289 37.8879 46.746 39.5091 44.3555 41.1328C46.6977 42.8119 49.0805 44.4329 51.5039 45.9961C51.6597 42.7348 51.6597 39.4926 51.5039 36.2696ZM42.3633 42.3633C40.2039 43.8935 38.0165 45.3974 35.8008 46.875C40.3321 46.9532 44.8633 46.9532 49.3946 46.875C47.207 45.3906 45.0196 43.9063 42.8321 42.4219C42.6805 42.3645 42.5242 42.3449 42.3633 42.3633Z" fill="#252222"/>
<path opacity="0.918" fill-rule="evenodd" clip-rule="evenodd" d="M21.2696 37.207C23.6918 37.1875 26.1137 37.207 28.5352 37.2656C29.3346 37.8978 29.2954 38.4837 28.418 39.0235C26.0743 39.1016 23.7305 39.1016 21.3868 39.0235C20.4923 38.4729 20.4533 37.8674 21.2696 37.207Z" fill="#252222"/>
<path opacity="0.902" fill-rule="evenodd" clip-rule="evenodd" d="M21.2695 41.0742C22.3249 41.0548 23.3795 41.0742 24.4335 41.1328C25.0131 41.6367 25.0522 42.1837 24.5507 42.7735C23.5049 42.9586 22.4502 42.9976 21.3867 42.8907C20.5113 42.3224 20.4722 41.7169 21.2695 41.0742Z" fill="#252222"/>
</g>
<defs>
<clipPath id="clip0_106_1594">
<rect width="60" height="60" fill="white"/>
</clipPath>
</defs>
</svg>
